<svg width="1000" height="600" viewBox="0 0 1000 600" fill="none" xmlns="http://www.w3.org/2000/svg">
<g clip-path="url(#clip0_74_2)">
<path d="M934.593 600C939.457 626.259 942 653.332 942 681C942 925.11 744.11 1123 500 1123C255.89 1123 58 925.11 58 681C58 653.333 60.542 626.259 65.4053 600H934.593ZM1000 600H934.593C928.348 566.285 918.277 533.912 904.847 503.35C928.048 475.406 942 439.506 942 400.348C942 311.238 869.762 239 780.652 239C741.494 239 705.593 252.951 677.649 276.152C623.284 252.262 563.191 239 500 239C283.557 239 103.451 394.575 65.4053 600H0V0H1000V600Z" fill="black"/>
</g>
<defs>
<clipPath id="clip0_74_2">
<rect width="1000" height="600" fill="white"/>
</clipPath>
</defs>
</svg>
