<svg width="457" height="910" viewBox="0 0 457 910" fill="none" xmlns="http://www.w3.org/2000/svg">
<g clip-path="url(#clip0_75_2)">
<path d="M1.15251 59.0667C2.383 56.7516 2.55812 56.7209 15.4954 56.5545C39.8653 56.2415 40.7953 55.8705 41.6753 46.1845C43.1253 30.1606 49.8052 7.60574 54.7552 2.00577C56.6452 -0.124614 57.0752 -0.188114 65.6251 0.390783C70.5251 0.722322 89.295 1.22348 107.345 1.50458C125.395 1.78568 145.485 2.32688 151.995 2.70727C165.905 3.51997 217.524 3.34377 295.314 2.21818C325.994 1.77429 362.556 1.41099 376.562 1.41099L402.03 1.41099L406.094 4.24648C413.624 9.50105 421.346 29.3593 422.575 46.6312C423.212 55.5852 430.388 58.9012 434.104 51.9592C435.194 49.9212 444.143 42.5823 446.763 41.5763C453.046 39.1653 460.264 66.7511 455.127 73.5431C454.37 74.5431 453.75 76.1561 453.75 77.1251C453.75 83.5607 443.885 83.5686 436.767 77.1386C431.932 72.77 421.151 71.3683 422.265 75.2531C426.525 90.109 422.128 109.301 411.758 121.112C406.381 127.237 406.446 126.866 405.47 157.035C404.95 173.115 404.522 186.378 403.613 214.69C403.34 223.198 402.883 240.89 402.599 254.007C402.314 267.124 401.943 278.092 401.775 278.382C401.607 278.672 401.2 307.596 400.871 342.659C399.421 497.198 399.178 515.458 398.494 521.688C398.095 525.314 398.121 529.231 398.551 530.394C399.935 534.138 400.267 545.824 400.875 612.186C401.204 648.022 401.563 679.874 401.674 682.967C401.785 686.061 402.187 700.615 402.568 715.311C402.948 730.006 403.641 743.717 404.107 745.78C404.573 747.842 404.965 752.283 404.978 755.649C404.992 759.638 405.508 762.494 406.46 763.852C411.405 770.913 415.277 785.36 417.446 804.842L418.594 815.154L424.446 815.146L430.298 815.138L435.789 809.223C445.43 798.836 453.852 804.355 455.333 822.03C457.207 844.402 445.398 852.751 432.959 837.849C430.583 835.003 430.104 834.842 424.052 834.842L417.657 834.842L417.456 840.467C416.159 876.761 405.046 888.893 374.532 887.325C356.219 886.384 270.593 886.35 231.093 887.268C214.077 887.663 182.859 888.112 161.718 888.265C140.051 888.423 119.396 889.021 114.375 889.638C109.476 890.24 101.461 890.668 96.5627 890.591C91.6643 890.513 82.7888 890.979 76.8398 891.625C63.2619 893.101 62.1179 892.796 57.0679 886.352C54.8136 883.476 51.6907 879.569 50.1282 877.67C46.131 872.812 42.4621 867.169 41.3191 864.12C39.4852 859.23 37.5005 849.257 37.4861 844.861C37.4629 837.774 37.688 837.869 21.7402 838.252L7.62631 838.591L4.75133 835.837C-5.51461 826.006 3.21994 817.738 24.0272 817.591C39.3861 817.482 38.9052 817.757 39.7611 808.591C41.2503 792.633 50.7331 770.463 56.977 768.341C58.5949 767.791 60.3842 766.873 60.9533 766.301C61.9815 765.268 66.2203 742.581 68.9043 723.748C69.6758 718.334 70.7204 711.374 71.2254 708.28C71.7304 705.186 72.8 692.988 73.6021 681.174C74.4042 669.359 75.4715 657.969 75.974 655.862C76.4765 653.755 77.3194 641.695 77.8472 629.062C78.375 616.429 79.2236 602.718 79.733 598.593C81.0686 587.779 82.7975 509.654 82.1292 490.314C81.8174 481.29 81.3487 457.455 81.0875 437.345C80.5317 394.543 78.1123 340.683 74.9816 301.406C74.4884 295.218 73.8437 285.726 73.5488 280.312C73.2539 274.898 72.4328 265.195 71.7241 258.75C71.0153 252.305 69.963 241.758 69.3855 235.312C67.4001 213.153 65.5411 196.399 64.6523 192.656C64.1627 190.594 63.5396 184.899 63.2678 180C62.996 175.102 62.1325 166.243 61.349 160.313C60.5655 154.383 59.5746 145.809 59.1471 141.258C58.4217 133.537 58.1491 132.754 55.0621 129.539C48.5754 122.782 40.3522 96.3929 40.2992 82.164C40.2743 75.4169 36.9272 74.5301 16.8143 75.9415C10.5529 76.3809 4.93735 76.5515 4.33636 76.3207C0.907375 75.0048 -1.21121 63.5138 1.15458 59.0618L1.15251 59.0667ZM7.36448 71.0966C9.79446 71.4416 17.8144 69.3296 17.8144 68.3466C17.8144 67.3126 13.2937 66.7785 8.81506 67.2833C4.19119 67.8045 3.1677 70.4999 7.36698 71.0971L7.36448 71.0966ZM6.19355 831.952C6.98508 834.015 19.1785 834.077 21.2275 832.029C22.0009 831.256 23.4473 830.623 24.4417 830.623C28.0258 830.623 26.1527 828.99 21.9002 828.407C15.0212 827.464 7.97524 827.71 6.75025 828.936C5.43556 830.25 5.46901 830.064 6.19355 831.952ZM13.1235 823.123C16.2485 823.123 18.7485 822.706 18.7485 822.185C18.7485 821.168 11.3943 820.891 8.98144 821.817C6.38035 822.815 7.35664 823.123 13.1235 823.123ZM26.2474 833.706C27.2782 833.976 28.3577 833.814 28.6465 833.347C28.9353 832.88 28.092 832.498 26.7724 832.498C23.8999 832.498 23.6679 833.032 26.2474 833.706ZM41.6944 850.506C44.5627 865.496 45.2313 867.089 48.2796 866.194C48.7952 866.043 51.5374 865.676 54.3734 865.38C60.0361 864.788 60.0679 864.73 58.6242 857.576C58.0387 854.674 58.1786 854.06 59.4253 854.06C60.3909 854.06 60.9359 854.864 60.9359 856.289C60.9359 862.078 63.5306 865.435 67.7672 865.128C71.9657 864.823 74.2008 861.209 70.8454 860.15C66.2187 858.689 66.093 858.484 69.3733 857.748C73.1405 856.903 73.4031 857.182 76.4858 865.309C79.4538 873.134 79.7899 873.747 81.1046 873.747C81.8612 873.747 82.137 873.037 81.8324 871.872C81.4089 870.253 81.8036 869.997 84.7327 869.997C88.1932 869.997 89.1489 868.586 87.0851 866.522C86.5141 865.951 85.7604 864.074 85.4101 862.35C84.8453 859.57 84.3533 859.152 81.0576 858.646C77.3531 858.078 77.3515 858.076 80.5199 857.943C82.3189 857.868 84.2382 857.098 84.9432 856.169C85.7735 855.076 86.1986 854.939 86.2184 855.759C86.2348 856.435 87.2494 859.177 88.4731 861.853C89.6968 864.528 90.9658 867.498 91.2934 868.454C91.7155 869.686 92.3644 869.986 93.5217 869.483C94.4197 869.093 96.5377 868.58 98.2283 868.343C102.652 867.722 100.365 865.31 95.3521 865.31C90.9424 865.31 90.9976 864.758 95.4772 864.06C101.539 863.114 100.299 859.503 93.653 858.748C89.4384 858.268 90.4738 856.873 95.0437 856.873C96.1875 856.873 97.6471 856.349 98.2873 855.709C99.7776 854.218 100.706 855.593 102.631 862.141C104.441 868.299 105.66 869.276 110.555 868.493C115.183 867.753 115.168 865.779 110.535 865.779C106.663 865.779 105.794 864.143 109.409 863.659C113.394 863.125 114.586 858.769 110.757 858.733C109.491 858.721 109.452 858.57 110.538 857.882C112.053 856.923 114.373 857.563 114.373 858.941C114.373 859.452 114.961 861.2 115.679 862.825C116.397 864.449 117.21 866.471 117.485 867.317C118.069 869.112 129.714 868.723 132.103 866.829C133.094 866.043 133.527 866.074 133.822 866.951C134.435 868.773 145.31 868.551 145.31 866.716C145.31 865.654 144.164 865.31 140.622 865.31C138.044 865.31 135.935 864.888 135.935 864.373C135.935 863.857 136.884 863.429 138.044 863.422C145.03 863.38 146.366 860.117 140.154 858.269L136.404 857.153L139.216 856.466C140.763 856.088 142.61 855.596 143.319 855.372C145.162 854.792 147.185 856.755 147.185 859.123C147.185 860.234 147.755 861.975 148.451 862.992C149.148 864.009 150.009 866.039 150.365 867.502C150.835 869.436 151.322 869.909 152.145 869.233C152.769 868.721 154.3 868.157 155.549 867.978C159.319 867.44 159.066 865.31 155.232 865.31C151.152 865.31 150.798 863.884 154.685 863.107C156.232 862.798 157.497 861.953 157.497 861.23C157.497 858.954 155.129 857.768 151.881 858.418C149.526 858.889 148.908 858.736 149.233 857.761C149.892 855.782 155.571 854.653 158.089 856.001C159.439 856.723 161.987 856.935 165.011 856.577L169.797 856.01L172.57 862.192L175.344 868.373L179.623 867.786C186.946 866.783 187.616 864.465 180.645 864.254L176.716 864.136L180.274 863.141C185.579 861.658 184.87 858.491 179.06 857.717C176.74 857.408 175.052 857.03 175.31 856.877C176.451 856.202 185.622 856.29 185.622 856.976C185.622 857.396 186.496 860.076 187.564 862.931L189.507 868.123L195.533 868.123C200.265 868.123 201.559 867.821 201.559 866.717C201.559 865.654 200.414 865.31 196.872 865.31C194.294 865.31 192.184 864.889 192.184 864.373C192.184 863.857 193.872 863.435 195.934 863.435L199.684 863.435L199.684 859.498C199.684 855.349 200.657 855.431 202.84 859.762C203.425 860.923 205.38 862.38 207.184 863C210.257 864.057 210.316 864.151 208.122 864.485C202.691 865.311 205.606 867.649 212.341 867.868C215.95 867.986 219.536 868.158 220.309 868.25C226.85 869.032 240.934 867.985 240.934 866.717C240.934 865.943 240.618 865.286 240.231 865.257C239.844 865.227 236.192 865.02 232.115 864.796C228.037 864.573 224.486 864.175 224.224 863.913C223.798 863.487 225.518 863.346 235.717 862.968C237.253 862.912 238.631 862.268 238.838 861.51C239.936 857.489 240.27 857.494 242.119 861.56C243.174 863.881 244.077 866.412 244.127 867.185C244.195 868.258 245.176 868.515 248.267 868.27C251.371 868.024 252.615 868.353 253.581 869.675C255.355 872.101 256.132 870.844 254.952 867.458C254.004 864.741 253.765 864.633 249.557 865.034C246.28 865.346 245.513 865.198 246.56 864.459C247.333 863.912 249.074 863.458 250.429 863.45C251.784 863.442 253.431 862.787 254.089 861.994C255.3 860.534 256.381 861.966 258.121 867.339C258.679 869.064 264.962 868.79 268.591 866.883C270.259 866.006 270 865.771 266.247 864.758C262.23 863.674 262.175 863.615 265.104 863.528C268.561 863.424 269.958 861.34 268.325 858.725C267.758 857.818 267.548 856.822 267.856 856.514C268.854 855.516 270.934 857.977 270.934 860.154C270.934 861.317 271.567 862.794 272.341 863.435C273.114 864.077 273.747 865.395 273.747 866.363C273.747 867.85 274.474 868.123 278.434 868.123C281.976 868.123 283.122 867.779 283.122 866.717C283.122 865.698 282.074 865.311 279.317 865.311C274.774 865.311 275.156 863.908 279.943 863.01C283.211 862.396 283.326 862.243 282.824 859.153C282.007 854.119 283.509 855.367 286.004 861.795L288.278 867.654L294.699 867.934C299.64 868.149 301.025 867.933 300.708 866.996C300.481 866.327 298.857 865.753 297.099 865.72C295.341 865.687 293.059 865.575 292.028 865.471C288.776 865.143 292.485 863.466 296.499 863.45C299.928 863.436 300.946 859.726 298.05 857.8C297.654 857.537 297.66 855.849 298.063 854.05C298.908 850.281 299.149 850.691 301.778 860.376C302.791 864.107 303.856 867.542 304.145 868.008C305.071 869.506 315.466 868.72 315.466 867.152C315.466 866.121 314.497 865.851 311.57 866.067C309.427 866.225 307.398 865.909 307.061 865.364C306.694 864.77 307.378 864.373 308.771 864.373C312.718 864.373 314.059 863.396 314.059 860.523C314.059 858.192 313.696 857.809 311.481 857.797L308.903 857.783L311.247 856.576C313.711 855.306 314.045 855.696 316.515 862.733C317.219 864.738 324.962 865.05 327.525 863.177C329.737 861.559 328.565 858.748 325.678 858.748C324.444 858.748 323.434 858.326 323.434 857.811C323.434 857.295 324.032 856.873 324.762 856.873C325.493 856.873 326.31 856.346 326.578 855.701C326.94 854.834 327.393 854.929 328.324 856.066C329.404 857.384 331.209 857.54 341.039 857.161C348.901 856.858 352.496 857.038 352.496 857.734C352.496 858.652 351.429 858.869 345.465 859.161C344.434 859.211 343.636 859.666 343.692 860.172C343.935 862.367 345.282 865.311 346.043 865.311C346.499 865.311 346.871 866.154 346.871 867.186C346.871 868.712 347.496 869.061 350.231 869.061C354.198 869.061 354.267 866.888 350.315 866.42C346.696 865.992 347.23 864.373 350.99 864.373C352.953 864.373 354.377 864.912 354.71 865.779C355.309 867.34 358.121 867.727 358.121 866.248C358.121 865.732 359.611 865.311 361.432 865.311C365.517 865.311 366.486 863.375 364.428 859.329C362.672 855.877 361.274 843.748 362.632 843.748C363.132 843.748 363.774 845.119 364.058 846.795C367.048 864.436 370.712 870.936 377.665 870.936C382.997 870.936 380.551 868.281 374.996 868.04L371.715 867.898L375.7 866.94C377.891 866.413 379.664 865.514 379.64 864.943C379.616 864.372 378.438 854.096 377.022 842.107C375.607 830.119 374.745 820.31 375.108 820.31C375.471 820.31 375.91 817.778 376.085 814.684C376.26 811.589 376.142 809.058 375.823 809.059C375.504 809.06 375.809 806.635 376.501 803.67C377.192 800.705 377.989 796.803 378.27 794.998C378.551 793.193 379.363 789.607 380.074 787.029C380.785 784.451 381.635 780.782 381.964 778.876C382.293 776.97 384.235 773.185 386.279 770.464C391.478 763.546 391.317 761.75 385.571 762.537C383.137 762.871 371.852 763.349 360.493 763.599C349.134 763.849 330.348 764.29 318.747 764.579C307.145 764.868 287.95 765.3 276.091 765.537C255.943 765.941 238.45 766.554 183.748 768.774C171.631 769.265 148.639 769.611 132.654 769.542C104.514 769.42 60.5475 771.154 56.7105 772.537C51.5418 774.401 44.2536 796.792 42.2296 817.029C41.6105 823.217 40.9831 829.123 40.8351 830.154C40.0895 835.352 40.4562 844.036 41.6944 850.506ZM82.5041 865.536C84.3088 865.536 85.0471 865.729 84.1447 865.965C83.2424 866.201 81.7658 866.201 80.8636 865.965C79.9612 865.729 80.6995 865.536 82.5041 865.536ZM123.374 857.055C127.798 856.92 129.41 857.252 130.514 858.522C132.223 860.489 133.509 865.319 132.324 865.319C130.879 865.319 129.321 862.808 129.874 861.369C130.701 859.214 128.357 857.961 122.788 857.58L117.66 857.228L123.374 857.055ZM124.278 863.444C126.888 863.444 128.326 863.809 127.972 864.381C127.654 864.897 125.73 865.319 123.698 865.319C121.666 865.319 120.004 864.897 120.004 864.381C120.004 863.866 121.927 863.444 124.278 863.444ZM208.776 856.896C211.427 856.906 211.985 857.144 210.941 857.819C209.107 859.004 206.517 859.004 205.785 857.819C205.437 857.256 206.631 856.887 208.776 856.896ZM213.777 855.944C214.739 855.944 216.046 858.701 217.129 863.016C217.471 864.38 217.3 865.319 216.71 865.319C216.162 865.319 215.435 863.838 215.096 862.027C214.756 860.217 214.104 858.504 213.647 858.222C212.508 857.518 212.598 855.944 213.777 855.944ZM228.956 855.676C235.673 855.067 238.539 856.039 232.972 857.038C227.722 857.98 223.128 857.967 223.128 857.011C223.128 856.567 225.751 855.966 228.956 855.676ZM248.667 856.512C252.821 855.595 255.003 856.236 255.003 858.373C255.003 859.515 254.691 859.665 253.819 858.941C253.168 858.401 250.953 857.807 248.897 857.623L245.159 857.287L248.667 856.512ZM350.627 848.442C351.7 851.794 351.7 853.13 350.627 853.13C350.111 853.13 349.731 851.548 349.783 849.614C349.866 846.477 349.957 846.351 350.627 848.442ZM359.067 858.032C360.871 858.032 361.61 858.225 360.707 858.461C359.805 858.697 358.328 858.697 357.426 858.461C356.527 858.221 357.262 858.031 359.067 858.031L359.067 858.032ZM371.958 858.767C374.013 858.809 375.376 860.599 373.364 860.613C372.204 860.621 371.255 860.205 371.255 859.69C371.255 859.174 371.571 858.759 371.958 858.767ZM45.0195 92.8209C46.8528 105.038 48.4112 108.093 52.4328 107.354C57.0131 106.513 57.1857 106.191 56.1278 100.453C55.6183 97.6893 55.4267 94.8417 55.7019 94.1245C56.4132 92.2708 58.1334 92.5073 58.1505 94.4611C58.1901 98.9856 66.4369 99.2455 67.4969 94.7556C68.6873 89.7131 70.1868 91.7923 70.851 99.4064C71.2214 103.652 71.9802 107.177 72.5609 107.349C73.135 107.519 75.0009 107.9 76.7072 108.196L79.8097 108.733L79.1855 104.293C78.8422 101.85 77.961 99.3742 77.2274 98.7908C76.0854 97.8824 76.0831 97.657 77.2114 97.2241C78.0584 96.899 78.3642 95.8545 78.0672 94.3007C77.7341 92.5583 78.0038 91.8831 79.0326 91.8831C80.0547 91.8831 80.6281 93.2811 81.0514 96.805C82.3459 107.582 84.1544 111.96 86.8791 110.915C88.6481 110.236 88.4416 108.961 86.4954 108.545C85.4033 108.312 86.0231 107.797 88.3492 107.005L91.8436 105.814L91.2625 100.255C90.8913 96.703 91.0287 94.6958 91.6432 94.6958C92.7424 94.6958 93.7294 97.7948 93.7482 101.305C93.7665 104.717 95.4324 105.946 100.042 105.946C105.344 105.946 105.22 107.534 99.8547 108.338C89.3608 109.912 100.13 110.568 116.261 109.337C118.581 109.16 121.112 109.322 121.886 109.698C123.525 110.493 125.636 109.92 125.636 108.68C125.636 108.207 125.003 107.821 124.229 107.821C123.456 107.821 122.823 107.399 122.823 106.883C122.823 106.368 124.089 105.946 125.636 105.946C127.183 105.946 128.448 106.368 128.448 106.883C128.448 107.399 128.026 107.821 127.511 107.821C126.995 107.821 126.573 108.298 126.573 108.881C126.573 109.575 127.741 109.752 129.953 109.393C132.777 108.934 133.412 109.145 133.813 110.676C134.373 112.818 135.948 113.146 135.948 111.12C135.948 110.356 137.108 109.476 138.526 109.163C142.924 108.193 143.097 107.971 139.519 107.895C135.057 107.799 134.14 106.328 138.067 105.566C142.464 104.713 142.799 104.71 144.749 105.515C146.622 106.288 146.619 105.564 144.693 93.7581C144.262 91.1132 144.391 90.6969 145.359 91.6114C146.492 92.6813 148.406 102.364 148.279 106.385C148.223 108.156 149.586 109.651 151.284 109.681C151.726 109.689 151.824 108.641 151.5 107.352C150.966 105.223 151.193 104.998 153.977 104.9C160.084 104.684 159.871 104.875 159.613 99.8517C159.385 95.415 159.442 95.287 160.683 97.46C161.405 98.7227 162.779 100.064 163.737 100.441C165.31 101.06 165.32 101.133 163.838 101.192C162.831 101.233 162.198 102 162.198 103.181C162.198 104.492 161.154 105.54 158.917 106.475C155.047 108.091 154.61 109.172 158.096 108.506C159.449 108.247 161.928 108.415 163.606 108.878C165.421 109.379 167.556 109.375 168.88 108.867L171.104 108.013L168.465 106.979C167.013 106.411 165.115 105.916 164.246 105.879C161.544 105.767 166.01 104.211 169.229 104.143C171.554 104.095 172.412 104.733 174.179 107.828C175.354 109.886 176.725 111.57 177.226 111.57C178.562 111.57 178.333 109.906 176.877 109.039C175.107 107.984 173.356 97.7499 174.262 93.7579L175.007 90.4767L176.182 96.1017C177.8 103.843 178.267 104.495 182.437 104.843C184.441 105.011 186.613 105.59 187.264 106.13C188.788 107.395 188.882 103.722 187.433 99.5653C186.875 97.9648 186.58 95.898 186.778 94.9723C187.139 93.275 188.516 96.6852 189.788 102.43C190.309 104.785 190.742 105.014 194.794 105.077L199.229 105.147L195.479 106.883C191.33 108.804 191.521 108.946 198.291 108.97C202.356 108.985 203.019 108.723 203.279 106.997C203.443 105.903 203.143 105.008 202.612 105.008C201.646 105.008 200.407 101.091 199.275 94.461C197.945 86.6684 201.351 91.5692 203.539 100.596L204.629 105.091L210.366 104.815C215.463 104.57 216.082 104.33 215.912 102.664C215.806 101.633 215.485 98.2578 215.197 95.164L214.675 89.5391L216.795 96.1015C219.787 105.358 219.649 105.227 225.605 104.483C229.73 103.967 231.048 104.154 232.487 105.456C235.586 108.26 237.104 103.379 234.26 99.7569C232.546 97.5739 232.037 89.405 233.701 90.7757C234.526 91.4558 235.456 93.3543 235.767 94.9945C237.768 105.554 240.17 109.941 242.193 106.733C243.065 105.351 243.388 105.336 245.297 106.586C247.83 108.246 249.374 107.546 249.414 104.718C249.443 102.769 249.542 102.796 251.368 105.243C252.894 107.289 254.049 107.821 256.963 107.821C260.75 107.821 261.718 106.467 259.51 104.258C258.635 103.383 258.724 103.133 259.913 103.133C260.775 103.133 261.573 104.037 261.741 105.204C261.925 106.476 262.945 107.525 264.385 107.923C265.859 108.331 266.12 108.606 265.088 108.665C263.016 108.783 262.948 111.198 264.985 112.338C265.995 112.903 267.361 112.761 268.969 111.921C270.315 111.219 272.128 110.642 272.998 110.639C274.281 110.634 274.479 110.014 274.047 107.352C273.573 104.433 273.743 104.071 275.581 104.071C279.07 104.071 277.558 100.885 273.749 100.21C271.875 99.8775 271.35 99.5773 272.521 99.5066C273.644 99.4387 275.202 98.7445 275.982 97.9639C279.201 94.7453 279.535 103.393 276.414 109.131C275.526 110.763 275.724 110.864 278.822 110.362C281.28 109.963 282.197 110.153 282.197 111.061C282.197 113.642 285.005 113.377 287.056 110.602C289.477 107.327 292.051 107.064 294.958 109.794C297.232 111.93 299.344 111.495 298.417 109.081C297.349 106.297 305.252 104.392 307.791 106.822C308.203 107.217 310.453 107.102 312.792 106.567C315.982 105.837 317.508 105.884 318.906 106.758C320.259 107.603 321.586 107.665 323.749 106.984C326.898 105.992 331.777 106.127 333.605 107.257C335.278 108.291 336.716 106.939 336.078 104.93C335.598 103.417 335.978 103.134 338.493 103.134C341.175 103.134 341.406 102.92 340.763 101.024C340.37 99.864 339.942 96.1726 339.812 92.8211C339.681 89.4696 339.746 87.9931 339.955 89.54C341.515 101.075 345.513 108.406 349.301 106.68C350.978 105.916 351.885 105.976 353.033 106.93C353.935 107.679 356.256 108.084 358.762 107.929C361.963 107.733 363.274 108.082 364.227 109.385C366.143 112.005 366.902 110.242 365.241 107.03C363.962 104.557 363.278 104.196 359.97 104.241C357.879 104.27 355.908 104.033 355.589 103.714C355.27 103.395 356.742 103.134 358.86 103.134C362.918 103.134 364.677 101.801 362.927 100.052C362.354 99.4784 361.933 96.4565 361.993 93.337C362.024 90.2131 362.249 88.5041 362.465 89.5351C364.858 100.981 366.454 103.639 370.712 103.272C373.532 103.029 373.843 103.222 373.394 104.938C373.053 106.242 373.333 106.879 374.246 106.879C376.256 106.879 376.849 105.934 375.925 104.2C374.128 100.826 372.081 87.7297 373.586 89.2347C373.851 89.4992 375.085 93.2166 376.329 97.4956C378.671 105.551 379.614 106.84 383.183 106.864C384.463 106.872 385.293 107.454 385.293 108.34C385.293 109.144 385.645 109.584 386.076 109.317C387.599 108.376 386.533 104.763 384.394 103.618C382.968 102.855 382.596 102.23 383.306 101.791C383.9 101.424 384.141 100.727 383.841 100.243C383.048 98.9601 384.334 95.5049 385.367 96.1431C387.118 97.2255 387.237 93.8048 385.826 82.8732C385.035 76.7404 384.371 70.4573 384.35 68.9103C384.235 60.2213 385.578 44.0114 386.686 40.7164C387.392 38.6154 388.184 34.5785 388.446 31.7435C390.109 13.7326 394.994 6.65561 403.493 9.9406C406.702 11.1816 404.087 8.3644 400.726 6.96011C397.024 5.41322 391.855 6.73921 391.854 9.2359C391.854 10.0878 390.637 13.3569 389.15 16.5006C387.662 19.6442 386.139 24.4957 385.764 27.2815C385.389 30.0675 384.746 32.7689 384.334 33.2845C383.922 33.8001 383.101 41.4023 382.508 50.1784C381.46 65.7063 381.548 68.0063 383.997 89.3002C384.413 92.9142 384.284 94.6907 383.606 94.6907C379.989 94.6907 378.967 38.781 382.432 30.4721C382.862 29.4409 384.07 25.644 385.116 22.0346C387.852 12.5937 389.542 8.3527 390.902 7.51171C394.899 5.04172 375.27 3.28723 369.823 5.62772C368.588 6.15841 370.927 6.45591 376.675 6.49931C387.549 6.58141 387.218 8.04801 376.158 8.7935C369.01 9.2753 180.149 10.8917 150.919 10.7207C86.0398 10.3427 46.17 8.43809 60.21 6.3876C62.0199 6.1233 62.0899 5.9854 60.6899 5.41691C55.9228 3.48352 45.125 30.2928 44.935 44.5337C44.9006 47.1118 44.4925 50.9087 44.0281 52.9711C42.9656 57.6895 43.5874 83.476 44.9889 92.8149L45.0195 92.8209ZM58.9695 12.6963C60.1146 12.3329 63.2419 12.3427 65.919 12.7183C68.596 13.0939 84.7079 13.4874 101.724 13.5928C178.986 14.0716 204.273 14.4391 195.473 14.9553C167.528 16.5941 52.6741 14.6934 58.9741 12.6963L58.9695 12.6963ZM59.302 18.8248C62.5701 19.0086 64.1777 20.5031 61.177 20.568C59.5012 20.6042 58.1301 20.212 58.1301 19.6964C58.1301 19.1808 58.6575 18.7886 59.302 18.8248ZM67.9739 19.8792C69.5208 19.8983 70.0401 20.1084 69.1279 20.3461C68.2157 20.5838 66.9501 20.5682 66.3154 20.3114C65.6807 20.0546 66.427 19.8601 67.9739 19.8792ZM105.884 94.6968C107.193 96.9484 108.178 106.885 107.092 106.885C105.625 106.885 105.006 104.394 105.038 98.605C105.056 95.1206 105.348 93.7747 105.884 94.6968ZM112.112 106.65C112.502 106.263 113.679 105.947 114.728 105.947C116.108 105.947 116.351 106.23 115.609 106.972C115.045 107.536 113.868 107.852 112.993 107.675C112.119 107.498 111.722 107.036 112.112 106.65ZM116.962 89.0718C117.486 89.0718 118.212 91.4566 118.576 94.3713C118.941 97.286 119.645 100.562 120.141 101.652C121.311 104.22 119.989 108.033 118.292 106.984C116.762 106.038 115.502 89.0718 116.962 89.0718ZM128.13 20.3222C129.11 19.343 148.433 19.6191 150.005 20.6347C150.954 21.2478 147.522 21.5482 139.458 21.5578C132.884 21.5657 127.505 21.4316 127.505 21.2597C127.505 21.0878 127.787 20.6659 128.13 20.3222ZM129.851 95.5308C132.125 102.823 132.533 106.885 130.992 106.885C129.452 106.885 128.434 102.259 128.516 95.6348L128.568 91.416L129.851 95.5308ZM153.761 100.54C155.566 100.54 156.304 100.733 155.402 100.969C154.5 101.204 153.023 101.204 152.121 100.969C151.218 100.733 151.957 100.54 153.761 100.54ZM197.361 20.4562C199.173 20.2447 201.177 20.403 201.814 20.808C202.471 21.2251 201.042 21.5506 198.52 21.5587C193.284 21.5756 192.682 21.0025 197.361 20.4562ZM222.191 14.2902C223.996 14.2902 224.734 14.4832 223.832 14.719C222.929 14.9548 221.453 14.9548 220.55 14.719C219.648 14.4832 220.386 14.2902 222.191 14.2902ZM248.451 93.7598C249.552 97.1976 249.552 101.471 248.451 100.791C247.935 100.472 247.555 98.2326 247.607 95.8138C247.683 92.2131 247.836 91.8408 248.451 93.7598ZM256.42 14.2552C257.966 14.2743 258.486 14.4845 257.574 14.7221C256.661 14.9598 255.396 14.9442 254.761 14.6874C254.126 14.4306 254.873 14.2361 256.42 14.2552ZM262.146 91.0318C263.021 91.7577 265.326 100.645 265.326 103.291C265.326 104.922 263.638 103.981 262.942 101.963C261.579 98.0077 261.002 90.0818 262.146 91.0318ZM288.756 90.0098C289.256 90.7833 289.621 92.8926 289.568 94.6973L289.472 97.9785L288.756 95.166C287.637 90.7698 287.637 88.2788 288.756 90.0098ZM303.707 97.5098C304.234 98.2832 304.671 100.146 304.679 101.65C304.698 105.253 304.156 104.504 303.377 99.8535C302.927 97.1666 303.021 96.5023 303.707 97.5098ZM310.432 102.863C315.459 102.189 316.123 101.405 314.997 97.4782C314.486 95.6977 314.132 92.5507 314.209 90.4848C314.329 87.2864 314.411 87.1462 314.761 89.5411C314.987 91.088 315.503 92.7755 315.908 93.2911C316.541 94.0967 318.037 102.012 317.875 103.697C317.802 104.456 306.567 104.718 306.568 103.961C306.569 103.642 308.307 103.148 310.432 102.863ZM309.85 13.3179C311.397 13.3371 311.916 13.5472 311.004 13.7849C310.092 14.0225 308.826 14.0069 308.191 13.7501C307.557 13.4933 308.303 13.2988 309.85 13.3179ZM322.18 102.823C323.161 101.842 327.18 102.093 327.18 103.136C327.18 103.652 325.914 104.073 324.367 104.073C321.455 104.073 321.121 103.883 322.18 102.823ZM329.992 99.8547C330.508 99.536 330.93 100.144 330.93 101.206C330.93 102.267 330.508 103.136 329.992 103.136C329.477 103.136 329.055 102.528 329.055 101.785C329.055 101.042 329.477 100.173 329.992 99.8547ZM337.492 13.4171C340.328 13.4171 341.488 13.5929 340.07 13.8077C338.652 14.0225 336.332 14.0225 334.914 13.8077C333.496 13.5929 334.656 13.4171 337.492 13.4171ZM350.148 13.4267C353.242 13.432 354.394 13.607 352.709 13.8157C351.024 14.0243 348.493 14.02 347.084 13.8061C345.676 13.5922 347.054 13.4215 350.148 13.4267ZM347.899 102.507L350.806 101.926L350.229 95.7339L349.652 89.5419L352.042 95.1669C355.331 102.908 354.982 104.178 349.445 104.607C344.46 104.994 343.306 103.426 347.899 102.507ZM359.762 12.8067C365.38 11.8788 376.871 12.1038 376.871 13.1427C376.871 13.7109 372.808 14.0802 366.559 14.0802C355.682 14.0802 353.984 13.7619 359.762 12.8067ZM48.8236 870.522C50.5236 871.573 62.0225 869.985 61.6185 868.755C61.1905 867.451 55.216 866.828 50.8996 867.638C47.7851 868.222 46.9592 869.37 48.8236 870.522ZM59.8536 111.496C60.0583 110.907 60.6612 110.96 61.4786 111.638C62.5127 112.496 62.9681 112.217 63.708 110.271C64.3713 108.527 65.3164 107.826 67.0048 107.826C69.6423 107.826 70.1799 106.461 67.8888 105.582C64.3637 104.229 60.8996 104.982 60.0214 107.292C59.3359 109.095 58.2145 109.721 54.654 110.287L50.1532 111.002L54.8406 111.718C57.7733 112.165 59.65 112.082 59.8536 111.496ZM60.7776 125.477C66.4656 126.287 66.7324 123.553 61.0819 122.361C58.3592 121.787 57.9916 121.928 58.279 123.434C58.4633 124.401 59.5693 125.305 60.7776 125.477ZM64.2155 103.69C68.3577 102.729 70.75 98.4503 67.1452 98.4503C62.3733 98.4503 59.9968 99.6788 59.9968 102.146C59.9968 104.656 60.0179 104.664 64.2155 103.69ZM63.2514 142.044C63.512 148.287 64.9382 166.478 66.1178 178.606C66.4187 181.7 66.7957 185.707 66.9555 187.512C67.1154 189.317 67.7049 193.324 68.2654 196.418C68.826 199.512 69.5427 205.629 69.8581 210.012C70.1735 214.395 71.025 224.098 71.7503 231.574C74.0884 255.676 75.9351 278.664 76.3634 288.998C76.8048 299.649 78.2006 317.363 79.7058 331.416C80.2028 336.057 81.0342 350.611 81.5534 363.76C82.0725 376.908 82.7058 391.252 82.9606 395.635C83.7486 409.187 84.8512 495.745 84.6384 527.354C84.3003 577.581 81.8994 622.394 76.7777 674.074C75.7301 684.643 74.4841 697.721 74.0087 703.135C73.0015 714.606 69.9787 738.373 67.987 750.479C67.2235 755.12 66.4844 759.76 66.3446 760.791C66.0615 762.879 87.1185 763.21 124.918 761.712C139.728 761.152 141.558 761.242 141.558 762.562C141.558 763.81 139.829 764.089 130.542 764.339L119.526 764.636L132.316 764.838C145.255 765.041 147.687 764.382 145.723 761.205C144.751 759.631 147.841 760.332 150.257 762.232C151.594 763.284 152.789 763.685 152.97 763.142C153.18 762.514 155.68 762.393 160.055 762.8C163.774 763.146 166.592 763.791 166.319 764.234C166.045 764.677 169.854 765.039 174.782 765.039C182.934 765.039 183.744 764.88 183.744 763.273C183.744 761.105 185.632 760.644 191.713 761.328C197.246 761.95 195.491 763.159 189.453 762.884C186.613 762.754 185.18 763.106 184.875 764.009C184.528 765.035 185.102 765.189 187.486 764.713C189.166 764.377 192.176 764.102 194.174 764.102C196.778 764.102 197.806 763.703 197.806 762.695C197.806 760.691 212.854 760.331 213.587 762.317C214.065 763.612 233.78 763.378 235.096 762.061C236.069 761.088 254.727 760.362 277.082 760.426C279.692 760.433 282.856 760.049 284.113 759.57C285.765 758.943 286.735 759.061 287.608 759.995C288.956 761.438 292.047 761.564 297.649 760.405L301.399 759.63L297.884 759.522C295.95 759.463 294.368 759.059 294.368 758.625C294.368 756.514 397.898 755.669 398.748 757.774C399.105 758.655 399.469 758.597 400.216 757.539C401.534 755.674 400.49 749.883 398.563 748.362C397.239 747.316 397.217 747.038 398.402 746.305C400.155 745.222 400.266 694.671 398.554 677.506C397.878 670.733 397.511 652.94 397.615 632.037C397.71 613.149 397.788 595.164 397.788 592.07C397.788 588.976 397.405 572.734 396.937 555.976C395.946 520.541 395.952 524.432 396.711 418.637C397.119 361.7 397.615 336.262 398.351 334.383C399.101 332.47 399.134 330.161 398.464 326.414C397.378 320.333 397.727 297.592 399.77 241.451C400.558 219.795 401.197 195.115 401.189 186.608C401.181 178.1 401.541 169.874 401.99 168.327C403.161 164.285 402.669 129.511 401.396 126.374L400.35 123.796L387.436 123.707C380.333 123.657 370.514 123.449 365.616 123.244C353.912 122.752 319.597 122.785 294.366 123.311C270.893 123.801 223.748 124.463 155.147 125.268C128.335 125.582 103.866 126.006 100.772 126.209C97.6787 126.412 89.2315 126.606 82.0005 126.641C69.4786 126.701 64.9776 127.398 67.4066 128.9C68.9723 129.867 67.6857 131.296 65.2486 131.296C62.5698 131.296 61.6433 132.192 62.3902 134.059C62.7103 134.86 63.0954 138.468 63.2461 142.077L63.2514 142.044ZM74.1063 135.125L79.2157 135.238L75.1865 136.206C72.2507 136.911 70.8642 136.88 70.0771 136.093C69.2619 135.278 70.2502 135.04 74.1063 135.125ZM73.1219 148.393C75.4422 148.393 76.3914 148.576 75.2313 148.8C74.0711 149.023 72.1727 149.023 71.0125 148.8C69.8523 148.576 70.8016 148.393 73.1219 148.393ZM73.7215 758.11C79.506 757.317 85.3464 757.46 87.6534 758.451C88.8634 758.971 85.9539 759.28 79.4504 759.323C68.5444 759.394 66.897 759.045 73.7215 758.11ZM73.1219 129.613C74.9266 129.613 75.6649 129.806 74.7625 130.042C73.8602 130.278 72.3836 130.278 71.4813 130.042C70.579 129.806 71.3173 129.613 73.1219 129.613ZM84.3719 128.458C85.9188 128.458 87.1843 128.88 87.1843 129.396C87.1843 129.912 85.9188 130.333 84.3719 130.333C82.825 130.333 81.5594 129.912 81.5594 129.396C81.5594 128.88 82.825 128.458 84.3719 128.458ZM101.716 758.785C106.356 758.782 108.373 758.941 106.197 759.137C104.021 759.334 100.224 759.336 97.7597 759.143C95.2949 758.949 97.0751 758.788 101.716 758.785ZM119.296 128.188C134.193 127.851 144.257 127.978 144.796 128.511C145.351 129.061 136.096 129.392 120.187 129.392C87.9458 129.392 87.5865 128.907 119.296 128.188ZM105.702 752.665C112.771 752.404 122.175 753.232 118.124 753.759C112.918 754.437 97.4988 754.458 97.4988 753.788C97.4988 753.337 101.19 752.832 105.702 752.665ZM108.28 140.828C109.827 140.847 110.346 141.058 109.434 141.295C108.522 141.533 107.256 141.517 106.621 141.26C105.987 141.004 106.733 140.809 108.28 140.828ZM118.592 161.613C123.748 161.616 125.738 161.773 123.013 161.963C120.289 162.153 116.07 162.151 113.639 161.958C111.207 161.766 113.436 161.611 118.592 161.613ZM118.123 133.363C119.928 133.363 120.666 133.556 119.764 133.792C118.861 134.028 117.385 134.028 116.482 133.792C115.58 133.556 116.318 133.363 118.123 133.363ZM126.092 154.013C133.525 153.995 136.121 154.222 133.742 154.682C131.763 155.065 126.7 155.077 122.492 154.709C114.949 154.049 114.999 154.04 126.092 154.013ZM134.062 133.083C172.377 132.435 190.359 132.456 190.787 133.148C191.365 134.081 127.097 134.83 123.75 133.929C122.461 133.581 127.101 133.201 134.062 133.083ZM129.792 757.51C131.627 757.51 133.128 757.932 133.128 758.447C133.128 758.963 131.888 759.385 130.371 759.385C128.855 759.385 127.353 758.963 127.035 758.447C126.69 757.89 127.806 757.51 129.792 757.51ZM151.872 141.023C160.379 141.023 163.86 141.165 159.606 141.339C155.352 141.513 148.391 141.513 144.137 141.339C139.883 141.165 143.364 141.023 151.872 141.023ZM146.715 153.949C148.262 153.968 148.782 154.178 147.869 154.416C146.957 154.654 145.692 154.638 145.057 154.381C144.422 154.125 145.169 153.93 146.715 153.949ZM148.755 146.889C149.637 146.008 154.487 146.11 155.05 147.022C155.308 147.438 153.856 147.877 151.825 147.997C148.105 148.217 147.608 148.037 148.755 146.889ZM162.896 127.652C171.609 127.784 171.774 127.823 166.412 128.488C158.096 129.52 153.756 129.508 153.756 128.452C153.756 127.882 157.336 127.569 162.896 127.652ZM318.286 748.529C328.082 748.53 331.962 748.669 326.909 748.838C321.855 749.007 313.839 749.006 309.097 748.836C304.354 748.666 308.489 748.528 318.286 748.529ZM327.372 752.519C338.875 752.205 353.137 752.262 359.066 752.647C368.609 753.267 366.311 753.437 339.06 754.127C319.4 754.624 307.944 754.578 307.365 753.999C306.781 753.415 313.9 752.888 327.372 752.519ZM312.661 125.883C314.723 125.893 315.457 126.085 314.29 126.309C313.124 126.534 311.437 126.525 310.54 126.291C309.644 126.056 310.598 125.872 312.661 125.883ZM316.214 742.219C319.973 741.902 324.298 742.014 325.824 742.47C327.882 743.085 326.118 743.319 318.989 743.379C307.706 743.474 306.641 743.029 316.214 742.219ZM322.504 125.943C325.856 125.943 327.227 126.113 325.551 126.321C323.875 126.529 321.133 126.529 319.457 126.321C317.782 126.113 319.153 125.943 322.504 125.943ZM337.973 125.826C339.52 125.845 340.039 126.055 339.127 126.292C338.215 126.53 336.949 126.514 336.315 126.258C335.68 126.001 336.426 125.806 337.973 125.826ZM343.129 723.122C346.481 723.122 347.852 723.292 346.176 723.5C344.5 723.708 341.758 723.708 340.083 723.5C338.407 723.292 339.778 723.122 343.129 723.122ZM345.473 736.255C349.083 736.259 350.444 736.429 348.499 736.632C346.554 736.835 343.601 736.831 341.937 736.625C340.272 736.418 341.864 736.251 345.473 736.255ZM342.895 748.105C350.817 747.767 389.34 748.096 389.749 748.505C390.061 748.817 379.489 749.073 366.254 749.073C348.165 749.073 333.981 748.485 342.895 748.105ZM359.536 742.747C361.598 742.757 362.332 742.949 361.166 743.173C359.999 743.397 358.312 743.389 357.416 743.154C356.519 742.92 357.474 742.736 359.536 742.747ZM366.565 736.177C368.37 736.177 369.108 736.37 368.206 736.605C367.303 736.841 365.827 736.841 364.924 736.605C364.022 736.365 364.76 736.175 366.565 736.175L366.565 736.177ZM381.331 752.614C386.358 752.369 390.872 752.53 391.362 752.97C391.861 753.42 387.843 753.772 382.221 753.772C369.702 753.772 369.264 753.2 381.331 752.614ZM378.753 125.727C380.042 125.699 381.729 126.084 382.503 126.584C384.348 127.777 381.059 127.777 378.284 126.584C376.567 125.846 376.606 125.774 378.753 125.727ZM393.284 126.821C395.346 126.831 396.08 127.023 394.914 127.247C393.747 127.471 392.06 127.463 391.164 127.228C390.267 126.994 391.221 126.81 393.284 126.821ZM65.8656 870.067C66.2456 870.037 68.4656 870.017 70.7856 870.017C74.8749 870.017 76.5927 868.296 74.0641 866.734C72.271 865.625 64.5777 867.334 64.8793 868.773C65.034 869.512 65.477 870.093 65.8637 870.066L65.8656 870.067ZM84.7255 766.427C97.7254 765.529 98.4684 764.057 85.71 764.477C73.2001 764.889 73.819 764.801 74.592 766.053C75.0314 766.763 78.1758 766.88 84.7255 766.427ZM83.6642 883.806C84.8304 883.582 84.097 883.39 82.0345 883.38C79.972 883.369 79.0179 883.553 79.9142 883.788C80.8105 884.022 82.498 884.031 83.6642 883.806ZM90.2242 6.31127C91.3904 6.08703 90.657 5.89504 88.5945 5.88463C86.532 5.87423 85.5779 6.0577 86.4742 6.29235C87.3705 6.527 89.058 6.53551 90.2242 6.31127ZM107.114 765.937C111.964 765.947 115.314 765.567 115.314 765.017C115.314 764.452 111.495 764.085 105.705 764.094C99.1541 764.104 96.5429 764.398 97.5016 765.017C98.2751 765.517 102.599 765.932 107.111 765.94L107.114 765.937ZM123.234 6.54127C124.432 6.05625 121.617 5.78884 115.784 5.83346L106.409 5.90516L113.859 6.61298C117.957 7.00227 122.175 6.97001 123.234 6.54127ZM138.946 7.26909C145.019 7.30806 147.727 7.05282 146.252 6.58041C143.1 5.57082 128.202 5.43812 128.812 6.42504C129.078 6.85521 133.639 7.23503 138.946 7.26909ZM165.265 7.26546C167.441 7.06884 165.424 6.91031 160.783 6.91317C156.143 6.91603 154.363 7.07689 156.827 7.27065C159.292 7.46441 163.089 7.46207 165.265 7.26546ZM163.361 764.741C164.522 764.518 163.572 764.335 161.252 764.335C158.932 764.335 157.983 764.518 159.143 764.741C160.303 764.965 162.201 764.965 163.361 764.741ZM160.977 863.454C162.688 867.3 163.391 869.454 163.496 871.176C163.551 872.072 164.018 872.705 164.533 872.582C165.049 872.46 165.349 871.411 165.201 870.251C164.96 868.369 165.337 868.141 168.687 868.141C171.641 868.141 172.328 867.841 171.903 866.735C171.573 865.874 170.152 865.329 168.238 865.329C166.519 865.329 164.852 864.907 164.533 864.391C164.215 863.876 164.771 863.454 165.769 863.454C167.926 863.454 170.103 861.131 169.246 859.745C168.105 857.899 158.853 858.666 159.681 860.538C159.82 860.853 160.403 862.165 160.977 863.454ZM164.75 121.608C165.662 121.37 165.143 121.16 163.596 121.141C162.049 121.122 161.303 121.316 161.937 121.573C162.572 121.83 163.838 121.845 164.75 121.608ZM172.736 121.83C175.218 121.776 175.435 121.626 173.908 121.022C172.877 120.614 171.506 120.478 170.861 120.719C168.85 121.473 169.568 121.898 172.736 121.83ZM183.512 108.385C184.536 107.361 182.908 106.658 181.214 107.394C179.608 108.091 179.609 108.141 181.247 108.53C182.189 108.754 183.209 108.688 183.512 108.385ZM188.192 885.691C189.617 885.475 188.673 885.293 186.095 885.286C183.517 885.278 182.351 885.455 183.504 885.678C184.657 885.9 186.767 885.906 188.192 885.691ZM198.742 8.46537C203.321 8.46538 207.329 8.0435 207.648 7.52788C208.02 6.92647 204.827 6.59039 198.742 6.59039C192.657 6.59038 189.464 6.92647 189.836 7.52788C190.154 8.0435 194.162 8.46537 198.742 8.46537ZM208.585 108.309C210.046 108.309 211.417 107.781 211.632 107.137C211.897 106.341 210.919 105.965 208.585 105.965C206.252 105.965 205.273 106.341 205.539 107.137C205.753 107.781 207.124 108.309 208.585 108.309ZM227.313 107.136C230.53 106.521 230.292 105.965 226.812 105.965C225.234 105.965 224.17 106.33 224.446 106.777C224.721 107.223 226.012 107.385 227.313 107.136ZM246.553 7.59288L255.463 6.85619L245.663 6.72259C239.623 6.64022 236.208 6.92276 236.757 7.45933C237.287 7.97733 241.257 8.03143 246.557 7.59293L246.553 7.59288ZM248.493 111.152C250.126 112.161 250.472 111.012 248.922 109.726C248.031 108.987 247.493 108.916 247.493 109.537C247.493 110.086 247.943 110.812 248.493 111.152ZM250.991 884.728C251.903 884.49 251.384 884.28 249.837 884.261C248.29 884.242 247.544 884.437 248.179 884.693C248.813 884.95 250.079 884.966 250.991 884.728ZM266.001 7.51288C267.877 7.50243 268.219 7.27084 267.258 6.66213C266.531 6.20211 265.371 6.04276 264.68 6.30804C262.697 7.06878 263.201 7.52838 266.001 7.51288ZM271.861 878.928C272.595 878.475 272.649 877.935 272.024 877.31C271.509 876.795 270.591 876.679 269.986 877.053C269.252 877.507 269.198 878.046 269.823 878.671C270.338 879.187 271.255 879.302 271.861 878.928ZM280.403 7.67288L286.392 6.81632L277.955 6.77462C271.533 6.74288 270.102 6.94753 271.965 7.63118C273.494 8.19221 276.662 8.20787 280.403 7.67288ZM280.773 120.962C282.001 120.962 283.267 120.54 283.585 120.025C283.931 119.466 282.795 119.087 280.773 119.087C278.75 119.087 277.615 119.466 277.96 120.025C278.279 120.54 279.545 120.962 280.773 120.962ZM291.302 879.108C292.214 878.87 291.695 878.66 290.148 878.641C288.601 878.622 287.854 878.817 288.489 879.073C289.124 879.33 290.39 879.346 291.302 879.108ZM302.802 880.328C304.864 880.328 306.552 879.909 306.552 879.397C306.552 878.885 304.864 878.533 302.802 878.614C300.739 878.694 299.052 879.113 299.052 879.544C299.052 879.975 300.739 880.328 302.802 880.328ZM305.223 111.892C306.921 111.241 306.927 110.053 305.237 109.404C303.577 108.767 302.789 109.521 303.413 111.147C303.677 111.837 304.492 112.173 305.223 111.892ZM311.479 119.64C320.923 119.3 320.301 118.141 310.692 118.174C305.369 118.192 302.849 118.505 303.753 119.035C304.535 119.493 308.011 119.765 311.479 119.64ZM325.999 7.37089C334.639 7.39409 342.549 7.04519 343.579 6.59559C344.739 6.09029 338.739 5.7529 327.879 5.7122C318.079 5.6755 310.299 6.01849 310.299 6.48749C310.299 6.95017 317.365 7.3477 326.002 7.37089L325.999 7.37089ZM323.889 868.136C326.725 868.136 329.045 867.714 329.045 867.199C329.045 866.683 326.725 866.261 323.889 866.261C321.053 866.261 318.733 866.683 318.733 867.199C318.733 867.714 321.053 868.136 323.889 868.136ZM326.812 880.324C330.636 880.324 332.69 879.975 332.326 879.387C332.008 878.871 329.005 878.449 325.653 878.449C321.829 878.449 319.775 878.798 320.139 879.387C320.457 879.902 323.46 880.324 326.812 880.324ZM330.961 864.053C331.798 864.89 340.858 864.216 341.71 863.253C343.481 861.253 339.853 858.762 335.168 858.762C329.838 858.762 327.992 861.084 330.961 864.053ZM338.475 869.075C341.023 869.075 343.107 868.684 343.107 868.206C343.107 867.054 340.694 866.643 336.352 867.057C331.316 867.538 332.933 869.075 338.475 869.075ZM359.758 6.32939C362.207 6.13629 360.203 5.9783 355.305 5.9783C350.407 5.97829 348.403 6.1363 350.852 6.32942C353.301 6.52254 357.309 6.52251 359.758 6.32939ZM355.575 760.625C356.039 760.338 355.992 759.7 355.467 759.175C354.952 758.659 354.026 758.549 353.41 758.929C352.56 759.455 352.586 759.803 353.518 760.38C354.193 760.797 355.119 760.907 355.575 760.625ZM361.711 870.015C365.276 870.015 366.848 869.373 366.131 868.212C365.572 867.308 358.117 868.205 358.117 869.176C358.117 869.637 359.735 870.015 361.711 870.015ZM378.299 834.855C381.693 865.751 384.849 875.153 392.95 878.509C394.939 879.333 396.253 879.369 397.762 878.64C399.788 877.662 399.777 877.637 397.303 877.575C389.027 877.368 383.586 866.486 382.037 847.043C381.708 842.918 381.003 836.92 380.469 833.715C379.574 828.339 380.008 818.491 382.108 796.5C382.571 791.651 386.767 778.82 389.861 772.793C392.059 768.512 396.67 765.54 399.87 766.343C401.632 766.786 402.011 766.598 401.587 765.493C400.604 762.932 394.998 763.398 392.275 766.268C389.296 769.406 385.613 776.229 384.095 781.419C383.341 783.997 382.061 787.688 381.25 789.622C380.185 792.163 380.088 793.141 380.9 793.152C381.744 793.162 381.753 793.339 380.934 793.86C380.272 794.281 379.604 798.789 379.234 805.33C378.9 811.257 378.278 818.637 377.853 821.731C377.428 824.825 377.285 828.41 377.535 829.7C377.786 830.989 378.13 833.309 378.3 834.856L378.299 834.855ZM383.244 822.205C383.657 822.205 384.525 816.863 385.173 810.333C386.557 796.378 387.151 793.014 388.125 793.616C389.125 794.234 390.557 792.216 391.287 789.158C392.149 785.553 390.303 785.883 388.665 789.627L387.333 792.674L387.256 789.814C387.214 788.242 387.531 786.554 387.959 786.064C388.388 785.575 389.242 783.403 389.857 781.24C391.549 775.287 397.174 771.636 400.117 774.58C400.992 775.455 401.242 775.366 401.242 774.178C401.242 770.657 398.022 769.076 394.302 770.772C388.436 773.444 377.952 822.205 383.244 822.205ZM388.737 61.3791C389.428 60.4341 389.993 58.7391 389.993 57.6121C389.993 56.4847 390.61 55.0501 391.364 54.4241C392.541 53.4474 392.552 52.9986 391.437 51.2624C388.978 47.4314 393.548 25.5746 397.789 20.8796C401.829 16.4072 404.811 19.4531 410.26 33.6175C413.263 41.4246 414.505 40.9583 412.019 32.9565C406.423 14.9346 400.876 9.60667 395.826 17.4026C390.391 25.7908 383.5 68.5401 388.737 61.3791ZM387.818 84.161C388.459 89.8154 389.623 90.8043 389.473 85.5672C389.181 75.3472 387.813 63.8483 386.952 64.3803C386.058 64.9326 386.322 70.9698 387.818 84.161ZM389.993 866.527C391.024 867.838 391.868 869.343 391.868 869.871C391.868 871.15 395.2 872.155 397.266 871.499C400.362 870.519 406.745 855.019 404.054 855.019C403.539 855.019 403.117 855.871 403.117 856.913C403.117 860.821 395.837 869.907 393.743 868.613C393.163 868.255 391.694 865.788 390.479 863.131C388.383 858.547 388.267 858.45 388.194 861.221C388.152 862.827 388.961 865.214 389.992 866.525L389.993 866.527ZM390.368 840.812C390.97 852.845 392.254 859.979 394.081 861.448C395.45 862.548 399.372 861.103 399.355 859.505C399.318 856.07 398.104 853.951 396.426 854.389C394.492 854.895 393.708 848.002 395.628 847.362C396.263 847.15 396.243 844.269 395.566 838.612C395.01 833.973 394.412 826.019 394.235 820.935C393.953 812.815 392.886 808.69 391.442 810.134C391.191 810.385 390.784 814.308 390.538 818.85C390.293 823.393 389.87 827.331 389.599 827.602C389.328 827.873 389.26 828.352 389.448 828.667C389.636 828.982 390.05 834.447 390.368 840.812ZM391.866 104.546C392.382 104.865 392.804 104.257 392.804 103.195C392.804 102.133 392.382 101.265 391.866 101.265C391.351 101.265 390.929 101.873 390.929 102.616C390.929 103.359 391.351 104.227 391.866 104.546ZM392.749 784.702C393.235 784.702 393.892 784.28 394.211 783.765C395.445 781.768 397.992 782.89 398.999 785.874C399.565 787.55 400.346 789.659 400.735 790.562C401.23 791.709 401.021 792.202 400.038 792.202C399.265 792.202 398.361 791.117 398.028 789.792C396.661 784.347 393.136 790.986 392.201 800.766C391.318 810.003 394.434 808.57 395.534 799.233C396.484 791.166 399.836 791.988 399.836 800.288C399.836 804.477 400.226 806.7 401.008 806.964C401.667 807.185 402.18 806.595 402.18 805.614C402.18 804.654 402.835 802.933 403.637 801.789C404.973 799.882 404.901 798.924 402.77 790.274C399.738 777.961 397.607 774.7 394.085 776.982C392.296 778.141 391.161 784.702 392.749 784.702ZM396.491 115.146C400.473 119.416 404.965 121.046 407.333 119.08C409.547 117.243 409.027 116.738 404.867 116.684C400.931 116.633 399.606 115.602 394.487 108.607L392.888 106.422L392.846 108.807C392.819 110.326 394.144 112.628 396.491 115.146ZM394.679 58.6101C395.213 58.94 395.617 58.1327 395.617 56.7351C395.617 55.3376 395.213 54.5302 394.679 54.8601C394.164 55.1788 393.742 56.0225 393.742 56.7351C393.742 57.4477 394.164 58.2914 394.679 58.6101ZM395.248 70.328C395.451 70.328 395.617 69.4594 395.617 68.3978C395.617 67.3361 395.213 66.7168 394.72 67.0216C393.911 67.5218 394.359 70.328 395.248 70.328ZM396.079 86.487C397.702 93.0576 400.237 97.3099 401.912 96.2744C405.107 94.2998 406.165 77.0225 403.14 76.2305C401.874 75.8995 401.115 74.6666 400.742 72.3339C399.711 65.8856 399.329 64.7029 398.278 64.7029C397.55 64.7029 397.406 66.4421 397.813 70.3278C398.42 76.1429 397.162 78.1766 395.927 73.3747L395.265 70.7967L394.562 73.1407C393.738 75.8885 393.973 77.9601 396.08 86.4867L396.079 86.487ZM400.714 83.454C401.77 83.454 402.179 84.3917 402.179 86.8134C402.179 91.0492 399.966 90.7264 399.542 86.4287C399.325 84.2307 399.631 83.454 400.714 83.454ZM396.45 100.659C401.495 106.475 410.617 105.494 410.617 99.1349C410.617 98.1425 411.305 95.8807 412.146 94.1085C412.987 92.3364 413.437 90.6483 413.146 90.3573C412.322 89.534 410.617 90.9133 410.617 92.4025C410.617 93.1386 409.457 95.418 408.039 97.4678C404.192 103.029 401.315 102.416 396.965 95.1094C396.417 94.1897 395.508 93.7226 394.943 94.0713C393.659 94.8649 394.46 98.3644 396.45 100.659ZM395.713 49.1182C395.822 54.6259 396.544 53.0007 398.471 42.9073C399.532 37.3463 401.828 35.5014 402.845 39.3917C403.41 41.5524 404.992 41.9303 404.992 39.9046C404.992 37.667 402.898 33.7667 401.697 33.7667C398.985 33.7667 394.748 38.8755 395.186 41.6183C395.423 43.1007 395.66 46.4756 395.713 49.1182ZM398.023 30.7223C399.65 27.5973 400.918 26.2693 402.276 26.2693C404.818 26.2693 404.076 24.0193 401.404 23.6262C399.952 23.4124 399.118 23.9897 398.489 25.6445C398.004 26.9192 397.16 28.239 396.612 28.5773C396.065 28.9156 395.637 30.5386 395.661 32.184C395.704 35.1699 395.709 35.1671 398.023 30.7223ZM398.474 813.698C398.87 813.057 398.963 811.932 398.681 811.197C398.286 810.167 398.004 810.128 397.449 811.027C397.052 811.668 396.959 812.793 397.241 813.528C397.636 814.558 397.918 814.597 398.474 813.698ZM399.367 61.9021C399.882 61.9021 400.304 61.0832 400.304 60.0824C400.304 59.0816 399.882 58.002 399.367 57.6833C398.835 57.3547 398.429 58.1423 398.429 59.503C398.429 60.8225 398.851 61.9021 399.367 61.9021ZM410.415 830.998C416.75 830.937 422.206 830.614 422.54 830.279C423.933 828.886 420.736 827.705 412.036 826.4C398.697 824.397 398.563 824.414 398.746 828.062L398.898 831.109L410.415 830.998ZM400.328 55.3321C401.726 55.3321 403.263 50.7056 402.579 48.5515C401.932 46.5119 400.732 47.2776 400.035 50.1759C399.238 53.4905 399.342 55.3321 400.328 55.3321ZM400.263 851.738C401.38 854.479 402.63 849.398 401.705 845.878C400.991 843.164 399.499 844.908 399.499 848.456C399.499 849.23 399.842 850.707 400.263 851.738ZM402.046 111.512C405.989 113.622 413.43 109.092 413.43 104.582C413.43 102.451 412.705 102.784 409.159 106.543C406.44 109.426 405.522 109.858 403.128 109.379C399.998 108.753 399.335 110.057 402.046 111.508L402.046 111.512ZM413.697 71.264C430.08 71.25 433.271 70.596 432.932 67.3251L432.648 64.588L419.992 64.6845C413.031 64.7375 406.409 64.811 405.275 64.8477C402.984 64.9219 402.081 67.1242 403.314 69.6319C404.004 71.0355 405.504 71.2709 413.697 71.264ZM403.613 783.3C404.356 785.363 404.97 788.185 404.978 789.573C404.993 792.282 406.354 793.795 407.34 792.2C407.947 791.217 404.804 780.755 403.117 778.144C401.701 775.952 401.968 778.736 403.613 783.3ZM403.586 842.128C404.475 847.777 405.929 846.177 405.929 839.55C405.929 835.097 405.593 833.456 404.679 833.456C402.268 833.456 402.248 833.621 403.586 842.128ZM406.867 775.328C407.383 775.328 407.805 774.931 407.805 774.446C407.805 773.961 407.383 773.303 406.867 772.984C406.352 772.666 405.93 773.063 405.93 773.867C405.93 774.67 406.352 775.328 406.867 775.328ZM406.867 852.203C407.602 853.34 407.779 853.205 407.79 851.5C407.798 850.339 407.383 849.39 406.867 849.39C405.693 849.39 405.693 850.385 406.867 852.203ZM406.867 857.359C407.383 857.678 407.805 857.045 407.805 855.953C407.805 854.861 407.383 854.228 406.867 854.547C406.352 854.865 405.93 855.498 405.93 855.953C405.93 856.408 406.352 857.04 406.867 857.359ZM407.434 78.2232C408.301 80.4814 409.488 79.1288 408.978 76.4636C408.73 75.1682 408.154 74.3393 407.698 74.6216C406.723 75.2237 406.653 76.1872 407.434 78.2232ZM409.813 838.799C408.393 839.707 408.401 839.926 409.914 841.617C411.554 843.45 412.216 846.166 410.81 845.297C410.401 845.044 410.082 847.445 410.102 850.632C410.122 853.82 409.77 859.064 409.319 862.287C408.748 866.375 408.807 868.147 409.516 868.147C410.676 868.147 410.886 867.001 413.094 848.676C414.831 834.258 414.637 833.276 410.22 834.141C407.498 834.674 407.492 834.689 409.416 836.247C411.172 837.669 411.209 837.907 409.813 838.799ZM411.789 87.9232C412.458 87.703 413.086 85.5558 413.252 82.9232C413.411 80.3854 413.939 77.9082 414.424 77.4184C415.711 76.1168 415.5 73.8691 414.133 74.3231C413.197 74.634 411.861 79.8199 410.732 87.528C410.669 87.9577 411.145 88.1353 411.789 87.9232ZM416.798 46.2004C417.246 52.2903 417.738 54.4033 418.705 54.4033C420.028 54.4033 420.016 53.4535 418.526 39.2144C418.272 36.79 417.431 33.415 416.657 31.7145L415.25 28.6226L415.722 33.31C415.981 35.8881 416.466 41.6883 416.798 46.2004ZM416.702 93.1761C418.372 93.817 419.396 90.6206 418.8 86.626C418.457 84.3216 418.379 84.4402 418.258 87.4502C418.161 89.8878 417.687 90.9658 416.712 90.9658C414.896 90.9658 414.89 92.4806 416.702 93.1761ZM442.585 837.912C444.18 842.124 448.782 840.183 450.038 834.768C453.181 821.222 447.62 801.547 442.836 809.287C440.7 812.745 440.526 832.477 442.585 837.912ZM444.97 76.1162C447.612 79.0362 451.524 78.3872 452.219 74.9142C455.256 59.7303 447.998 38.4094 443.396 48.9954C441.847 52.5572 443.095 74.0442 444.97 76.1162Z" fill="white"/>
</g>
<defs>
<clipPath id="clip0_75_2">
<rect width="909.38" height="456.56" fill="white" transform="translate(456.56 1.99569e-05) rotate(90)"/>
</clipPath>
</defs>
</svg>
