<svg xmlns="http://www.w3.org/2000/svg" width="12" height="12" viewBox="0 0 12 12" fill="none"><polygon points="9.8891 -3.8891 11.5 0 9.8891 3.8891 6 5.5 2.1109 3.8891 0.5 0 2.1109 -3.8891 6 -5.5" fill="black"/><polygon points="3.8891 2.1109 5.5 6 3.8891 9.8891 0 11.5 -3.8891 9.8891 -5.5 6 -3.8891 2.1109 0 0.5" fill="black"/><polygon points="15.8891 2.1109 17.5 6 15.8891 9.8891 12 11.5 8.1109 9.8891 6.5 6 8.1109 2.1109 12 0.5" fill="black"/><polygon points="9.8891 8.1109 11.5 12 9.8891 15.8891 6 17.5 2.1109 15.8891 0.5 12 2.1109 8.1109 6 6.5" fill="black"/></svg>