<svg xmlns="http://www.w3.org/2000/svg" width="5" height="5" viewBox="0 0 5 5" fill="none"><polygon points="3.2071 -0.7071 3.5 0 3.2071 0.7071 2.5 1 1.7929 0.7071 1.5 0 1.7929 -0.7071 2.5 -1" fill="black"/><polygon points="0.7071 1.7929 1 2.5 0.7071 3.2071 0 3.5 -0.7071 3.2071 -1 2.5 -0.7071 1.7929 0 1.5" fill="black"/><polygon points="5.7071 1.7929 6 2.5 5.7071 3.2071 5 3.5 4.2929 3.2071 4 2.5 4.2929 1.7929 5 1.5" fill="black"/><polygon points="3.2071 4.2929 3.5 5 3.2071 5.7071 2.5 6 1.7929 5.7071 1.5 5 1.7929 4.2929 2.5 4" fill="black"/></svg>