<svg xmlns="http://www.w3.org/2000/svg" width="8" height="8" viewBox="0 0 8 8" fill="none"><polygon points="5.0607 -1.0607 5.5 0 5.0607 1.0607 4 1.5 2.9393 1.0607 2.5 0 2.9393 -1.0607 4 -1.5" fill="black"/><polygon points="1.0607 2.9393 1.5 4 1.0607 5.0607 0 5.5 -1.0607 5.0607 -1.5 4 -1.0607 2.9393 0 2.5" fill="black"/><polygon points="9.0607 2.9393 9.5 4 9.0607 5.0607 8 5.5 6.9393 5.0607 6.5 4 6.9393 2.9393 8 2.5" fill="black"/><polygon points="5.0607 6.9393 5.5 8 5.0607 9.0607 4 9.5 2.9393 9.0607 2.5 8 2.9393 6.9393 4 6.5" fill="black"/></svg>