<svg xmlns="http://www.w3.org/2000/svg" width="10" height="10" viewBox="0 0 10 10" fill="none"><polygon points="7.8284 -2.8284 9 0 7.8284 2.8284 5 4 2.1716 2.8284 1 0 2.1716 -2.8284 5 -4" fill="black"/><polygon points="2.8284 2.1716 4 5 2.8284 7.8284 0 9 -2.8284 7.8284 -4 5 -2.8284 2.1716 0 1" fill="black"/><polygon points="12.8284 2.1716 14 5 12.8284 7.8284 10 9 7.1716 7.8284 6 5 7.1716 2.1716 10 1" fill="black"/><polygon points="7.8284 7.1716 9 10 7.8284 12.8284 5 14 2.1716 12.8284 1 10 2.1716 7.1716 5 6" fill="black"/></svg>