<svg xmlns="http://www.w3.org/2000/svg" width="2" height="2" viewBox="0 0 2 2" fill="none"><polygon points="2.0607 -1.0607 2.5 0 2.0607 1.0607 1 1.5 -0.0607 1.0607 -0.5 0 -0.0607 -1.0607 1 -1.5" fill="black"/><polygon points="1.0607 -0.0607 1.5 1 1.0607 2.0607 0 2.5 -1.0607 2.0607 -1.5 1 -1.0607 -0.0607 0 -0.5" fill="black"/><polygon points="3.0607 -0.0607 3.5 1 3.0607 2.0607 2 2.5 0.9393 2.0607 0.5 1 0.9393 -0.0607 2 -0.5" fill="black"/><polygon points="2.0607 0.9393 2.5 2 2.0607 3.0607 1 3.5 -0.0607 3.0607 -0.5 2 -0.0607 0.9393 1 0.5" fill="black"/></svg>