<svg xmlns="http://www.w3.org/2000/svg" width="6" height="6" viewBox="0 0 6 6" fill="none"><polygon points="6.182 -3.182 7.5 0 6.182 3.182 3 4.5 -0.182 3.182 -1.5 0 -0.182 -3.182 3 -4.5" fill="black"/><polygon points="3.182 -0.182 4.5 3 3.182 6.182 0 7.5 -3.182 6.182 -4.5 3 -3.182 -0.182 0 -1.5" fill="black"/><polygon points="9.182 -0.182 10.5 3 9.182 6.182 6 7.5 2.818 6.182 1.5 3 2.818 -0.182 6 -1.5" fill="black"/><polygon points="6.182 2.818 7.5 6 6.182 9.182 3 10.5 -0.182 9.182 -1.5 6 -0.182 2.818 3 1.5" fill="black"/></svg>