<svg xmlns="http://www.w3.org/2000/svg" width="13" height="13" viewBox="0 0 13 13" fill="none"><polygon points="8.6213 -2.1213 9.5 0 8.6213 2.1213 6.5 3 4.3787 2.1213 3.5 0 4.3787 -2.1213 6.5 -3" fill="black"/><polygon points="2.1213 4.3787 3 6.5 2.1213 8.6213 0 9.5 -2.1213 8.6213 -3 6.5 -2.1213 4.3787 0 3.5" fill="black"/><polygon points="15.1213 4.3787 16 6.5 15.1213 8.6213 13 9.5 10.8787 8.6213 10 6.5 10.8787 4.3787 13 3.5" fill="black"/><polygon points="8.6213 10.8787 9.5 13 8.6213 15.1213 6.5 16 4.3787 15.1213 3.5 13 4.3787 10.8787 6.5 10" fill="black"/></svg>