<svg xmlns="http://www.w3.org/2000/svg" width="8" height="8" viewBox="0 0 8 8" fill="none"><polygon points="6.4749 -2.4749 7.5 0 6.4749 2.4749 4 3.5 1.5251 2.4749 0.5 0 1.5251 -2.4749 4 -3.5" fill="black"/><polygon points="2.4749 1.5251 3.5 4 2.4749 6.4749 0 7.5 -2.4749 6.4749 -3.5 4 -2.4749 1.5251 0 0.5" fill="black"/><polygon points="10.4749 1.5251 11.5 4 10.4749 6.4749 8 7.5 5.5251 6.4749 4.5 4 5.5251 1.5251 8 0.5" fill="black"/><polygon points="6.4749 5.5251 7.5 8 6.4749 10.4749 4 11.5 1.5251 10.4749 0.5 8 1.5251 5.5251 4 4.5" fill="black"/></svg>