<svg xmlns="http://www.w3.org/2000/svg" width="11" height="11" viewBox="0 0 11 11" fill="none"><polygon points="7.2678 -1.7678 8 0 7.2678 1.7678 5.5 2.5 3.7322 1.7678 3 0 3.7322 -1.7678 5.5 -2.5" fill="black"/><polygon points="1.7678 3.7322 2.5 5.5 1.7678 7.2678 0 8 -1.7678 7.2678 -2.5 5.5 -1.7678 3.7322 0 3" fill="black"/><polygon points="12.7678 3.7322 13.5 5.5 12.7678 7.2678 11 8 9.2322 7.2678 8.5 5.5 9.2322 3.7322 11 3" fill="black"/><polygon points="7.2678 9.2322 8 11 7.2678 12.7678 5.5 13.5 3.7322 12.7678 3 11 3.7322 9.2322 5.5 8.5" fill="black"/></svg>