<svg xmlns="http://www.w3.org/2000/svg" width="10" height="10" viewBox="0 0 10 10" fill="none"><polygon points="7.4749 -2.4749 8.5 0 7.4749 2.4749 5 3.5 2.5251 2.4749 1.5 0 2.5251 -2.4749 5 -3.5" fill="black"/><polygon points="2.4749 2.5251 3.5 5 2.4749 7.4749 0 8.5 -2.4749 7.4749 -3.5 5 -2.4749 2.5251 0 1.5" fill="black"/><polygon points="12.4749 2.5251 13.5 5 12.4749 7.4749 10 8.5 7.5251 7.4749 6.5 5 7.5251 2.5251 10 1.5" fill="black"/><polygon points="7.4749 7.5251 8.5 10 7.4749 12.4749 5 13.5 2.5251 12.4749 1.5 10 2.5251 7.5251 5 6.5" fill="black"/></svg>