<svg xmlns="http://www.w3.org/2000/svg" width="14" height="14" viewBox="0 0 14 14" fill="none"><polygon points="13.0104 -6.0104 15.5 0 13.0104 6.0104 7 8.5 0.9896 6.0104 -1.5 0 0.9896 -6.0104 7 -8.5" fill="black"/><polygon points="6.0104 0.9896 8.5 7 6.0104 13.0104 0 15.5 -6.0104 13.0104 -8.5 7 -6.0104 0.9896 0 -1.5" fill="black"/><polygon points="20.0104 0.9896 22.5 7 20.0104 13.0104 14 15.5 7.9896 13.0104 5.5 7 7.9896 0.9896 14 -1.5" fill="black"/><polygon points="13.0104 7.9896 15.5 14 13.0104 20.0104 7 22.5 0.9896 20.0104 -1.5 14 0.9896 7.9896 7 5.5" fill="black"/></svg>