<svg xmlns="http://www.w3.org/2000/svg" width="6" height="6" viewBox="0 0 6 6" fill="none"><polygon points="4.4142 -1.4142 5 0 4.4142 1.4142 3 2 1.5858 1.4142 1 0 1.5858 -1.4142 3 -2" fill="black"/><polygon points="1.4142 1.5858 2 3 1.4142 4.4142 0 5 -1.4142 4.4142 -2 3 -1.4142 1.5858 0 1" fill="black"/><polygon points="7.4142 1.5858 8 3 7.4142 4.4142 6 5 4.5858 4.4142 4 3 4.5858 1.5858 6 1" fill="black"/><polygon points="4.4142 4.5858 5 6 4.4142 7.4142 3 8 1.5858 7.4142 1 6 1.5858 4.5858 3 4" fill="black"/></svg>