<svg xmlns="http://www.w3.org/2000/svg" width="13" height="13" viewBox="0 0 13 13" fill="none"><polygon points="10.0355 -3.5355 11.5 0 10.0355 3.5355 6.5 5 2.9645 3.5355 1.5 0 2.9645 -3.5355 6.5 -5" fill="black"/><polygon points="3.5355 2.9645 5 6.5 3.5355 10.0355 0 11.5 -3.5355 10.0355 -5 6.5 -3.5355 2.9645 0 1.5" fill="black"/><polygon points="16.5355 2.9645 18 6.5 16.5355 10.0355 13 11.5 9.4645 10.0355 8 6.5 9.4645 2.9645 13 1.5" fill="black"/><polygon points="10.0355 9.4645 11.5 13 10.0355 16.5355 6.5 18 2.9645 16.5355 1.5 13 2.9645 9.4645 6.5 8" fill="black"/></svg>