<svg xmlns="http://www.w3.org/2000/svg" width="14" height="14" viewBox="0 0 14 14" fill="none"><polygon points="8.4142 -1.4142 9 0 8.4142 1.4142 7 2 5.5858 1.4142 5 0 5.5858 -1.4142 7 -2" fill="black"/><polygon points="1.4142 5.5858 2 7 1.4142 8.4142 0 9 -1.4142 8.4142 -2 7 -1.4142 5.5858 0 5" fill="black"/><polygon points="15.4142 5.5858 16 7 15.4142 8.4142 14 9 12.5858 8.4142 12 7 12.5858 5.5858 14 5" fill="black"/><polygon points="8.4142 12.5858 9 14 8.4142 15.4142 7 16 5.5858 15.4142 5 14 5.5858 12.5858 7 12" fill="black"/></svg>