<svg xmlns="http://www.w3.org/2000/svg" width="7" height="7" viewBox="0 0 7 7" fill="none"><polygon points="7.0355 -3.5355 8.5 0 7.0355 3.5355 3.5 5 -0.0355 3.5355 -1.5 0 -0.0355 -3.5355 3.5 -5" fill="black"/><polygon points="3.5355 -0.0355 5 3.5 3.5355 7.0355 0 8.5 -3.5355 7.0355 -5 3.5 -3.5355 -0.0355 0 -1.5" fill="black"/><polygon points="10.5355 -0.0355 12 3.5 10.5355 7.0355 7 8.5 3.4645 7.0355 2 3.5 3.4645 -0.0355 7 -1.5" fill="black"/><polygon points="7.0355 3.4645 8.5 7 7.0355 10.5355 3.5 12 -0.0355 10.5355 -1.5 7 -0.0355 3.4645 3.5 2" fill="black"/></svg>