<svg xmlns="http://www.w3.org/2000/svg" width="2" height="2" viewBox="0 0 2 2" fill="none"><polygon points="1.7071 -0.7071 2 0 1.7071 0.7071 1 1 0.2929 0.7071 0 0 0.2929 -0.7071 1 -1" fill="black"/><polygon points="0.7071 0.2929 1 1 0.7071 1.7071 0 2 -0.7071 1.7071 -1 1 -0.7071 0.2929 0 0" fill="black"/><polygon points="2.7071 0.2929 3 1 2.7071 1.7071 2 2 1.2929 1.7071 1 1 1.2929 0.2929 2 0" fill="black"/><polygon points="1.7071 1.2929 2 2 1.7071 2.7071 1 3 0.2929 2.7071 0 2 0.2929 1.2929 1 1" fill="black"/></svg>