<svg xmlns="http://www.w3.org/2000/svg" width="12" height="12" viewBox="0 0 12 12" fill="none"><polygon points="8.1213 -2.1213 9 0 8.1213 2.1213 6 3 3.8787 2.1213 3 0 3.8787 -2.1213 6 -3" fill="black"/><polygon points="2.1213 3.8787 3 6 2.1213 8.1213 0 9 -2.1213 8.1213 -3 6 -2.1213 3.8787 0 3" fill="black"/><polygon points="14.1213 3.8787 15 6 14.1213 8.1213 12 9 9.8787 8.1213 9 6 9.8787 3.8787 12 3" fill="black"/><polygon points="8.1213 9.8787 9 12 8.1213 14.1213 6 15 3.8787 14.1213 3 12 3.8787 9.8787 6 9" fill="black"/></svg>