<svg xmlns="http://www.w3.org/2000/svg" width="12" height="12" viewBox="0 0 12 12" fill="none"><polygon points="12.0104 -6.0104 14.5 0 12.0104 6.0104 6 8.5 -0.0104 6.0104 -2.5 0 -0.0104 -6.0104 6 -8.5" fill="black"/><polygon points="6.0104 -0.0104 8.5 6 6.0104 12.0104 0 14.5 -6.0104 12.0104 -8.5 6 -6.0104 -0.0104 0 -2.5" fill="black"/><polygon points="18.0104 -0.0104 20.5 6 18.0104 12.0104 12 14.5 5.9896 12.0104 3.5 6 5.9896 -0.0104 12 -2.5" fill="black"/><polygon points="12.0104 5.9896 14.5 12 12.0104 18.0104 6 20.5 -0.0104 18.0104 -2.5 12 -0.0104 5.9896 6 3.5" fill="black"/></svg>