<svg xmlns="http://www.w3.org/2000/svg" width="12" height="12" viewBox="0 0 12 12" fill="none"><polygon points="8.8284 -2.8284 10 0 8.8284 2.8284 6 4 3.1716 2.8284 2 0 3.1716 -2.8284 6 -4" fill="black"/><polygon points="2.8284 3.1716 4 6 2.8284 8.8284 0 10 -2.8284 8.8284 -4 6 -2.8284 3.1716 0 2" fill="black"/><polygon points="14.8284 3.1716 16 6 14.8284 8.8284 12 10 9.1716 8.8284 8 6 9.1716 3.1716 12 2" fill="black"/><polygon points="8.8284 9.1716 10 12 8.8284 14.8284 6 16 3.1716 14.8284 2 12 3.1716 9.1716 6 8" fill="black"/></svg>