<svg xmlns="http://www.w3.org/2000/svg" width="12" height="12" viewBox="0 0 12 12" fill="none"><polygon points="11.3033 -5.3033 13.5 0 11.3033 5.3033 6 7.5 0.6967 5.3033 -1.5 0 0.6967 -5.3033 6 -7.5" fill="black"/><polygon points="5.3033 0.6967 7.5 6 5.3033 11.3033 0 13.5 -5.3033 11.3033 -7.5 6 -5.3033 0.6967 0 -1.5" fill="black"/><polygon points="17.3033 0.6967 19.5 6 17.3033 11.3033 12 13.5 6.6967 11.3033 4.5 6 6.6967 0.6967 12 -1.5" fill="black"/><polygon points="11.3033 6.6967 13.5 12 11.3033 17.3033 6 19.5 0.6967 17.3033 -1.5 12 0.6967 6.6967 6 4.5" fill="black"/></svg>