<svg xmlns="http://www.w3.org/2000/svg" width="9" height="9" viewBox="0 0 9 9" fill="none"><polygon points="6.6213 -2.1213 7.5 0 6.6213 2.1213 4.5 3 2.3787 2.1213 1.5 0 2.3787 -2.1213 4.5 -3" fill="black"/><polygon points="2.1213 2.3787 3 4.5 2.1213 6.6213 0 7.5 -2.1213 6.6213 -3 4.5 -2.1213 2.3787 0 1.5" fill="black"/><polygon points="11.1213 2.3787 12 4.5 11.1213 6.6213 9 7.5 6.8787 6.6213 6 4.5 6.8787 2.3787 9 1.5" fill="black"/><polygon points="6.6213 6.8787 7.5 9 6.6213 11.1213 4.5 12 2.3787 11.1213 1.5 9 2.3787 6.8787 4.5 6" fill="black"/></svg>