<svg xmlns="http://www.w3.org/2000/svg" width="6" height="6" viewBox="0 0 6 6" fill="none"><polygon points="5.4749 -2.4749 6.5 0 5.4749 2.4749 3 3.5 0.5251 2.4749 -0.5 0 0.5251 -2.4749 3 -3.5" fill="black"/><polygon points="2.4749 0.5251 3.5 3 2.4749 5.4749 0 6.5 -2.4749 5.4749 -3.5 3 -2.4749 0.5251 0 -0.5" fill="black"/><polygon points="8.4749 0.5251 9.5 3 8.4749 5.4749 6 6.5 3.5251 5.4749 2.5 3 3.5251 0.5251 6 -0.5" fill="black"/><polygon points="5.4749 3.5251 6.5 6 5.4749 8.4749 3 9.5 0.5251 8.4749 -0.5 6 0.5251 3.5251 3 2.5" fill="black"/></svg>