<svg xmlns="http://www.w3.org/2000/svg" width="12" height="12" viewBox="0 0 12 12" fill="none"><polygon points="10.9497 -4.9497 13 0 10.9497 4.9497 6 7 1.0503 4.9497 -1 0 1.0503 -4.9497 6 -7" fill="black"/><polygon points="4.9497 1.0503 7 6 4.9497 10.9497 0 13 -4.9497 10.9497 -7 6 -4.9497 1.0503 0 -1" fill="black"/><polygon points="16.9497 1.0503 19 6 16.9497 10.9497 12 13 7.0503 10.9497 5 6 7.0503 1.0503 12 -1" fill="black"/><polygon points="10.9497 7.0503 13 12 10.9497 16.9497 6 19 1.0503 16.9497 -1 12 1.0503 7.0503 6 5" fill="black"/></svg>