<svg xmlns="http://www.w3.org/2000/svg" width="9" height="9" viewBox="0 0 9 9" fill="none"><polygon points="5.9142 -1.4142 6.5 0 5.9142 1.4142 4.5 2 3.0858 1.4142 2.5 0 3.0858 -1.4142 4.5 -2" fill="black"/><polygon points="1.4142 3.0858 2 4.5 1.4142 5.9142 0 6.5 -1.4142 5.9142 -2 4.5 -1.4142 3.0858 0 2.5" fill="black"/><polygon points="10.4142 3.0858 11 4.5 10.4142 5.9142 9 6.5 7.5858 5.9142 7 4.5 7.5858 3.0858 9 2.5" fill="black"/><polygon points="5.9142 7.5858 6.5 9 5.9142 10.4142 4.5 11 3.0858 10.4142 2.5 9 3.0858 7.5858 4.5 7" fill="black"/></svg>