<svg xmlns="http://www.w3.org/2000/svg" width="7" height="7" viewBox="0 0 7 7" fill="none"><polygon points="6.682 -3.182 8 0 6.682 3.182 3.5 4.5 0.318 3.182 -1 0 0.318 -3.182 3.5 -4.5" fill="black"/><polygon points="3.182 0.318 4.5 3.5 3.182 6.682 0 8 -3.182 6.682 -4.5 3.5 -3.182 0.318 0 -1" fill="black"/><polygon points="10.182 0.318 11.5 3.5 10.182 6.682 7 8 3.818 6.682 2.5 3.5 3.818 0.318 7 -1" fill="black"/><polygon points="6.682 3.818 8 7 6.682 10.182 3.5 11.5 0.318 10.182 -1 7 0.318 3.818 3.5 2.5" fill="black"/></svg>