<svg xmlns="http://www.w3.org/2000/svg" width="14" height="14" viewBox="0 0 14 14" fill="none"><polygon points="12.3033 -5.3033 14.5 0 12.3033 5.3033 7 7.5 1.6967 5.3033 -0.5 0 1.6967 -5.3033 7 -7.5" fill="black"/><polygon points="5.3033 1.6967 7.5 7 5.3033 12.3033 0 14.5 -5.3033 12.3033 -7.5 7 -5.3033 1.6967 0 -0.5" fill="black"/><polygon points="19.3033 1.6967 21.5 7 19.3033 12.3033 14 14.5 8.6967 12.3033 6.5 7 8.6967 1.6967 14 -0.5" fill="black"/><polygon points="12.3033 8.6967 14.5 14 12.3033 19.3033 7 21.5 1.6967 19.3033 -0.5 14 1.6967 8.6967 7 6.5" fill="black"/></svg>