<svg xmlns="http://www.w3.org/2000/svg" width="9" height="9" viewBox="0 0 9 9" fill="none"><polygon points="7.3284 -2.8284 8.5 0 7.3284 2.8284 4.5 4 1.6716 2.8284 0.5 0 1.6716 -2.8284 4.5 -4" fill="black"/><polygon points="2.8284 1.6716 4 4.5 2.8284 7.3284 0 8.5 -2.8284 7.3284 -4 4.5 -2.8284 1.6716 0 0.5" fill="black"/><polygon points="11.8284 1.6716 13 4.5 11.8284 7.3284 9 8.5 6.1716 7.3284 5 4.5 6.1716 1.6716 9 0.5" fill="black"/><polygon points="7.3284 6.1716 8.5 9 7.3284 11.8284 4.5 13 1.6716 11.8284 0.5 9 1.6716 6.1716 4.5 5" fill="black"/></svg>