<svg xmlns="http://www.w3.org/2000/svg" width="8" height="8" viewBox="0 0 8 8" fill="none"><polygon points="5.7678 -1.7678 6.5 0 5.7678 1.7678 4 2.5 2.2322 1.7678 1.5 0 2.2322 -1.7678 4 -2.5" fill="black"/><polygon points="1.7678 2.2322 2.5 4 1.7678 5.7678 0 6.5 -1.7678 5.7678 -2.5 4 -1.7678 2.2322 0 1.5" fill="black"/><polygon points="9.7678 2.2322 10.5 4 9.7678 5.7678 8 6.5 6.2322 5.7678 5.5 4 6.2322 2.2322 8 1.5" fill="black"/><polygon points="5.7678 6.2322 6.5 8 5.7678 9.7678 4 10.5 2.2322 9.7678 1.5 8 2.2322 6.2322 4 5.5" fill="black"/></svg>