<svg xmlns="http://www.w3.org/2000/svg" width="8" height="8" viewBox="0 0 8 8" fill="none"><polygon points="6.8284 -2.8284 8 0 6.8284 2.8284 4 4 1.1716 2.8284 0 0 1.1716 -2.8284 4 -4" fill="black"/><polygon points="2.8284 1.1716 4 4 2.8284 6.8284 0 8 -2.8284 6.8284 -4 4 -2.8284 1.1716 0 0" fill="black"/><polygon points="10.8284 1.1716 12 4 10.8284 6.8284 8 8 5.1716 6.8284 4 4 5.1716 1.1716 8 0" fill="black"/><polygon points="6.8284 5.1716 8 8 6.8284 10.8284 4 12 1.1716 10.8284 0 8 1.1716 5.1716 4 4" fill="black"/></svg>