<svg xmlns="http://www.w3.org/2000/svg" width="9" height="9" viewBox="0 0 9 9" fill="none"><polygon points="7.682 -3.182 9 0 7.682 3.182 4.5 4.5 1.318 3.182 0 0 1.318 -3.182 4.5 -4.5" fill="black"/><polygon points="3.182 1.318 4.5 4.5 3.182 7.682 0 9 -3.182 7.682 -4.5 4.5 -3.182 1.318 0 0" fill="black"/><polygon points="12.182 1.318 13.5 4.5 12.182 7.682 9 9 5.818 7.682 4.5 4.5 5.818 1.318 9 0" fill="black"/><polygon points="7.682 5.818 9 9 7.682 12.182 4.5 13.5 1.318 12.182 0 9 1.318 5.818 4.5 4.5" fill="black"/></svg>