<svg xmlns="http://www.w3.org/2000/svg" width="14" height="14" viewBox="0 0 14 14" fill="none"><polygon points="10.5355 -3.5355 12 0 10.5355 3.5355 7 5 3.4645 3.5355 2 0 3.4645 -3.5355 7 -5" fill="black"/><polygon points="3.5355 3.4645 5 7 3.5355 10.5355 0 12 -3.5355 10.5355 -5 7 -3.5355 3.4645 0 2" fill="black"/><polygon points="17.5355 3.4645 19 7 17.5355 10.5355 14 12 10.4645 10.5355 9 7 10.4645 3.4645 14 2" fill="black"/><polygon points="10.5355 10.4645 12 14 10.5355 17.5355 7 19 3.4645 17.5355 2 14 3.4645 10.4645 7 9" fill="black"/></svg>