<svg xmlns="http://www.w3.org/2000/svg" width="14" height="14" viewBox="0 0 14 14" fill="none"><polygon points="7.7071 -0.7071 8 0 7.7071 0.7071 7 1 6.2929 0.7071 6 0 6.2929 -0.7071 7 -1" fill="black"/><polygon points="0.7071 6.2929 1 7 0.7071 7.7071 0 8 -0.7071 7.7071 -1 7 -0.7071 6.2929 0 6" fill="black"/><polygon points="14.7071 6.2929 15 7 14.7071 7.7071 14 8 13.2929 7.7071 13 7 13.2929 6.2929 14 6" fill="black"/><polygon points="7.7071 13.2929 8 14 7.7071 14.7071 7 15 6.2929 14.7071 6 14 6.2929 13.2929 7 13" fill="black"/></svg>