<svg xmlns="http://www.w3.org/2000/svg" width="4" height="4" viewBox="0 0 4 4" fill="none"><polygon points="3.7678 -1.7678 4.5 0 3.7678 1.7678 2 2.5 0.2322 1.7678 -0.5 0 0.2322 -1.7678 2 -2.5" fill="black"/><polygon points="1.7678 0.2322 2.5 2 1.7678 3.7678 0 4.5 -1.7678 3.7678 -2.5 2 -1.7678 0.2322 0 -0.5" fill="black"/><polygon points="5.7678 0.2322 6.5 2 5.7678 3.7678 4 4.5 2.2322 3.7678 1.5 2 2.2322 0.2322 4 -0.5" fill="black"/><polygon points="3.7678 2.2322 4.5 4 3.7678 5.7678 2 6.5 0.2322 5.7678 -0.5 4 0.2322 2.2322 2 1.5" fill="black"/></svg>