<svg xmlns="http://www.w3.org/2000/svg" width="6" height="6" viewBox="0 0 6 6" fill="none"><polygon points="4.7678 -1.7678 5.5 0 4.7678 1.7678 3 2.5 1.2322 1.7678 0.5 0 1.2322 -1.7678 3 -2.5" fill="black"/><polygon points="1.7678 1.2322 2.5 3 1.7678 4.7678 0 5.5 -1.7678 4.7678 -2.5 3 -1.7678 1.2322 0 0.5" fill="black"/><polygon points="7.7678 1.2322 8.5 3 7.7678 4.7678 6 5.5 4.2322 4.7678 3.5 3 4.2322 1.2322 6 0.5" fill="black"/><polygon points="4.7678 4.2322 5.5 6 4.7678 7.7678 3 8.5 1.2322 7.7678 0.5 6 1.2322 4.2322 3 3.5" fill="black"/></svg>