<svg xmlns="http://www.w3.org/2000/svg" width="13" height="13" viewBox="0 0 13 13" fill="none"><polygon points="13.2175 -6.7175 16 0 13.2175 6.7175 6.5 9.5 -0.2175 6.7175 -3 0 -0.2175 -6.7175 6.5 -9.5" fill="black"/><polygon points="6.7175 -0.2175 9.5 6.5 6.7175 13.2175 0 16 -6.7175 13.2175 -9.5 6.5 -6.7175 -0.2175 0 -3" fill="black"/><polygon points="19.7175 -0.2175 22.5 6.5 19.7175 13.2175 13 16 6.2825 13.2175 3.5 6.5 6.2825 -0.2175 13 -3" fill="black"/><polygon points="13.2175 6.2825 16 13 13.2175 19.7175 6.5 22.5 -0.2175 19.7175 -3 13 -0.2175 6.2825 6.5 3.5" fill="black"/></svg>