<svg xmlns="http://www.w3.org/2000/svg" width="5" height="5" viewBox="0 0 5 5" fill="none"><polygon points="3.9142 -1.4142 4.5 0 3.9142 1.4142 2.5 2 1.0858 1.4142 0.5 0 1.0858 -1.4142 2.5 -2" fill="black"/><polygon points="1.4142 1.0858 2 2.5 1.4142 3.9142 0 4.5 -1.4142 3.9142 -2 2.5 -1.4142 1.0858 0 0.5" fill="black"/><polygon points="6.4142 1.0858 7 2.5 6.4142 3.9142 5 4.5 3.5858 3.9142 3 2.5 3.5858 1.0858 5 0.5" fill="black"/><polygon points="3.9142 3.5858 4.5 5 3.9142 6.4142 2.5 7 1.0858 6.4142 0.5 5 1.0858 3.5858 2.5 3" fill="black"/></svg>