<svg xmlns="http://www.w3.org/2000/svg" width="7" height="7" viewBox="0 0 7 7" fill="none"><polygon points="5.9749 -2.4749 7 0 5.9749 2.4749 3.5 3.5 1.0251 2.4749 0 0 1.0251 -2.4749 3.5 -3.5" fill="black"/><polygon points="2.4749 1.0251 3.5 3.5 2.4749 5.9749 0 7 -2.4749 5.9749 -3.5 3.5 -2.4749 1.0251 0 0" fill="black"/><polygon points="9.4749 1.0251 10.5 3.5 9.4749 5.9749 7 7 4.5251 5.9749 3.5 3.5 4.5251 1.0251 7 0" fill="black"/><polygon points="5.9749 4.5251 7 7 5.9749 9.4749 3.5 10.5 1.0251 9.4749 0 7 1.0251 4.5251 3.5 3.5" fill="black"/></svg>