<svg xmlns="http://www.w3.org/2000/svg" width="11" height="11" viewBox="0 0 11 11" fill="none"><polygon points="9.7426 -4.2426 11.5 0 9.7426 4.2426 5.5 6 1.2574 4.2426 -0.5 0 1.2574 -4.2426 5.5 -6" fill="black"/><polygon points="4.2426 1.2574 6 5.5 4.2426 9.7426 0 11.5 -4.2426 9.7426 -6 5.5 -4.2426 1.2574 0 -0.5" fill="black"/><polygon points="15.2426 1.2574 17 5.5 15.2426 9.7426 11 11.5 6.7574 9.7426 5 5.5 6.7574 1.2574 11 -0.5" fill="black"/><polygon points="9.7426 6.7574 11.5 11 9.7426 15.2426 5.5 17 1.2574 15.2426 -0.5 11 1.2574 6.7574 5.5 5" fill="black"/></svg>