<svg xmlns="http://www.w3.org/2000/svg" width="11" height="11" viewBox="0 0 11 11" fill="none"><polygon points="9.3891 -3.8891 11 0 9.3891 3.8891 5.5 5.5 1.6109 3.8891 0 0 1.6109 -3.8891 5.5 -5.5" fill="black"/><polygon points="3.8891 1.6109 5.5 5.5 3.8891 9.3891 0 11 -3.8891 9.3891 -5.5 5.5 -3.8891 1.6109 0 0" fill="black"/><polygon points="14.8891 1.6109 16.5 5.5 14.8891 9.3891 11 11 7.1109 9.3891 5.5 5.5 7.1109 1.6109 11 0" fill="black"/><polygon points="9.3891 7.1109 11 11 9.3891 14.8891 5.5 16.5 1.6109 14.8891 0 11 1.6109 7.1109 5.5 5.5" fill="black"/></svg>