<svg xmlns="http://www.w3.org/2000/svg" width="13" height="13" viewBox="0 0 13 13" fill="none"><polygon points="11.0962 -4.5962 13 0 11.0962 4.5962 6.5 6.5 1.9038 4.5962 0 0 1.9038 -4.5962 6.5 -6.5" fill="black"/><polygon points="4.5962 1.9038 6.5 6.5 4.5962 11.0962 0 13 -4.5962 11.0962 -6.5 6.5 -4.5962 1.9038 0 0" fill="black"/><polygon points="17.5962 1.9038 19.5 6.5 17.5962 11.0962 13 13 8.4038 11.0962 6.5 6.5 8.4038 1.9038 13 0" fill="black"/><polygon points="11.0962 8.4038 13 13 11.0962 17.5962 6.5 19.5 1.9038 17.5962 0 13 1.9038 8.4038 6.5 6.5" fill="black"/></svg>