<svg xmlns="http://www.w3.org/2000/svg" width="10" height="10" viewBox="0 0 10 10" fill="none"><polygon points="6.7678 -1.7678 7.5 0 6.7678 1.7678 5 2.5 3.2322 1.7678 2.5 0 3.2322 -1.7678 5 -2.5" fill="black"/><polygon points="1.7678 3.2322 2.5 5 1.7678 6.7678 0 7.5 -1.7678 6.7678 -2.5 5 -1.7678 3.2322 0 2.5" fill="black"/><polygon points="11.7678 3.2322 12.5 5 11.7678 6.7678 10 7.5 8.2322 6.7678 7.5 5 8.2322 3.2322 10 2.5" fill="black"/><polygon points="6.7678 8.2322 7.5 10 6.7678 11.7678 5 12.5 3.2322 11.7678 2.5 10 3.2322 8.2322 5 7.5" fill="black"/></svg>