<svg xmlns="http://www.w3.org/2000/svg" width="10" height="10" viewBox="0 0 10 10" fill="none"><polygon points="7.1213 -2.1213 8 0 7.1213 2.1213 5 3 2.8787 2.1213 2 0 2.8787 -2.1213 5 -3" fill="black"/><polygon points="2.1213 2.8787 3 5 2.1213 7.1213 0 8 -2.1213 7.1213 -3 5 -2.1213 2.8787 0 2" fill="black"/><polygon points="12.1213 2.8787 13 5 12.1213 7.1213 10 8 7.8787 7.1213 7 5 7.8787 2.8787 10 2" fill="black"/><polygon points="7.1213 7.8787 8 10 7.1213 12.1213 5 13 2.8787 12.1213 2 10 2.8787 7.8787 5 7" fill="black"/></svg>