<svg xmlns="http://www.w3.org/2000/svg" width="14" height="14" viewBox="0 0 14 14" fill="none"><polygon points="10.182 -3.182 11.5 0 10.182 3.182 7 4.5 3.818 3.182 2.5 0 3.818 -3.182 7 -4.5" fill="black"/><polygon points="3.182 3.818 4.5 7 3.182 10.182 0 11.5 -3.182 10.182 -4.5 7 -3.182 3.818 0 2.5" fill="black"/><polygon points="17.182 3.818 18.5 7 17.182 10.182 14 11.5 10.818 10.182 9.5 7 10.818 3.818 14 2.5" fill="black"/><polygon points="10.182 10.818 11.5 14 10.182 17.182 7 18.5 3.818 17.182 2.5 14 3.818 10.818 7 9.5" fill="black"/></svg>