<svg xmlns="http://www.w3.org/2000/svg" width="5" height="5" viewBox="0 0 5 5" fill="none"><polygon points="3.5607 -1.0607 4 0 3.5607 1.0607 2.5 1.5 1.4393 1.0607 1 0 1.4393 -1.0607 2.5 -1.5" fill="black"/><polygon points="1.0607 1.4393 1.5 2.5 1.0607 3.5607 0 4 -1.0607 3.5607 -1.5 2.5 -1.0607 1.4393 0 1" fill="black"/><polygon points="6.0607 1.4393 6.5 2.5 6.0607 3.5607 5 4 3.9393 3.5607 3.5 2.5 3.9393 1.4393 5 1" fill="black"/><polygon points="3.5607 3.9393 4 5 3.5607 6.0607 2.5 6.5 1.4393 6.0607 1 5 1.4393 3.9393 2.5 3.5" fill="black"/></svg>