<svg xmlns="http://www.w3.org/2000/svg" width="14" height="14" viewBox="0 0 14 14" fill="none"><polygon points="10.8891 -3.8891 12.5 0 10.8891 3.8891 7 5.5 3.1109 3.8891 1.5 0 3.1109 -3.8891 7 -5.5" fill="black"/><polygon points="3.8891 3.1109 5.5 7 3.8891 10.8891 0 12.5 -3.8891 10.8891 -5.5 7 -3.8891 3.1109 0 1.5" fill="black"/><polygon points="17.8891 3.1109 19.5 7 17.8891 10.8891 14 12.5 10.1109 10.8891 8.5 7 10.1109 3.1109 14 1.5" fill="black"/><polygon points="10.8891 10.1109 12.5 14 10.8891 17.8891 7 19.5 3.1109 17.8891 1.5 14 3.1109 10.1109 7 8.5" fill="black"/></svg>