<svg xmlns="http://www.w3.org/2000/svg" width="12" height="12" viewBox="0 0 12 12" fill="none"><polygon points="10.5962 -4.5962 12.5 0 10.5962 4.5962 6 6.5 1.4038 4.5962 -0.5 0 1.4038 -4.5962 6 -6.5" fill="black"/><polygon points="4.5962 1.4038 6.5 6 4.5962 10.5962 0 12.5 -4.5962 10.5962 -6.5 6 -4.5962 1.4038 0 -0.5" fill="black"/><polygon points="16.5962 1.4038 18.5 6 16.5962 10.5962 12 12.5 7.4038 10.5962 5.5 6 7.4038 1.4038 12 -0.5" fill="black"/><polygon points="10.5962 7.4038 12.5 12 10.5962 16.5962 6 18.5 1.4038 16.5962 -0.5 12 1.4038 7.4038 6 5.5" fill="black"/></svg>