<svg xmlns="http://www.w3.org/2000/svg" width="6" height="6" viewBox="0 0 6 6" fill="none"><polygon points="5.8284 -2.8284 7 0 5.8284 2.8284 3 4 0.1716 2.8284 -1 0 0.1716 -2.8284 3 -4" fill="black"/><polygon points="2.8284 0.1716 4 3 2.8284 5.8284 0 7 -2.8284 5.8284 -4 3 -2.8284 0.1716 0 -1" fill="black"/><polygon points="8.8284 0.1716 10 3 8.8284 5.8284 6 7 3.1716 5.8284 2 3 3.1716 0.1716 6 -1" fill="black"/><polygon points="5.8284 3.1716 7 6 5.8284 8.8284 3 10 0.1716 8.8284 -1 6 0.1716 3.1716 3 2" fill="black"/></svg>