<svg xmlns="http://www.w3.org/2000/svg" width="10" height="10" viewBox="0 0 10 10" fill="none"><polygon points="6.0607 -1.0607 6.5 0 6.0607 1.0607 5 1.5 3.9393 1.0607 3.5 0 3.9393 -1.0607 5 -1.5" fill="black"/><polygon points="1.0607 3.9393 1.5 5 1.0607 6.0607 0 6.5 -1.0607 6.0607 -1.5 5 -1.0607 3.9393 0 3.5" fill="black"/><polygon points="11.0607 3.9393 11.5 5 11.0607 6.0607 10 6.5 8.9393 6.0607 8.5 5 8.9393 3.9393 10 3.5" fill="black"/><polygon points="6.0607 8.9393 6.5 10 6.0607 11.0607 5 11.5 3.9393 11.0607 3.5 10 3.9393 8.9393 5 8.5" fill="black"/></svg>