<svg xmlns="http://www.w3.org/2000/svg" width="8" height="8" viewBox="0 0 8 8" fill="none"><polygon points="7.8891 -3.8891 9.5 0 7.8891 3.8891 4 5.5 0.1109 3.8891 -1.5 0 0.1109 -3.8891 4 -5.5" fill="black"/><polygon points="3.8891 0.1109 5.5 4 3.8891 7.8891 0 9.5 -3.8891 7.8891 -5.5 4 -3.8891 0.1109 0 -1.5" fill="black"/><polygon points="11.8891 0.1109 13.5 4 11.8891 7.8891 8 9.5 4.1109 7.8891 2.5 4 4.1109 0.1109 8 -1.5" fill="black"/><polygon points="7.8891 4.1109 9.5 8 7.8891 11.8891 4 13.5 0.1109 11.8891 -1.5 8 0.1109 4.1109 4 2.5" fill="black"/></svg>