<svg xmlns="http://www.w3.org/2000/svg" width="12" height="12" viewBox="0 0 12 12" fill="none"><polygon points="9.182 -3.182 10.5 0 9.182 3.182 6 4.5 2.818 3.182 1.5 0 2.818 -3.182 6 -4.5" fill="black"/><polygon points="3.182 2.818 4.5 6 3.182 9.182 0 10.5 -3.182 9.182 -4.5 6 -3.182 2.818 0 1.5" fill="black"/><polygon points="15.182 2.818 16.5 6 15.182 9.182 12 10.5 8.818 9.182 7.5 6 8.818 2.818 12 1.5" fill="black"/><polygon points="9.182 8.818 10.5 12 9.182 15.182 6 16.5 2.818 15.182 1.5 12 2.818 8.818 6 7.5" fill="black"/></svg>