<svg xmlns="http://www.w3.org/2000/svg" width="7" height="7" viewBox="0 0 7 7" fill="none"><polygon points="5.2678 -1.7678 6 0 5.2678 1.7678 3.5 2.5 1.7322 1.7678 1 0 1.7322 -1.7678 3.5 -2.5" fill="black"/><polygon points="1.7678 1.7322 2.5 3.5 1.7678 5.2678 0 6 -1.7678 5.2678 -2.5 3.5 -1.7678 1.7322 0 1" fill="black"/><polygon points="8.7678 1.7322 9.5 3.5 8.7678 5.2678 7 6 5.2322 5.2678 4.5 3.5 5.2322 1.7322 7 1" fill="black"/><polygon points="5.2678 5.2322 6 7 5.2678 8.7678 3.5 9.5 1.7322 8.7678 1 7 1.7322 5.2322 3.5 4.5" fill="black"/></svg>