<svg xmlns="http://www.w3.org/2000/svg" width="12" height="12" viewBox="0 0 12 12" fill="none"><polygon points="6.7071 -0.7071 7 0 6.7071 0.7071 6 1 5.2929 0.7071 5 0 5.2929 -0.7071 6 -1" fill="black"/><polygon points="0.7071 5.2929 1 6 0.7071 6.7071 0 7 -0.7071 6.7071 -1 6 -0.7071 5.2929 0 5" fill="black"/><polygon points="12.7071 5.2929 13 6 12.7071 6.7071 12 7 11.2929 6.7071 11 6 11.2929 5.2929 12 5" fill="black"/><polygon points="6.7071 11.2929 7 12 6.7071 12.7071 6 13 5.2929 12.7071 5 12 5.2929 11.2929 6 11" fill="black"/></svg>