<svg xmlns="http://www.w3.org/2000/svg" width="14" height="14" viewBox="0 0 14 14" fill="none"><polygon points="8.7678 -1.7678 9.5 0 8.7678 1.7678 7 2.5 5.2322 1.7678 4.5 0 5.2322 -1.7678 7 -2.5" fill="black"/><polygon points="1.7678 5.2322 2.5 7 1.7678 8.7678 0 9.5 -1.7678 8.7678 -2.5 7 -1.7678 5.2322 0 4.5" fill="black"/><polygon points="15.7678 5.2322 16.5 7 15.7678 8.7678 14 9.5 12.2322 8.7678 11.5 7 12.2322 5.2322 14 4.5" fill="black"/><polygon points="8.7678 12.2322 9.5 14 8.7678 15.7678 7 16.5 5.2322 15.7678 4.5 14 5.2322 12.2322 7 11.5" fill="black"/></svg>