<svg xmlns="http://www.w3.org/2000/svg" width="12" height="12" viewBox="0 0 12 12" fill="none"><polygon points="8.4749 -2.4749 9.5 0 8.4749 2.4749 6 3.5 3.5251 2.4749 2.5 0 3.5251 -2.4749 6 -3.5" fill="black"/><polygon points="2.4749 3.5251 3.5 6 2.4749 8.4749 0 9.5 -2.4749 8.4749 -3.5 6 -2.4749 3.5251 0 2.5" fill="black"/><polygon points="14.4749 3.5251 15.5 6 14.4749 8.4749 12 9.5 9.5251 8.4749 8.5 6 9.5251 3.5251 12 2.5" fill="black"/><polygon points="8.4749 9.5251 9.5 12 8.4749 14.4749 6 15.5 3.5251 14.4749 2.5 12 3.5251 9.5251 6 8.5" fill="black"/></svg>