<svg xmlns="http://www.w3.org/2000/svg" width="13" height="13" viewBox="0 0 13 13" fill="none"><polygon points="12.1569 -5.6569 14.5 0 12.1569 5.6569 6.5 8 0.8431 5.6569 -1.5 0 0.8431 -5.6569 6.5 -8" fill="black"/><polygon points="5.6569 0.8431 8 6.5 5.6569 12.1569 0 14.5 -5.6569 12.1569 -8 6.5 -5.6569 0.8431 0 -1.5" fill="black"/><polygon points="18.6569 0.8431 21 6.5 18.6569 12.1569 13 14.5 7.3431 12.1569 5 6.5 7.3431 0.8431 13 -1.5" fill="black"/><polygon points="12.1569 7.3431 14.5 13 12.1569 18.6569 6.5 21 0.8431 18.6569 -1.5 13 0.8431 7.3431 6.5 5" fill="black"/></svg>