<svg xmlns="http://www.w3.org/2000/svg" width="10" height="10" viewBox="0 0 10 10" fill="none"><polygon points="8.8891 -3.8891 10.5 0 8.8891 3.8891 5 5.5 1.1109 3.8891 -0.5 0 1.1109 -3.8891 5 -5.5" fill="black"/><polygon points="3.8891 1.1109 5.5 5 3.8891 8.8891 0 10.5 -3.8891 8.8891 -5.5 5 -3.8891 1.1109 0 -0.5" fill="black"/><polygon points="13.8891 1.1109 15.5 5 13.8891 8.8891 10 10.5 6.1109 8.8891 4.5 5 6.1109 1.1109 10 -0.5" fill="black"/><polygon points="8.8891 6.1109 10.5 10 8.8891 13.8891 5 15.5 1.1109 13.8891 -0.5 10 1.1109 6.1109 5 4.5" fill="black"/></svg>