<svg xmlns="http://www.w3.org/2000/svg" width="4" height="4" viewBox="0 0 4 4" fill="none"><polygon points="4.1213 -2.1213 5 0 4.1213 2.1213 2 3 -0.1213 2.1213 -1 0 -0.1213 -2.1213 2 -3" fill="black"/><polygon points="2.1213 -0.1213 3 2 2.1213 4.1213 0 5 -2.1213 4.1213 -3 2 -2.1213 -0.1213 0 -1" fill="black"/><polygon points="6.1213 -0.1213 7 2 6.1213 4.1213 4 5 1.8787 4.1213 1 2 1.8787 -0.1213 4 -1" fill="black"/><polygon points="4.1213 1.8787 5 4 4.1213 6.1213 2 7 -0.1213 6.1213 -1 4 -0.1213 1.8787 2 1" fill="black"/></svg>