<svg xmlns="http://www.w3.org/2000/svg" width="13" height="13" viewBox="0 0 13 13" fill="none"><polygon points="7.5607 -1.0607 8 0 7.5607 1.0607 6.5 1.5 5.4393 1.0607 5 0 5.4393 -1.0607 6.5 -1.5" fill="black"/><polygon points="1.0607 5.4393 1.5 6.5 1.0607 7.5607 0 8 -1.0607 7.5607 -1.5 6.5 -1.0607 5.4393 0 5" fill="black"/><polygon points="14.0607 5.4393 14.5 6.5 14.0607 7.5607 13 8 11.9393 7.5607 11.5 6.5 11.9393 5.4393 13 5" fill="black"/><polygon points="7.5607 11.9393 8 13 7.5607 14.0607 6.5 14.5 5.4393 14.0607 5 13 5.4393 11.9393 6.5 11.5" fill="black"/></svg>