<svg xmlns="http://www.w3.org/2000/svg" width="8" height="8" viewBox="0 0 8 8" fill="none"><polygon points="7.5355 -3.5355 9 0 7.5355 3.5355 4 5 0.4645 3.5355 -1 0 0.4645 -3.5355 4 -5" fill="black"/><polygon points="3.5355 0.4645 5 4 3.5355 7.5355 0 9 -3.5355 7.5355 -5 4 -3.5355 0.4645 0 -1" fill="black"/><polygon points="11.5355 0.4645 13 4 11.5355 7.5355 8 9 4.4645 7.5355 3 4 4.4645 0.4645 8 -1" fill="black"/><polygon points="7.5355 4.4645 9 8 7.5355 11.5355 4 13 0.4645 11.5355 -1 8 0.4645 4.4645 4 3" fill="black"/></svg>