<svg xmlns="http://www.w3.org/2000/svg" width="13" height="13" viewBox="0 0 13 13" fill="none"><polygon points="10.3891 -3.8891 12 0 10.3891 3.8891 6.5 5.5 2.6109 3.8891 1 0 2.6109 -3.8891 6.5 -5.5" fill="black"/><polygon points="3.8891 2.6109 5.5 6.5 3.8891 10.3891 0 12 -3.8891 10.3891 -5.5 6.5 -3.8891 2.6109 0 1" fill="black"/><polygon points="16.8891 2.6109 18.5 6.5 16.8891 10.3891 13 12 9.1109 10.3891 7.5 6.5 9.1109 2.6109 13 1" fill="black"/><polygon points="10.3891 9.1109 12 13 10.3891 16.8891 6.5 18.5 2.6109 16.8891 1 13 2.6109 9.1109 6.5 7.5" fill="black"/></svg>