<svg xmlns="http://www.w3.org/2000/svg" width="11" height="11" viewBox="0 0 11 11" fill="none"><polygon points="8.3284 -2.8284 9.5 0 8.3284 2.8284 5.5 4 2.6716 2.8284 1.5 0 2.6716 -2.8284 5.5 -4" fill="black"/><polygon points="2.8284 2.6716 4 5.5 2.8284 8.3284 0 9.5 -2.8284 8.3284 -4 5.5 -2.8284 2.6716 0 1.5" fill="black"/><polygon points="13.8284 2.6716 15 5.5 13.8284 8.3284 11 9.5 8.1716 8.3284 7 5.5 8.1716 2.6716 11 1.5" fill="black"/><polygon points="8.3284 8.1716 9.5 11 8.3284 13.8284 5.5 15 2.6716 13.8284 1.5 11 2.6716 8.1716 5.5 7" fill="black"/></svg>