<svg xmlns="http://www.w3.org/2000/svg" width="10" height="10" viewBox="0 0 10 10" fill="none"><polygon points="8.182 -3.182 9.5 0 8.182 3.182 5 4.5 1.818 3.182 0.5 0 1.818 -3.182 5 -4.5" fill="black"/><polygon points="3.182 1.818 4.5 5 3.182 8.182 0 9.5 -3.182 8.182 -4.5 5 -3.182 1.818 0 0.5" fill="black"/><polygon points="13.182 1.818 14.5 5 13.182 8.182 10 9.5 6.818 8.182 5.5 5 6.818 1.818 10 0.5" fill="black"/><polygon points="8.182 6.818 9.5 10 8.182 13.182 5 14.5 1.818 13.182 0.5 10 1.818 6.818 5 5.5" fill="black"/></svg>