<svg xmlns="http://www.w3.org/2000/svg" width="11" height="11" viewBox="0 0 11 11" fill="none"><polygon points="9.0355 -3.5355 10.5 0 9.0355 3.5355 5.5 5 1.9645 3.5355 0.5 0 1.9645 -3.5355 5.5 -5" fill="black"/><polygon points="3.5355 1.9645 5 5.5 3.5355 9.0355 0 10.5 -3.5355 9.0355 -5 5.5 -3.5355 1.9645 0 0.5" fill="black"/><polygon points="14.5355 1.9645 16 5.5 14.5355 9.0355 11 10.5 7.4645 9.0355 6 5.5 7.4645 1.9645 11 0.5" fill="black"/><polygon points="9.0355 7.4645 10.5 11 9.0355 14.5355 5.5 16 1.9645 14.5355 0.5 11 1.9645 7.4645 5.5 6" fill="black"/></svg>