<svg xmlns="http://www.w3.org/2000/svg" width="3" height="3" viewBox="0 0 3 3" fill="none"><polygon points="2.5607 -1.0607 3 0 2.5607 1.0607 1.5 1.5 0.4393 1.0607 0 0 0.4393 -1.0607 1.5 -1.5" fill="black"/><polygon points="1.0607 0.4393 1.5 1.5 1.0607 2.5607 0 3 -1.0607 2.5607 -1.5 1.5 -1.0607 0.4393 0 0" fill="black"/><polygon points="4.0607 0.4393 4.5 1.5 4.0607 2.5607 3 3 1.9393 2.5607 1.5 1.5 1.9393 0.4393 3 0" fill="black"/><polygon points="2.5607 1.9393 3 3 2.5607 4.0607 1.5 4.5 0.4393 4.0607 0 3 0.4393 1.9393 1.5 1.5" fill="black"/></svg>