<svg xmlns="http://www.w3.org/2000/svg" width="6" height="6" viewBox="0 0 6 6" fill="none"><polygon points="5.1213 -2.1213 6 0 5.1213 2.1213 3 3 0.8787 2.1213 0 0 0.8787 -2.1213 3 -3" fill="black"/><polygon points="2.1213 0.8787 3 3 2.1213 5.1213 0 6 -2.1213 5.1213 -3 3 -2.1213 0.8787 0 0" fill="black"/><polygon points="8.1213 0.8787 9 3 8.1213 5.1213 6 6 3.8787 5.1213 3 3 3.8787 0.8787 6 0" fill="black"/><polygon points="5.1213 3.8787 6 6 5.1213 8.1213 3 9 0.8787 8.1213 0 6 0.8787 3.8787 3 3" fill="black"/></svg>