<svg xmlns="http://www.w3.org/2000/svg" width="1" height="1" viewBox="0 0 1 1" fill="none"><polygon points="1.2071 -0.7071 1.5 0 1.2071 0.7071 0.5 1 -0.2071 0.7071 -0.5 0 -0.2071 -0.7071 0.5 -1" fill="black"/><polygon points="0.7071 -0.2071 1 0.5 0.7071 1.2071 0 1.5 -0.7071 1.2071 -1 0.5 -0.7071 -0.2071 0 -0.5" fill="black"/><polygon points="1.7071 -0.2071 2 0.5 1.7071 1.2071 1 1.5 0.2929 1.2071 0 0.5 0.2929 -0.2071 1 -0.5" fill="black"/><polygon points="1.2071 0.2929 1.5 1 1.2071 1.7071 0.5 2 -0.2071 1.7071 -0.5 1 -0.2071 0.2929 0.5 0" fill="black"/></svg>