<svg xmlns="http://www.w3.org/2000/svg" width="9" height="9" viewBox="0 0 9 9" fill="none"><polygon points="6.2678 -1.7678 7 0 6.2678 1.7678 4.5 2.5 2.7322 1.7678 2 0 2.7322 -1.7678 4.5 -2.5" fill="black"/><polygon points="1.7678 2.7322 2.5 4.5 1.7678 6.2678 0 7 -1.7678 6.2678 -2.5 4.5 -1.7678 2.7322 0 2" fill="black"/><polygon points="10.7678 2.7322 11.5 4.5 10.7678 6.2678 9 7 7.2322 6.2678 6.5 4.5 7.2322 2.7322 9 2" fill="black"/><polygon points="6.2678 7.2322 7 9 6.2678 10.7678 4.5 11.5 2.7322 10.7678 2 9 2.7322 7.2322 4.5 6.5" fill="black"/></svg>