<svg xmlns="http://www.w3.org/2000/svg" width="3" height="3" viewBox="0 0 3 3" fill="none"><polygon points="2.9142 -1.4142 3.5 0 2.9142 1.4142 1.5 2 0.0858 1.4142 -0.5 0 0.0858 -1.4142 1.5 -2" fill="black"/><polygon points="1.4142 0.0858 2 1.5 1.4142 2.9142 0 3.5 -1.4142 2.9142 -2 1.5 -1.4142 0.0858 0 -0.5" fill="black"/><polygon points="4.4142 0.0858 5 1.5 4.4142 2.9142 3 3.5 1.5858 2.9142 1 1.5 1.5858 0.0858 3 -0.5" fill="black"/><polygon points="2.9142 1.5858 3.5 3 2.9142 4.4142 1.5 5 0.0858 4.4142 -0.5 3 0.0858 1.5858 1.5 1" fill="black"/></svg>