<svg xmlns="http://www.w3.org/2000/svg" width="13" height="13" viewBox="0 0 13 13" fill="none"><polygon points="11.8033 -5.3033 14 0 11.8033 5.3033 6.5 7.5 1.1967 5.3033 -1 0 1.1967 -5.3033 6.5 -7.5" fill="black"/><polygon points="5.3033 1.1967 7.5 6.5 5.3033 11.8033 0 14 -5.3033 11.8033 -7.5 6.5 -5.3033 1.1967 0 -1" fill="black"/><polygon points="18.3033 1.1967 20.5 6.5 18.3033 11.8033 13 14 7.6967 11.8033 5.5 6.5 7.6967 1.1967 13 -1" fill="black"/><polygon points="11.8033 7.6967 14 13 11.8033 18.3033 6.5 20.5 1.1967 18.3033 -1 13 1.1967 7.6967 6.5 5.5" fill="black"/></svg>