<svg xmlns="http://www.w3.org/2000/svg" width="8" height="8" viewBox="0 0 8 8" fill="none"><polygon points="7.182 -3.182 8.5 0 7.182 3.182 4 4.5 0.818 3.182 -0.5 0 0.818 -3.182 4 -4.5" fill="black"/><polygon points="3.182 0.818 4.5 4 3.182 7.182 0 8.5 -3.182 7.182 -4.5 4 -3.182 0.818 0 -0.5" fill="black"/><polygon points="11.182 0.818 12.5 4 11.182 7.182 8 8.5 4.818 7.182 3.5 4 4.818 0.818 8 -0.5" fill="black"/><polygon points="7.182 4.818 8.5 8 7.182 11.182 4 12.5 0.818 11.182 -0.5 8 0.818 4.818 4 3.5" fill="black"/></svg>