<svg xmlns="http://www.w3.org/2000/svg" width="10" height="10" viewBox="0 0 10 10" fill="none"><polygon points="9.9497 -4.9497 12 0 9.9497 4.9497 5 7 0.0503 4.9497 -2 0 0.0503 -4.9497 5 -7" fill="black"/><polygon points="4.9497 0.0503 7 5 4.9497 9.9497 0 12 -4.9497 9.9497 -7 5 -4.9497 0.0503 0 -2" fill="black"/><polygon points="14.9497 0.0503 17 5 14.9497 9.9497 10 12 5.0503 9.9497 3 5 5.0503 0.0503 10 -2" fill="black"/><polygon points="9.9497 5.0503 12 10 9.9497 14.9497 5 17 0.0503 14.9497 -2 10 0.0503 5.0503 5 3" fill="black"/></svg>