<svg xmlns="http://www.w3.org/2000/svg" width="7" height="7" viewBox="0 0 7 7" fill="none"><polygon points="4.2071 -0.7071 4.5 0 4.2071 0.7071 3.5 1 2.7929 0.7071 2.5 0 2.7929 -0.7071 3.5 -1" fill="black"/><polygon points="0.7071 2.7929 1 3.5 0.7071 4.2071 0 4.5 -0.7071 4.2071 -1 3.5 -0.7071 2.7929 0 2.5" fill="black"/><polygon points="7.7071 2.7929 8 3.5 7.7071 4.2071 7 4.5 6.2929 4.2071 6 3.5 6.2929 2.7929 7 2.5" fill="black"/><polygon points="4.2071 6.2929 4.5 7 4.2071 7.7071 3.5 8 2.7929 7.7071 2.5 7 2.7929 6.2929 3.5 6" fill="black"/></svg>