<svg xmlns="http://www.w3.org/2000/svg" width="4" height="4" viewBox="0 0 4 4" fill="none"><polygon points="3.0607 -1.0607 3.5 0 3.0607 1.0607 2 1.5 0.9393 1.0607 0.5 0 0.9393 -1.0607 2 -1.5" fill="black"/><polygon points="1.0607 0.9393 1.5 2 1.0607 3.0607 0 3.5 -1.0607 3.0607 -1.5 2 -1.0607 0.9393 0 0.5" fill="black"/><polygon points="5.0607 0.9393 5.5 2 5.0607 3.0607 4 3.5 2.9393 3.0607 2.5 2 2.9393 0.9393 4 0.5" fill="black"/><polygon points="3.0607 2.9393 3.5 4 3.0607 5.0607 2 5.5 0.9393 5.0607 0.5 4 0.9393 2.9393 2 2.5" fill="black"/></svg>