<svg xmlns="http://www.w3.org/2000/svg" width="14" height="14" viewBox="0 0 14 14" fill="none"><polygon points="12.6569 -5.6569 15 0 12.6569 5.6569 7 8 1.3431 5.6569 -1 0 1.3431 -5.6569 7 -8" fill="black"/><polygon points="5.6569 1.3431 8 7 5.6569 12.6569 0 15 -5.6569 12.6569 -8 7 -5.6569 1.3431 0 -1" fill="black"/><polygon points="19.6569 1.3431 22 7 19.6569 12.6569 14 15 8.3431 12.6569 6 7 8.3431 1.3431 14 -1" fill="black"/><polygon points="12.6569 8.3431 15 14 12.6569 19.6569 7 22 1.3431 19.6569 -1 14 1.3431 8.3431 7 6" fill="black"/></svg>