<svg xmlns="http://www.w3.org/2000/svg" width="13" height="13" viewBox="0 0 13 13" fill="none"><polygon points="7.2071 -0.7071 7.5 0 7.2071 0.7071 6.5 1 5.7929 0.7071 5.5 0 5.7929 -0.7071 6.5 -1" fill="black"/><polygon points="0.7071 5.7929 1 6.5 0.7071 7.2071 0 7.5 -0.7071 7.2071 -1 6.5 -0.7071 5.7929 0 5.5" fill="black"/><polygon points="13.7071 5.7929 14 6.5 13.7071 7.2071 13 7.5 12.2929 7.2071 12 6.5 12.2929 5.7929 13 5.5" fill="black"/><polygon points="7.2071 12.2929 7.5 13 7.2071 13.7071 6.5 14 5.7929 13.7071 5.5 13 5.7929 12.2929 6.5 12" fill="black"/></svg>