<svg xmlns="http://www.w3.org/2000/svg" width="13" height="13" viewBox="0 0 13 13" fill="none"><polygon points="8.2678 -1.7678 9 0 8.2678 1.7678 6.5 2.5 4.7322 1.7678 4 0 4.7322 -1.7678 6.5 -2.5" fill="black"/><polygon points="1.7678 4.7322 2.5 6.5 1.7678 8.2678 0 9 -1.7678 8.2678 -2.5 6.5 -1.7678 4.7322 0 4" fill="black"/><polygon points="14.7678 4.7322 15.5 6.5 14.7678 8.2678 13 9 11.2322 8.2678 10.5 6.5 11.2322 4.7322 13 4" fill="black"/><polygon points="8.2678 11.2322 9 13 8.2678 14.7678 6.5 15.5 4.7322 14.7678 4 13 4.7322 11.2322 6.5 10.5" fill="black"/></svg>