<svg xmlns="http://www.w3.org/2000/svg" width="7" height="7" viewBox="0 0 7 7" fill="none"><polygon points="4.5607 -1.0607 5 0 4.5607 1.0607 3.5 1.5 2.4393 1.0607 2 0 2.4393 -1.0607 3.5 -1.5" fill="black"/><polygon points="1.0607 2.4393 1.5 3.5 1.0607 4.5607 0 5 -1.0607 4.5607 -1.5 3.5 -1.0607 2.4393 0 2" fill="black"/><polygon points="8.0607 2.4393 8.5 3.5 8.0607 4.5607 7 5 5.9393 4.5607 5.5 3.5 5.9393 2.4393 7 2" fill="black"/><polygon points="4.5607 5.9393 5 7 4.5607 8.0607 3.5 8.5 2.4393 8.0607 2 7 2.4393 5.9393 3.5 5.5" fill="black"/></svg>