<svg xmlns="http://www.w3.org/2000/svg" width="3" height="3" viewBox="0 0 3 3" fill="none"><polygon points="2.2071 -0.7071 2.5 0 2.2071 0.7071 1.5 1 0.7929 0.7071 0.5 0 0.7929 -0.7071 1.5 -1" fill="black"/><polygon points="0.7071 0.7929 1 1.5 0.7071 2.2071 0 2.5 -0.7071 2.2071 -1 1.5 -0.7071 0.7929 0 0.5" fill="black"/><polygon points="3.7071 0.7929 4 1.5 3.7071 2.2071 3 2.5 2.2929 2.2071 2 1.5 2.2929 0.7929 3 0.5" fill="black"/><polygon points="2.2071 2.2929 2.5 3 2.2071 3.7071 1.5 4 0.7929 3.7071 0.5 3 0.7929 2.2929 1.5 2" fill="black"/></svg>