<svg xmlns="http://www.w3.org/2000/svg" width="13" height="13" viewBox="0 0 13 13" fill="none"><polygon points="9.682 -3.182 11 0 9.682 3.182 6.5 4.5 3.318 3.182 2 0 3.318 -3.182 6.5 -4.5" fill="black"/><polygon points="3.182 3.318 4.5 6.5 3.182 9.682 0 11 -3.182 9.682 -4.5 6.5 -3.182 3.318 0 2" fill="black"/><polygon points="16.182 3.318 17.5 6.5 16.182 9.682 13 11 9.818 9.682 8.5 6.5 9.818 3.318 13 2" fill="black"/><polygon points="9.682 9.818 11 13 9.682 16.182 6.5 17.5 3.318 16.182 2 13 3.318 9.818 6.5 8.5" fill="black"/></svg>