<svg xmlns="http://www.w3.org/2000/svg" width="13" height="13" viewBox="0 0 13 13" fill="none"><polygon points="11.4497 -4.9497 13.5 0 11.4497 4.9497 6.5 7 1.5503 4.9497 -0.5 0 1.5503 -4.9497 6.5 -7" fill="black"/><polygon points="4.9497 1.5503 7 6.5 4.9497 11.4497 0 13.5 -4.9497 11.4497 -7 6.5 -4.9497 1.5503 0 -0.5" fill="black"/><polygon points="17.9497 1.5503 20 6.5 17.9497 11.4497 13 13.5 8.0503 11.4497 6 6.5 8.0503 1.5503 13 -0.5" fill="black"/><polygon points="11.4497 8.0503 13.5 13 11.4497 17.9497 6.5 20 1.5503 17.9497 -0.5 13 1.5503 8.0503 6.5 6" fill="black"/></svg>