<svg xmlns="http://www.w3.org/2000/svg" width="12" height="12" viewBox="0 0 12 12" fill="none"><polygon points="7.0607 -1.0607 7.5 0 7.0607 1.0607 6 1.5 4.9393 1.0607 4.5 0 4.9393 -1.0607 6 -1.5" fill="black"/><polygon points="1.0607 4.9393 1.5 6 1.0607 7.0607 0 7.5 -1.0607 7.0607 -1.5 6 -1.0607 4.9393 0 4.5" fill="black"/><polygon points="13.0607 4.9393 13.5 6 13.0607 7.0607 12 7.5 10.9393 7.0607 10.5 6 10.9393 4.9393 12 4.5" fill="black"/><polygon points="7.0607 10.9393 7.5 12 7.0607 13.0607 6 13.5 4.9393 13.0607 4.5 12 4.9393 10.9393 6 10.5" fill="black"/></svg>