<svg xmlns="http://www.w3.org/2000/svg" width="14" height="14" viewBox="0 0 14 14" fill="none"><polygon points="8.0607 -1.0607 8.5 0 8.0607 1.0607 7 1.5 5.9393 1.0607 5.5 0 5.9393 -1.0607 7 -1.5" fill="black"/><polygon points="1.0607 5.9393 1.5 7 1.0607 8.0607 0 8.5 -1.0607 8.0607 -1.5 7 -1.0607 5.9393 0 5.5" fill="black"/><polygon points="15.0607 5.9393 15.5 7 15.0607 8.0607 14 8.5 12.9393 8.0607 12.5 7 12.9393 5.9393 14 5.5" fill="black"/><polygon points="8.0607 12.9393 8.5 14 8.0607 15.0607 7 15.5 5.9393 15.0607 5.5 14 5.9393 12.9393 7 12.5" fill="black"/></svg>