<svg xmlns="http://www.w3.org/2000/svg" width="10" height="10" viewBox="0 0 10 10" fill="none"><polygon points="5.7071 -0.7071 6 0 5.7071 0.7071 5 1 4.2929 0.7071 4 0 4.2929 -0.7071 5 -1" fill="black"/><polygon points="0.7071 4.2929 1 5 0.7071 5.7071 0 6 -0.7071 5.7071 -1 5 -0.7071 4.2929 0 4" fill="black"/><polygon points="10.7071 4.2929 11 5 10.7071 5.7071 10 6 9.2929 5.7071 9 5 9.2929 4.2929 10 4" fill="black"/><polygon points="5.7071 9.2929 6 10 5.7071 10.7071 5 11 4.2929 10.7071 4 10 4.2929 9.2929 5 9" fill="black"/></svg>