<svg xmlns="http://www.w3.org/2000/svg" width="5" height="5" viewBox="0 0 5 5" fill="none"><polygon points="4.6213 -2.1213 5.5 0 4.6213 2.1213 2.5 3 0.3787 2.1213 -0.5 0 0.3787 -2.1213 2.5 -3" fill="black"/><polygon points="2.1213 0.3787 3 2.5 2.1213 4.6213 0 5.5 -2.1213 4.6213 -3 2.5 -2.1213 0.3787 0 -0.5" fill="black"/><polygon points="7.1213 0.3787 8 2.5 7.1213 4.6213 5 5.5 2.8787 4.6213 2 2.5 2.8787 0.3787 5 -0.5" fill="black"/><polygon points="4.6213 2.8787 5.5 5 4.6213 7.1213 2.5 8 0.3787 7.1213 -0.5 5 0.3787 2.8787 2.5 2" fill="black"/></svg>