<svg xmlns="http://www.w3.org/2000/svg" width="11" height="11" viewBox="0 0 11 11" fill="none"><polygon points="8.682 -3.182 10 0 8.682 3.182 5.5 4.5 2.318 3.182 1 0 2.318 -3.182 5.5 -4.5" fill="black"/><polygon points="3.182 2.318 4.5 5.5 3.182 8.682 0 10 -3.182 8.682 -4.5 5.5 -3.182 2.318 0 1" fill="black"/><polygon points="14.182 2.318 15.5 5.5 14.182 8.682 11 10 7.818 8.682 6.5 5.5 7.818 2.318 11 1" fill="black"/><polygon points="8.682 7.818 10 11 8.682 14.182 5.5 15.5 2.318 14.182 1 11 2.318 7.818 5.5 6.5" fill="black"/></svg>