<svg xmlns="http://www.w3.org/2000/svg" width="11" height="11" viewBox="0 0 11 11" fill="none"><polygon points="6.2071 -0.7071 6.5 0 6.2071 0.7071 5.5 1 4.7929 0.7071 4.5 0 4.7929 -0.7071 5.5 -1" fill="black"/><polygon points="0.7071 4.7929 1 5.5 0.7071 6.2071 0 6.5 -0.7071 6.2071 -1 5.5 -0.7071 4.7929 0 4.5" fill="black"/><polygon points="11.7071 4.7929 12 5.5 11.7071 6.2071 11 6.5 10.2929 6.2071 10 5.5 10.2929 4.7929 11 4.5" fill="black"/><polygon points="6.2071 10.2929 6.5 11 6.2071 11.7071 5.5 12 4.7929 11.7071 4.5 11 4.7929 10.2929 5.5 10" fill="black"/></svg>