<svg xmlns="http://www.w3.org/2000/svg" width="10" height="10" viewBox="0 0 10 10" fill="none"><polygon points="9.2426 -4.2426 11 0 9.2426 4.2426 5 6 0.7574 4.2426 -1 0 0.7574 -4.2426 5 -6" fill="black"/><polygon points="4.2426 0.7574 6 5 4.2426 9.2426 0 11 -4.2426 9.2426 -6 5 -4.2426 0.7574 0 -1" fill="black"/><polygon points="14.2426 0.7574 16 5 14.2426 9.2426 10 11 5.7574 9.2426 4 5 5.7574 0.7574 10 -1" fill="black"/><polygon points="9.2426 5.7574 11 10 9.2426 14.2426 5 16 0.7574 14.2426 -1 10 0.7574 5.7574 5 4" fill="black"/></svg>