<svg xmlns="http://www.w3.org/2000/svg" width="9" height="9" viewBox="0 0 9 9" fill="none"><polygon points="9.0962 -4.5962 11 0 9.0962 4.5962 4.5 6.5 -0.0962 4.5962 -2 0 -0.0962 -4.5962 4.5 -6.5" fill="black"/><polygon points="4.5962 -0.0962 6.5 4.5 4.5962 9.0962 0 11 -4.5962 9.0962 -6.5 4.5 -4.5962 -0.0962 0 -2" fill="black"/><polygon points="13.5962 -0.0962 15.5 4.5 13.5962 9.0962 9 11 4.4038 9.0962 2.5 4.5 4.4038 -0.0962 9 -2" fill="black"/><polygon points="9.0962 4.4038 11 9 9.0962 13.5962 4.5 15.5 -0.0962 13.5962 -2 9 -0.0962 4.4038 4.5 2.5" fill="black"/></svg>