<svg xmlns="http://www.w3.org/2000/svg" width="11" height="11" viewBox="0 0 11 11" fill="none"><polygon points="10.8033 -5.3033 13 0 10.8033 5.3033 5.5 7.5 0.1967 5.3033 -2 0 0.1967 -5.3033 5.5 -7.5" fill="black"/><polygon points="5.3033 0.1967 7.5 5.5 5.3033 10.8033 0 13 -5.3033 10.8033 -7.5 5.5 -5.3033 0.1967 0 -2" fill="black"/><polygon points="16.3033 0.1967 18.5 5.5 16.3033 10.8033 11 13 5.6967 10.8033 3.5 5.5 5.6967 0.1967 11 -2" fill="black"/><polygon points="10.8033 5.6967 13 11 10.8033 16.3033 5.5 18.5 0.1967 16.3033 -2 11 0.1967 5.6967 5.5 3.5" fill="black"/></svg>