<svg xmlns="http://www.w3.org/2000/svg" width="13" height="13" viewBox="0 0 13 13" fill="none"><polygon points="12.864 -6.364 15.5 0 12.864 6.364 6.5 9 0.136 6.364 -2.5 0 0.136 -6.364 6.5 -9" fill="black"/><polygon points="6.364 0.136 9 6.5 6.364 12.864 0 15.5 -6.364 12.864 -9 6.5 -6.364 0.136 0 -2.5" fill="black"/><polygon points="19.364 0.136 22 6.5 19.364 12.864 13 15.5 6.636 12.864 4 6.5 6.636 0.136 13 -2.5" fill="black"/><polygon points="12.864 6.636 15.5 13 12.864 19.364 6.5 22 0.136 19.364 -2.5 13 0.136 6.636 6.5 4" fill="black"/></svg>