<svg xmlns="http://www.w3.org/2000/svg" width="6" height="6" viewBox="0 0 6 6" fill="none"><polygon points="4.0607 -1.0607 4.5 0 4.0607 1.0607 3 1.5 1.9393 1.0607 1.5 0 1.9393 -1.0607 3 -1.5" fill="black"/><polygon points="1.0607 1.9393 1.5 3 1.0607 4.0607 0 4.5 -1.0607 4.0607 -1.5 3 -1.0607 1.9393 0 1.5" fill="black"/><polygon points="7.0607 1.9393 7.5 3 7.0607 4.0607 6 4.5 4.9393 4.0607 4.5 3 4.9393 1.9393 6 1.5" fill="black"/><polygon points="4.0607 4.9393 4.5 6 4.0607 7.0607 3 7.5 1.9393 7.0607 1.5 6 1.9393 4.9393 3 4.5" fill="black"/></svg>