<svg xmlns="http://www.w3.org/2000/svg" width="10" height="10" viewBox="0 0 10 10" fill="none"><polygon points="9.5962 -4.5962 11.5 0 9.5962 4.5962 5 6.5 0.4038 4.5962 -1.5 0 0.4038 -4.5962 5 -6.5" fill="black"/><polygon points="4.5962 0.4038 6.5 5 4.5962 9.5962 0 11.5 -4.5962 9.5962 -6.5 5 -4.5962 0.4038 0 -1.5" fill="black"/><polygon points="14.5962 0.4038 16.5 5 14.5962 9.5962 10 11.5 5.4038 9.5962 3.5 5 5.4038 0.4038 10 -1.5" fill="black"/><polygon points="9.5962 5.4038 11.5 10 9.5962 14.5962 5 16.5 0.4038 14.5962 -1.5 10 0.4038 5.4038 5 3.5" fill="black"/></svg>