<svg xmlns="http://www.w3.org/2000/svg" width="8" height="8" viewBox="0 0 8 8" fill="none"><polygon points="4.7071 -0.7071 5 0 4.7071 0.7071 4 1 3.2929 0.7071 3 0 3.2929 -0.7071 4 -1" fill="black"/><polygon points="0.7071 3.2929 1 4 0.7071 4.7071 0 5 -0.7071 4.7071 -1 4 -0.7071 3.2929 0 3" fill="black"/><polygon points="8.7071 3.2929 9 4 8.7071 4.7071 8 5 7.2929 4.7071 7 4 7.2929 3.2929 8 3" fill="black"/><polygon points="4.7071 7.2929 5 8 4.7071 8.7071 4 9 3.2929 8.7071 3 8 3.2929 7.2929 4 7" fill="black"/></svg>