<svg xmlns="http://www.w3.org/2000/svg" width="7" height="7" viewBox="0 0 7 7" fill="none"><polygon points="6.3284 -2.8284 7.5 0 6.3284 2.8284 3.5 4 0.6716 2.8284 -0.5 0 0.6716 -2.8284 3.5 -4" fill="black"/><polygon points="2.8284 0.6716 4 3.5 2.8284 6.3284 0 7.5 -2.8284 6.3284 -4 3.5 -2.8284 0.6716 0 -0.5" fill="black"/><polygon points="9.8284 0.6716 11 3.5 9.8284 6.3284 7 7.5 4.1716 6.3284 3 3.5 4.1716 0.6716 7 -0.5" fill="black"/><polygon points="6.3284 4.1716 7.5 7 6.3284 9.8284 3.5 11 0.6716 9.8284 -0.5 7 0.6716 4.1716 3.5 3" fill="black"/></svg>