<svg xmlns="http://www.w3.org/2000/svg" width="9" height="9" viewBox="0 0 9 9" fill="none"><polygon points="8.7426 -4.2426 10.5 0 8.7426 4.2426 4.5 6 0.2574 4.2426 -1.5 0 0.2574 -4.2426 4.5 -6" fill="black"/><polygon points="4.2426 0.2574 6 4.5 4.2426 8.7426 0 10.5 -4.2426 8.7426 -6 4.5 -4.2426 0.2574 0 -1.5" fill="black"/><polygon points="13.2426 0.2574 15 4.5 13.2426 8.7426 9 10.5 4.7574 8.7426 3 4.5 4.7574 0.2574 9 -1.5" fill="black"/><polygon points="8.7426 4.7574 10.5 9 8.7426 13.2426 4.5 15 0.2574 13.2426 -1.5 9 0.2574 4.7574 4.5 3" fill="black"/></svg>