<svg xmlns="http://www.w3.org/2000/svg" width="8" height="8" viewBox="0 0 8 8" fill="none"><polygon points="6.1213 -2.1213 7 0 6.1213 2.1213 4 3 1.8787 2.1213 1 0 1.8787 -2.1213 4 -3" fill="black"/><polygon points="2.1213 1.8787 3 4 2.1213 6.1213 0 7 -2.1213 6.1213 -3 4 -2.1213 1.8787 0 1" fill="black"/><polygon points="10.1213 1.8787 11 4 10.1213 6.1213 8 7 5.8787 6.1213 5 4 5.8787 1.8787 8 1" fill="black"/><polygon points="6.1213 5.8787 7 8 6.1213 10.1213 4 11 1.8787 10.1213 1 8 1.8787 5.8787 4 5" fill="black"/></svg>