<svg xmlns="http://www.w3.org/2000/svg" width="10" height="10" viewBox="0 0 10 10" fill="none"><polygon points="8.5355 -3.5355 10 0 8.5355 3.5355 5 5 1.4645 3.5355 0 0 1.4645 -3.5355 5 -5" fill="black"/><polygon points="3.5355 1.4645 5 5 3.5355 8.5355 0 10 -3.5355 8.5355 -5 5 -3.5355 1.4645 0 0" fill="black"/><polygon points="13.5355 1.4645 15 5 13.5355 8.5355 10 10 6.4645 8.5355 5 5 6.4645 1.4645 10 0" fill="black"/><polygon points="8.5355 6.4645 10 10 8.5355 13.5355 5 15 1.4645 13.5355 0 10 1.4645 6.4645 5 5" fill="black"/></svg>