<svg xmlns="http://www.w3.org/2000/svg" width="14" height="14" viewBox="0 0 14 14" fill="none"><polygon points="9.4749 -2.4749 10.5 0 9.4749 2.4749 7 3.5 4.5251 2.4749 3.5 0 4.5251 -2.4749 7 -3.5" fill="black"/><polygon points="2.4749 4.5251 3.5 7 2.4749 9.4749 0 10.5 -2.4749 9.4749 -3.5 7 -2.4749 4.5251 0 3.5" fill="black"/><polygon points="16.4749 4.5251 17.5 7 16.4749 9.4749 14 10.5 11.5251 9.4749 10.5 7 11.5251 4.5251 14 3.5" fill="black"/><polygon points="9.4749 11.5251 10.5 14 9.4749 16.4749 7 17.5 4.5251 16.4749 3.5 14 4.5251 11.5251 7 10.5" fill="black"/></svg>