<svg xmlns="http://www.w3.org/2000/svg" width="12" height="12" viewBox="0 0 12 12" fill="none"><polygon points="10.2426 -4.2426 12 0 10.2426 4.2426 6 6 1.7574 4.2426 0 0 1.7574 -4.2426 6 -6" fill="black"/><polygon points="4.2426 1.7574 6 6 4.2426 10.2426 0 12 -4.2426 10.2426 -6 6 -4.2426 1.7574 0 0" fill="black"/><polygon points="16.2426 1.7574 18 6 16.2426 10.2426 12 12 7.7574 10.2426 6 6 7.7574 1.7574 12 0" fill="black"/><polygon points="10.2426 7.7574 12 12 10.2426 16.2426 6 18 1.7574 16.2426 0 12 1.7574 7.7574 6 6" fill="black"/></svg>