<svg xmlns="http://www.w3.org/2000/svg" width="12" height="12" viewBox="0 0 12 12" fill="none"><polygon points="11.6569 -5.6569 14 0 11.6569 5.6569 6 8 0.3431 5.6569 -2 0 0.3431 -5.6569 6 -8" fill="black"/><polygon points="5.6569 0.3431 8 6 5.6569 11.6569 0 14 -5.6569 11.6569 -8 6 -5.6569 0.3431 0 -2" fill="black"/><polygon points="17.6569 0.3431 20 6 17.6569 11.6569 12 14 6.3431 11.6569 4 6 6.3431 0.3431 12 -2" fill="black"/><polygon points="11.6569 6.3431 14 12 11.6569 17.6569 6 20 0.3431 17.6569 -2 12 0.3431 6.3431 6 4" fill="black"/></svg>