<svg xmlns="http://www.w3.org/2000/svg" width="13" height="13" viewBox="0 0 13 13" fill="none"><polygon points="7.9142 -1.4142 8.5 0 7.9142 1.4142 6.5 2 5.0858 1.4142 4.5 0 5.0858 -1.4142 6.5 -2" fill="black"/><polygon points="1.4142 5.0858 2 6.5 1.4142 7.9142 0 8.5 -1.4142 7.9142 -2 6.5 -1.4142 5.0858 0 4.5" fill="black"/><polygon points="14.4142 5.0858 15 6.5 14.4142 7.9142 13 8.5 11.5858 7.9142 11 6.5 11.5858 5.0858 13 4.5" fill="black"/><polygon points="7.9142 11.5858 8.5 13 7.9142 14.4142 6.5 15 5.0858 14.4142 4.5 13 5.0858 11.5858 6.5 11" fill="black"/></svg>