<svg xmlns="http://www.w3.org/2000/svg" width="14" height="14" viewBox="0 0 14 14" fill="none"><polygon points="9.1213 -2.1213 10 0 9.1213 2.1213 7 3 4.8787 2.1213 4 0 4.8787 -2.1213 7 -3" fill="black"/><polygon points="2.1213 4.8787 3 7 2.1213 9.1213 0 10 -2.1213 9.1213 -3 7 -2.1213 4.8787 0 4" fill="black"/><polygon points="16.1213 4.8787 17 7 16.1213 9.1213 14 10 11.8787 9.1213 11 7 11.8787 4.8787 14 4" fill="black"/><polygon points="9.1213 11.8787 10 14 9.1213 16.1213 7 17 4.8787 16.1213 4 14 4.8787 11.8787 7 11" fill="black"/></svg>