<svg xmlns="http://www.w3.org/2000/svg" width="14" height="14" viewBox="0 0 14 14" fill="none"><polygon points="11.5962 -4.5962 13.5 0 11.5962 4.5962 7 6.5 2.4038 4.5962 0.5 0 2.4038 -4.5962 7 -6.5" fill="black"/><polygon points="4.5962 2.4038 6.5 7 4.5962 11.5962 0 13.5 -4.5962 11.5962 -6.5 7 -4.5962 2.4038 0 0.5" fill="black"/><polygon points="18.5962 2.4038 20.5 7 18.5962 11.5962 14 13.5 9.4038 11.5962 7.5 7 9.4038 2.4038 14 0.5" fill="black"/><polygon points="11.5962 9.4038 13.5 14 11.5962 18.5962 7 20.5 2.4038 18.5962 0.5 14 2.4038 9.4038 7 7.5" fill="black"/></svg>