<svg xmlns="http://www.w3.org/2000/svg" width="12" height="12" viewBox="0 0 12 12" fill="none"><polygon points="9.5355 -3.5355 11 0 9.5355 3.5355 6 5 2.4645 3.5355 1 0 2.4645 -3.5355 6 -5" fill="black"/><polygon points="3.5355 2.4645 5 6 3.5355 9.5355 0 11 -3.5355 9.5355 -5 6 -3.5355 2.4645 0 1" fill="black"/><polygon points="15.5355 2.4645 17 6 15.5355 9.5355 12 11 8.4645 9.5355 7 6 8.4645 2.4645 12 1" fill="black"/><polygon points="9.5355 8.4645 11 12 9.5355 15.5355 6 17 2.4645 15.5355 1 12 2.4645 8.4645 6 7" fill="black"/></svg>