<svg xmlns="http://www.w3.org/2000/svg" width="14" height="14" viewBox="0 0 14 14" fill="none"><polygon points="9.8284 -2.8284 11 0 9.8284 2.8284 7 4 4.1716 2.8284 3 0 4.1716 -2.8284 7 -4" fill="black"/><polygon points="2.8284 4.1716 4 7 2.8284 9.8284 0 11 -2.8284 9.8284 -4 7 -2.8284 4.1716 0 3" fill="black"/><polygon points="16.8284 4.1716 18 7 16.8284 9.8284 14 11 11.1716 9.8284 10 7 11.1716 4.1716 14 3" fill="black"/><polygon points="9.8284 11.1716 11 14 9.8284 16.8284 7 18 4.1716 16.8284 3 14 4.1716 11.1716 7 10" fill="black"/></svg>