<svg xmlns="http://www.w3.org/2000/svg" width="14" height="14" viewBox="0 0 14 14" fill="none"><polygon points="11.9497 -4.9497 14 0 11.9497 4.9497 7 7 2.0503 4.9497 0 0 2.0503 -4.9497 7 -7" fill="black"/><polygon points="4.9497 2.0503 7 7 4.9497 11.9497 0 14 -4.9497 11.9497 -7 7 -4.9497 2.0503 0 0" fill="black"/><polygon points="18.9497 2.0503 21 7 18.9497 11.9497 14 14 9.0503 11.9497 7 7 9.0503 2.0503 14 0" fill="black"/><polygon points="11.9497 9.0503 14 14 11.9497 18.9497 7 21 2.0503 18.9497 0 14 2.0503 9.0503 7 7" fill="black"/></svg>