<svg xmlns="http://www.w3.org/2000/svg" width="14" height="14" viewBox="0 0 14 14" fill="none"><polygon points="14.0711 -7.0711 17 0 14.0711 7.0711 7 10 -0.0711 7.0711 -3 0 -0.0711 -7.0711 7 -10" fill="black"/><polygon points="7.0711 -0.0711 10 7 7.0711 14.0711 0 17 -7.0711 14.0711 -10 7 -7.0711 -0.0711 0 -3" fill="black"/><polygon points="21.0711 -0.0711 24 7 21.0711 14.0711 14 17 6.9289 14.0711 4 7 6.9289 -0.0711 14 -3" fill="black"/><polygon points="14.0711 6.9289 17 14 14.0711 21.0711 7 24 -0.0711 21.0711 -3 14 -0.0711 6.9289 7 4" fill="black"/></svg>