<svg xmlns="http://www.w3.org/2000/svg" width="12" height="12" viewBox="0 0 12 12" fill="none"><polygon points="7.7678 -1.7678 8.5 0 7.7678 1.7678 6 2.5 4.2322 1.7678 3.5 0 4.2322 -1.7678 6 -2.5" fill="black"/><polygon points="1.7678 4.2322 2.5 6 1.7678 7.7678 0 8.5 -1.7678 7.7678 -2.5 6 -1.7678 4.2322 0 3.5" fill="black"/><polygon points="13.7678 4.2322 14.5 6 13.7678 7.7678 12 8.5 10.2322 7.7678 9.5 6 10.2322 4.2322 12 3.5" fill="black"/><polygon points="7.7678 10.2322 8.5 12 7.7678 13.7678 6 14.5 4.2322 13.7678 3.5 12 4.2322 10.2322 6 9.5" fill="black"/></svg>