<svg xmlns="http://www.w3.org/2000/svg" width="13" height="13" viewBox="0 0 13 13" fill="none"><polygon points="8.9749 -2.4749 10 0 8.9749 2.4749 6.5 3.5 4.0251 2.4749 3 0 4.0251 -2.4749 6.5 -3.5" fill="black"/><polygon points="2.4749 4.0251 3.5 6.5 2.4749 8.9749 0 10 -2.4749 8.9749 -3.5 6.5 -2.4749 4.0251 0 3" fill="black"/><polygon points="15.4749 4.0251 16.5 6.5 15.4749 8.9749 13 10 10.5251 8.9749 9.5 6.5 10.5251 4.0251 13 3" fill="black"/><polygon points="8.9749 10.5251 10 13 8.9749 15.4749 6.5 16.5 4.0251 15.4749 3 13 4.0251 10.5251 6.5 9.5" fill="black"/></svg>