<svg xmlns="http://www.w3.org/2000/svg" width="11" height="11" viewBox="0 0 11 11" fill="none"><polygon points="7.6213 -2.1213 8.5 0 7.6213 2.1213 5.5 3 3.3787 2.1213 2.5 0 3.3787 -2.1213 5.5 -3" fill="black"/><polygon points="2.1213 3.3787 3 5.5 2.1213 7.6213 0 8.5 -2.1213 7.6213 -3 5.5 -2.1213 3.3787 0 2.5" fill="black"/><polygon points="13.1213 3.3787 14 5.5 13.1213 7.6213 11 8.5 8.8787 7.6213 8 5.5 8.8787 3.3787 11 2.5" fill="black"/><polygon points="7.6213 8.8787 8.5 11 7.6213 13.1213 5.5 14 3.3787 13.1213 2.5 11 3.3787 8.8787 5.5 8" fill="black"/></svg>