<svg xmlns="http://www.w3.org/2000/svg" width="4" height="4" viewBox="0 0 4 4" fill="none"><polygon points="3.4142 -1.4142 4 0 3.4142 1.4142 2 2 0.5858 1.4142 0 0 0.5858 -1.4142 2 -2" fill="black"/><polygon points="1.4142 0.5858 2 2 1.4142 3.4142 0 4 -1.4142 3.4142 -2 2 -1.4142 0.5858 0 0" fill="black"/><polygon points="5.4142 0.5858 6 2 5.4142 3.4142 4 4 2.5858 3.4142 2 2 2.5858 0.5858 4 0" fill="black"/><polygon points="3.4142 2.5858 4 4 3.4142 5.4142 2 6 0.5858 5.4142 0 4 0.5858 2.5858 2 2" fill="black"/></svg>