<svg xmlns="http://www.w3.org/2000/svg" width="11" height="11" viewBox="0 0 11 11" fill="none"><polygon points="6.9142 -1.4142 7.5 0 6.9142 1.4142 5.5 2 4.0858 1.4142 3.5 0 4.0858 -1.4142 5.5 -2" fill="black"/><polygon points="1.4142 4.0858 2 5.5 1.4142 6.9142 0 7.5 -1.4142 6.9142 -2 5.5 -1.4142 4.0858 0 3.5" fill="black"/><polygon points="12.4142 4.0858 13 5.5 12.4142 6.9142 11 7.5 9.5858 6.9142 9 5.5 9.5858 4.0858 11 3.5" fill="black"/><polygon points="6.9142 9.5858 7.5 11 6.9142 12.4142 5.5 13 4.0858 12.4142 3.5 11 4.0858 9.5858 5.5 9" fill="black"/></svg>