<svg xmlns="http://www.w3.org/2000/svg" width="13" height="13" viewBox="0 0 13 13" fill="none"><polygon points="12.5104 -6.0104 15 0 12.5104 6.0104 6.5 8.5 0.4896 6.0104 -2 0 0.4896 -6.0104 6.5 -8.5" fill="black"/><polygon points="6.0104 0.4896 8.5 6.5 6.0104 12.5104 0 15 -6.0104 12.5104 -8.5 6.5 -6.0104 0.4896 0 -2" fill="black"/><polygon points="19.0104 0.4896 21.5 6.5 19.0104 12.5104 13 15 6.9896 12.5104 4.5 6.5 6.9896 0.4896 13 -2" fill="black"/><polygon points="12.5104 6.9896 15 13 12.5104 19.0104 6.5 21.5 0.4896 19.0104 -2 13 0.4896 6.9896 6.5 4.5" fill="black"/></svg>