<svg xmlns="http://www.w3.org/2000/svg" width="14" height="14" viewBox="0 0 14 14" fill="none"><polygon points="13.7175 -6.7175 16.5 0 13.7175 6.7175 7 9.5 0.2825 6.7175 -2.5 0 0.2825 -6.7175 7 -9.5" fill="black"/><polygon points="6.7175 0.2825 9.5 7 6.7175 13.7175 0 16.5 -6.7175 13.7175 -9.5 7 -6.7175 0.2825 0 -2.5" fill="black"/><polygon points="20.7175 0.2825 23.5 7 20.7175 13.7175 14 16.5 7.2825 13.7175 4.5 7 7.2825 0.2825 14 -2.5" fill="black"/><polygon points="13.7175 7.2825 16.5 14 13.7175 20.7175 7 23.5 0.2825 20.7175 -2.5 14 0.2825 7.2825 7 4.5" fill="black"/></svg>