<svg xmlns="http://www.w3.org/2000/svg" width="11" height="11" viewBox="0 0 11 11" fill="none"><polygon points="11.1569 -5.6569 13.5 0 11.1569 5.6569 5.5 8 -0.1569 5.6569 -2.5 0 -0.1569 -5.6569 5.5 -8" fill="black"/><polygon points="5.6569 -0.1569 8 5.5 5.6569 11.1569 0 13.5 -5.6569 11.1569 -8 5.5 -5.6569 -0.1569 0 -2.5" fill="black"/><polygon points="16.6569 -0.1569 19 5.5 16.6569 11.1569 11 13.5 5.3431 11.1569 3 5.5 5.3431 -0.1569 11 -2.5" fill="black"/><polygon points="11.1569 5.3431 13.5 11 11.1569 16.6569 5.5 19 -0.1569 16.6569 -2.5 11 -0.1569 5.3431 5.5 3" fill="black"/></svg>