<svg xmlns="http://www.w3.org/2000/svg" width="10" height="10" viewBox="0 0 10 10" fill="none"><polygon points="6.4142 -1.4142 7 0 6.4142 1.4142 5 2 3.5858 1.4142 3 0 3.5858 -1.4142 5 -2" fill="black"/><polygon points="1.4142 3.5858 2 5 1.4142 6.4142 0 7 -1.4142 6.4142 -2 5 -1.4142 3.5858 0 3" fill="black"/><polygon points="11.4142 3.5858 12 5 11.4142 6.4142 10 7 8.5858 6.4142 8 5 8.5858 3.5858 10 3" fill="black"/><polygon points="6.4142 8.5858 7 10 6.4142 11.4142 5 12 3.5858 11.4142 3 10 3.5858 8.5858 5 8" fill="black"/></svg>