<svg xmlns="http://www.w3.org/2000/svg" width="12" height="12" viewBox="0 0 12 12" fill="none"><polygon points="7.4142 -1.4142 8 0 7.4142 1.4142 6 2 4.5858 1.4142 4 0 4.5858 -1.4142 6 -2" fill="black"/><polygon points="1.4142 4.5858 2 6 1.4142 7.4142 0 8 -1.4142 7.4142 -2 6 -1.4142 4.5858 0 4" fill="black"/><polygon points="13.4142 4.5858 14 6 13.4142 7.4142 12 8 10.5858 7.4142 10 6 10.5858 4.5858 12 4" fill="black"/><polygon points="7.4142 10.5858 8 12 7.4142 13.4142 6 14 4.5858 13.4142 4 12 4.5858 10.5858 6 10" fill="black"/></svg>