<svg xmlns="http://www.w3.org/2000/svg" width="8" height="8" viewBox="0 0 8 8" fill="none"><polygon points="5.4142 -1.4142 6 0 5.4142 1.4142 4 2 2.5858 1.4142 2 0 2.5858 -1.4142 4 -2" fill="black"/><polygon points="1.4142 2.5858 2 4 1.4142 5.4142 0 6 -1.4142 5.4142 -2 4 -1.4142 2.5858 0 2" fill="black"/><polygon points="9.4142 2.5858 10 4 9.4142 5.4142 8 6 6.5858 5.4142 6 4 6.5858 2.5858 8 2" fill="black"/><polygon points="5.4142 6.5858 6 8 5.4142 9.4142 4 10 2.5858 9.4142 2 8 2.5858 6.5858 4 6" fill="black"/></svg>