<svg xmlns="http://www.w3.org/2000/svg" width="14" height="14" viewBox="0 0 14 14" fill="none"><polygon points="13.364 -6.364 16 0 13.364 6.364 7 9 0.636 6.364 -2 0 0.636 -6.364 7 -9" fill="black"/><polygon points="6.364 0.636 9 7 6.364 13.364 0 16 -6.364 13.364 -9 7 -6.364 0.636 0 -2" fill="black"/><polygon points="20.364 0.636 23 7 20.364 13.364 14 16 7.636 13.364 5 7 7.636 0.636 14 -2" fill="black"/><polygon points="13.364 7.636 16 14 13.364 20.364 7 23 0.636 20.364 -2 14 0.636 7.636 7 5" fill="black"/></svg>