<svg xmlns="http://www.w3.org/2000/svg" width="4" height="4" viewBox="0 0 4 4" fill="none"><polygon points="2.7071 -0.7071 3 0 2.7071 0.7071 2 1 1.2929 0.7071 1 0 1.2929 -0.7071 2 -1" fill="black"/><polygon points="0.7071 1.2929 1 2 0.7071 2.7071 0 3 -0.7071 2.7071 -1 2 -0.7071 1.2929 0 1" fill="black"/><polygon points="4.7071 1.2929 5 2 4.7071 2.7071 4 3 3.2929 2.7071 3 2 3.2929 1.2929 4 1" fill="black"/><polygon points="2.7071 3.2929 3 4 2.7071 4.7071 2 5 1.2929 4.7071 1 4 1.2929 3.2929 2 3" fill="black"/></svg>