<svg xmlns="http://www.w3.org/2000/svg" width="9" height="9" viewBox="0 0 9 9" fill="none"><polygon points="5.5607 -1.0607 6 0 5.5607 1.0607 4.5 1.5 3.4393 1.0607 3 0 3.4393 -1.0607 4.5 -1.5" fill="black"/><polygon points="1.0607 3.4393 1.5 4.5 1.0607 5.5607 0 6 -1.0607 5.5607 -1.5 4.5 -1.0607 3.4393 0 3" fill="black"/><polygon points="10.0607 3.4393 10.5 4.5 10.0607 5.5607 9 6 7.9393 5.5607 7.5 4.5 7.9393 3.4393 9 3" fill="black"/><polygon points="5.5607 7.9393 6 9 5.5607 10.0607 4.5 10.5 3.4393 10.0607 3 9 3.4393 7.9393 4.5 7.5" fill="black"/></svg>