<svg xmlns="http://www.w3.org/2000/svg" width="13" height="13" viewBox="0 0 13 13" fill="none"><polygon points="10.7426 -4.2426 12.5 0 10.7426 4.2426 6.5 6 2.2574 4.2426 0.5 0 2.2574 -4.2426 6.5 -6" fill="black"/><polygon points="4.2426 2.2574 6 6.5 4.2426 10.7426 0 12.5 -4.2426 10.7426 -6 6.5 -4.2426 2.2574 0 0.5" fill="black"/><polygon points="17.2426 2.2574 19 6.5 17.2426 10.7426 13 12.5 8.7574 10.7426 7 6.5 8.7574 2.2574 13 0.5" fill="black"/><polygon points="10.7426 8.7574 12.5 13 10.7426 17.2426 6.5 19 2.2574 17.2426 0.5 13 2.2574 8.7574 6.5 7" fill="black"/></svg>