<svg xmlns="http://www.w3.org/2000/svg" width="7" height="7" viewBox="0 0 7 7" fill="none"><polygon points="5.6213 -2.1213 6.5 0 5.6213 2.1213 3.5 3 1.3787 2.1213 0.5 0 1.3787 -2.1213 3.5 -3" fill="black"/><polygon points="2.1213 1.3787 3 3.5 2.1213 5.6213 0 6.5 -2.1213 5.6213 -3 3.5 -2.1213 1.3787 0 0.5" fill="black"/><polygon points="9.1213 1.3787 10 3.5 9.1213 5.6213 7 6.5 4.8787 5.6213 4 3.5 4.8787 1.3787 7 0.5" fill="black"/><polygon points="5.6213 4.8787 6.5 7 5.6213 9.1213 3.5 10 1.3787 9.1213 0.5 7 1.3787 4.8787 3.5 4" fill="black"/></svg>