<svg xmlns="http://www.w3.org/2000/svg" width="5" height="5" viewBox="0 0 5 5" fill="none"><polygon points="4.9749 -2.4749 6 0 4.9749 2.4749 2.5 3.5 0.0251 2.4749 -1 0 0.0251 -2.4749 2.5 -3.5" fill="black"/><polygon points="2.4749 0.0251 3.5 2.5 2.4749 4.9749 0 6 -2.4749 4.9749 -3.5 2.5 -2.4749 0.0251 0 -1" fill="black"/><polygon points="7.4749 0.0251 8.5 2.5 7.4749 4.9749 5 6 2.5251 4.9749 1.5 2.5 2.5251 0.0251 5 -1" fill="black"/><polygon points="4.9749 2.5251 6 5 4.9749 7.4749 2.5 8.5 0.0251 7.4749 -1 5 0.0251 2.5251 2.5 1.5" fill="black"/></svg>