<svg xmlns="http://www.w3.org/2000/svg" width="9" height="9" viewBox="0 0 9 9" fill="none"><polygon points="6.9749 -2.4749 8 0 6.9749 2.4749 4.5 3.5 2.0251 2.4749 1 0 2.0251 -2.4749 4.5 -3.5" fill="black"/><polygon points="2.4749 2.0251 3.5 4.5 2.4749 6.9749 0 8 -2.4749 6.9749 -3.5 4.5 -2.4749 2.0251 0 1" fill="black"/><polygon points="11.4749 2.0251 12.5 4.5 11.4749 6.9749 9 8 6.5251 6.9749 5.5 4.5 6.5251 2.0251 9 1" fill="black"/><polygon points="6.9749 6.5251 8 9 6.9749 11.4749 4.5 12.5 2.0251 11.4749 1 9 2.0251 6.5251 4.5 5.5" fill="black"/></svg>