<svg xmlns="http://www.w3.org/2000/svg" width="11" height="11" viewBox="0 0 11 11" fill="none"><polygon points="10.4497 -4.9497 12.5 0 10.4497 4.9497 5.5 7 0.5503 4.9497 -1.5 0 0.5503 -4.9497 5.5 -7" fill="black"/><polygon points="4.9497 0.5503 7 5.5 4.9497 10.4497 0 12.5 -4.9497 10.4497 -7 5.5 -4.9497 0.5503 0 -1.5" fill="black"/><polygon points="15.9497 0.5503 18 5.5 15.9497 10.4497 11 12.5 6.0503 10.4497 4 5.5 6.0503 0.5503 11 -1.5" fill="black"/><polygon points="10.4497 6.0503 12.5 11 10.4497 15.9497 5.5 18 0.5503 15.9497 -1.5 11 0.5503 6.0503 5.5 4" fill="black"/></svg>