<svg xmlns="http://www.w3.org/2000/svg" width="9" height="9" viewBox="0 0 9 9" fill="none"><polygon points="5.2071 -0.7071 5.5 0 5.2071 0.7071 4.5 1 3.7929 0.7071 3.5 0 3.7929 -0.7071 4.5 -1" fill="black"/><polygon points="0.7071 3.7929 1 4.5 0.7071 5.2071 0 5.5 -0.7071 5.2071 -1 4.5 -0.7071 3.7929 0 3.5" fill="black"/><polygon points="9.7071 3.7929 10 4.5 9.7071 5.2071 9 5.5 8.2929 5.2071 8 4.5 8.2929 3.7929 9 3.5" fill="black"/><polygon points="5.2071 8.2929 5.5 9 5.2071 9.7071 4.5 10 3.7929 9.7071 3.5 9 3.7929 8.2929 4.5 8" fill="black"/></svg>