<svg xmlns="http://www.w3.org/2000/svg" width="7" height="7" viewBox="0 0 7 7" fill="none"><polygon points="4.9142 -1.4142 5.5 0 4.9142 1.4142 3.5 2 2.0858 1.4142 1.5 0 2.0858 -1.4142 3.5 -2" fill="black"/><polygon points="1.4142 2.0858 2 3.5 1.4142 4.9142 0 5.5 -1.4142 4.9142 -2 3.5 -1.4142 2.0858 0 1.5" fill="black"/><polygon points="8.4142 2.0858 9 3.5 8.4142 4.9142 7 5.5 5.5858 4.9142 5 3.5 5.5858 2.0858 7 1.5" fill="black"/><polygon points="4.9142 5.5858 5.5 7 4.9142 8.4142 3.5 9 2.0858 8.4142 1.5 7 2.0858 5.5858 3.5 5" fill="black"/></svg>