<svg xmlns="http://www.w3.org/2000/svg" width="9" height="9" viewBox="0 0 9 9" fill="none"><polygon points="8.3891 -3.8891 10 0 8.3891 3.8891 4.5 5.5 0.6109 3.8891 -1 0 0.6109 -3.8891 4.5 -5.5" fill="black"/><polygon points="3.8891 0.6109 5.5 4.5 3.8891 8.3891 0 10 -3.8891 8.3891 -5.5 4.5 -3.8891 0.6109 0 -1" fill="black"/><polygon points="12.8891 0.6109 14.5 4.5 12.8891 8.3891 9 10 5.1109 8.3891 3.5 4.5 5.1109 0.6109 9 -1" fill="black"/><polygon points="8.3891 5.1109 10 9 8.3891 12.8891 4.5 14.5 0.6109 12.8891 -1 9 0.6109 5.1109 4.5 3.5" fill="black"/></svg>