<svg xmlns="http://www.w3.org/2000/svg" width="11" height="11" viewBox="0 0 11 11" fill="none"><polygon points="6.5607 -1.0607 7 0 6.5607 1.0607 5.5 1.5 4.4393 1.0607 4 0 4.4393 -1.0607 5.5 -1.5" fill="black"/><polygon points="1.0607 4.4393 1.5 5.5 1.0607 6.5607 0 7 -1.0607 6.5607 -1.5 5.5 -1.0607 4.4393 0 4" fill="black"/><polygon points="12.0607 4.4393 12.5 5.5 12.0607 6.5607 11 7 9.9393 6.5607 9.5 5.5 9.9393 4.4393 11 4" fill="black"/><polygon points="6.5607 9.9393 7 11 6.5607 12.0607 5.5 12.5 4.4393 12.0607 4 11 4.4393 9.9393 5.5 9.5" fill="black"/></svg>