<svg xmlns="http://www.w3.org/2000/svg" width="11" height="11" viewBox="0 0 11 11" fill="none"><polygon points="10.0962 -4.5962 12 0 10.0962 4.5962 5.5 6.5 0.9038 4.5962 -1 0 0.9038 -4.5962 5.5 -6.5" fill="black"/><polygon points="4.5962 0.9038 6.5 5.5 4.5962 10.0962 0 12 -4.5962 10.0962 -6.5 5.5 -4.5962 0.9038 0 -1" fill="black"/><polygon points="15.5962 0.9038 17.5 5.5 15.5962 10.0962 11 12 6.4038 10.0962 4.5 5.5 6.4038 0.9038 11 -1" fill="black"/><polygon points="10.0962 6.4038 12 11 10.0962 15.5962 5.5 17.5 0.9038 15.5962 -1 11 0.9038 6.4038 5.5 4.5" fill="black"/></svg>