<svg xmlns="http://www.w3.org/2000/svg" width="5" height="5" viewBox="0 0 5 5" fill="none"><polygon points="4.2678 -1.7678 5 0 4.2678 1.7678 2.5 2.5 0.7322 1.7678 0 0 0.7322 -1.7678 2.5 -2.5" fill="black"/><polygon points="1.7678 0.7322 2.5 2.5 1.7678 4.2678 0 5 -1.7678 4.2678 -2.5 2.5 -1.7678 0.7322 0 0" fill="black"/><polygon points="6.7678 0.7322 7.5 2.5 6.7678 4.2678 5 5 3.2322 4.2678 2.5 2.5 3.2322 0.7322 5 0" fill="black"/><polygon points="4.2678 3.2322 5 5 4.2678 6.7678 2.5 7.5 0.7322 6.7678 0 5 0.7322 3.2322 2.5 2.5" fill="black"/></svg>