<svg xmlns="http://www.w3.org/2000/svg" width="6" height="6" viewBox="0 0 6 6" fill="none"><polygon points="3.7071 -0.7071 4 0 3.7071 0.7071 3 1 2.2929 0.7071 2 0 2.2929 -0.7071 3 -1" fill="black"/><polygon points="0.7071 2.2929 1 3 0.7071 3.7071 0 4 -0.7071 3.7071 -1 3 -0.7071 2.2929 0 2" fill="black"/><polygon points="6.7071 2.2929 7 3 6.7071 3.7071 6 4 5.2929 3.7071 5 3 5.2929 2.2929 6 2" fill="black"/><polygon points="3.7071 5.2929 4 6 3.7071 6.7071 3 7 2.2929 6.7071 2 6 2.2929 5.2929 3 5" fill="black"/></svg>