<svg xmlns="http://www.w3.org/2000/svg" width="8" height="8" viewBox="0 0 8 8" fill="none"><polygon points="8.2426 -4.2426 10 0 8.2426 4.2426 4 6 -0.2426 4.2426 -2 0 -0.2426 -4.2426 4 -6" fill="black"/><polygon points="4.2426 -0.2426 6 4 4.2426 8.2426 0 10 -4.2426 8.2426 -6 4 -4.2426 -0.2426 0 -2" fill="black"/><polygon points="12.2426 -0.2426 14 4 12.2426 8.2426 8 10 3.7574 8.2426 2 4 3.7574 -0.2426 8 -2" fill="black"/><polygon points="8.2426 3.7574 10 8 8.2426 12.2426 4 14 -0.2426 12.2426 -2 8 -0.2426 3.7574 4 2" fill="black"/></svg>