<svg xmlns="http://www.w3.org/2000/svg" width="9" height="9" viewBox="0 0 9 9" fill="none"><polygon points="8.0355 -3.5355 9.5 0 8.0355 3.5355 4.5 5 0.9645 3.5355 -0.5 0 0.9645 -3.5355 4.5 -5" fill="black"/><polygon points="3.5355 0.9645 5 4.5 3.5355 8.0355 0 9.5 -3.5355 8.0355 -5 4.5 -3.5355 0.9645 0 -0.5" fill="black"/><polygon points="12.5355 0.9645 14 4.5 12.5355 8.0355 9 9.5 5.4645 8.0355 4 4.5 5.4645 0.9645 9 -0.5" fill="black"/><polygon points="8.0355 5.4645 9.5 9 8.0355 12.5355 4.5 14 0.9645 12.5355 -0.5 9 0.9645 5.4645 4.5 4" fill="black"/></svg>