<svg xmlns="http://www.w3.org/2000/svg" width="11" height="11" viewBox="0 0 11 11" fill="none"><polygon points="7.9749 -2.4749 9 0 7.9749 2.4749 5.5 3.5 3.0251 2.4749 2 0 3.0251 -2.4749 5.5 -3.5" fill="black"/><polygon points="2.4749 3.0251 3.5 5.5 2.4749 7.9749 0 9 -2.4749 7.9749 -3.5 5.5 -2.4749 3.0251 0 2" fill="black"/><polygon points="13.4749 3.0251 14.5 5.5 13.4749 7.9749 11 9 8.5251 7.9749 7.5 5.5 8.5251 3.0251 11 2" fill="black"/><polygon points="7.9749 8.5251 9 11 7.9749 13.4749 5.5 14.5 3.0251 13.4749 2 11 3.0251 8.5251 5.5 7.5" fill="black"/></svg>