<svg xmlns="http://www.w3.org/2000/svg" width="13" height="13" viewBox="0 0 13 13" fill="none"><polygon points="9.3284 -2.8284 10.5 0 9.3284 2.8284 6.5 4 3.6716 2.8284 2.5 0 3.6716 -2.8284 6.5 -4" fill="black"/><polygon points="2.8284 3.6716 4 6.5 2.8284 9.3284 0 10.5 -2.8284 9.3284 -4 6.5 -2.8284 3.6716 0 2.5" fill="black"/><polygon points="15.8284 3.6716 17 6.5 15.8284 9.3284 13 10.5 10.1716 9.3284 9 6.5 10.1716 3.6716 13 2.5" fill="black"/><polygon points="9.3284 10.1716 10.5 13 9.3284 15.8284 6.5 17 3.6716 15.8284 2.5 13 3.6716 10.1716 6.5 9" fill="black"/></svg>