<svg xmlns="http://www.w3.org/2000/svg" width="14" height="14" viewBox="0 0 14 14" fill="none"><polygon points="11.2426 -4.2426 13 0 11.2426 4.2426 7 6 2.7574 4.2426 1 0 2.7574 -4.2426 7 -6" fill="black"/><polygon points="4.2426 2.7574 6 7 4.2426 11.2426 0 13 -4.2426 11.2426 -6 7 -4.2426 2.7574 0 1" fill="black"/><polygon points="18.2426 2.7574 20 7 18.2426 11.2426 14 13 9.7574 11.2426 8 7 9.7574 2.7574 14 1" fill="black"/><polygon points="11.2426 9.7574 13 14 11.2426 18.2426 7 20 2.7574 18.2426 1 14 2.7574 9.7574 7 8" fill="black"/></svg>