<svg xmlns="http://www.w3.org/2000/svg" viewBox="0 0 1534.32 87.36" role="img" aria-label="ABSTRACT YET FAMILIAR">
  <path d="M16.560 85.680L0 85.680L20.040 1.680L49.800 1.680L69.840 85.680L53.280 85.680L49.200 67.680L20.640 67.680L16.560 85.680ZM33.840 9.600L24 52.560L45.720 52.560L36 9.600L33.840 9.600ZM114 85.680L77.160 85.680L77.160 70.560L85.080 70.560L85.080 16.800L77.160 16.800L77.160 1.680L114 1.680Q126.120 1.680 132.480 7.920Q138.840 14.160 138.840 23.520L138.840 23.520L138.840 24.960Q138.840 32.160 134.820 36.480Q130.800 40.800 124.680 42.480L124.680 42.480L124.680 44.640Q130.800 46.200 134.820 50.700Q138.840 55.200 138.840 62.280L138.840 62.280L138.840 63.720Q138.840 73.200 132.480 79.440Q126.120 85.680 114 85.680L114 85.680ZM100.920 16.800L100.920 36.000L112.440 36.000Q117.480 36.000 120.600 33.840Q123.720 31.680 123.720 26.760L123.720 26.760L123.720 26.040Q123.720 21.120 120.600 18.960Q117.480 16.800 112.440 16.800L112.440 16.800L100.920 16.800ZM100.920 51.120L100.920 70.560L112.440 70.560Q117.480 70.560 120.600 68.340Q123.720 66.120 123.720 61.200L123.720 61.200L123.720 60.480Q123.720 55.560 120.600 53.340Q117.480 51.120 112.440 51.120L112.440 51.120L100.920 51.120ZM183 87.360L183 87.360Q171.960 87.360 164.460 83.340Q156.960 79.320 153.180 72.360Q149.400 65.400 149.400 56.640L149.400 56.640L149.400 53.040L165.240 53.040L165.240 55.920Q165.240 63.480 169.680 67.980Q174.120 72.480 183.240 72.480L183.240 72.480Q190.440 72.480 193.920 69.360Q197.400 66.240 197.400 61.920L197.400 61.920Q197.400 59.160 196.080 56.820Q194.760 54.480 191.280 52.740Q187.800 51.000 181.320 49.920L181.320 49.920Q172.920 48.480 166.380 45.720Q159.840 42.960 156.060 37.980Q152.280 33.000 152.280 24.720L152.280 24.720L152.280 24.000Q152.280 17.160 155.880 11.700Q159.480 6.240 166.020 3.120Q172.560 0 181.320 0L181.320 0Q191.280 0 198.120 3.600Q204.960 7.200 208.500 13.140Q212.040 19.080 212.040 25.920L212.040 25.920L212.040 30.240L196.200 30.240L196.200 27.360Q196.200 22.320 192.300 18.600Q188.400 14.880 181.320 14.880L181.320 14.880Q175.440 14.880 171.900 17.340Q168.360 19.800 168.360 24.000L168.360 24.000Q168.360 28.320 172.140 30.960Q175.920 33.600 186.360 35.520L186.360 35.520Q199.560 37.800 206.520 43.500Q213.480 49.200 213.480 60.240L213.480 60.240L213.480 61.680Q213.480 73.320 205.320 80.340Q197.160 87.360 183 87.360ZM263.160 85.680L247.320 85.680L247.320 16.800L225.000 16.800L225.000 1.680L285.480 1.680L285.480 16.800L263.160 16.800L263.160 85.680ZM316.560 85.680L300.720 85.680L300.720 1.680L332.880 1.680Q341.520 1.680 347.400 4.800Q353.280 7.920 356.280 13.140Q359.280 18.360 359.280 24.840L359.280 24.840L359.280 27.720Q359.280 32.880 356.460 37.380Q353.640 41.880 348 44.280L348 44.280L348 46.440Q352.200 46.920 354.660 49.680Q357.120 52.440 357.120 56.640L357.120 56.640L357.120 85.680L341.280 85.680L341.280 60.480Q341.280 57.600 339.780 55.800Q338.280 54.000 334.800 54.000L334.800 54.000L316.560 54.000L316.560 85.680ZM316.560 16.800L316.560 38.880L331.680 38.880Q337.440 38.880 340.440 36.120Q343.440 33.360 343.440 28.560L343.440 28.560L343.440 27.120Q343.440 22.920 340.440 19.860Q337.440 16.800 331.680 16.800L331.680 16.800L316.560 16.800ZM383.760 85.680L367.200 85.680L387.240 1.680L417 1.680L437.040 85.680L420.480 85.680L416.400 67.680L387.840 67.680L383.760 85.680ZM401.040 9.600L391.200 52.560L412.920 52.560L403.200 9.600L401.040 9.600ZM475.800 87.360L475.800 87.360Q461.400 87.360 453 78.540Q444.600 69.720 444.600 53.040L444.600 53.040L444.600 34.320Q444.600 18.120 453 9.060Q461.400 0 475.800 0L475.800 0Q490.800 0 498.660 8.400Q506.520 16.800 506.520 31.200L506.520 31.200L506.520 33.360L490.680 33.360L490.680 31.200Q490.680 27.240 489.360 23.340Q488.040 19.440 484.800 16.920Q481.560 14.400 475.800 14.400L475.800 14.400Q470.520 14.400 467.100 16.980Q463.680 19.560 462.060 23.820Q460.440 28.080 460.440 33.120L460.440 33.120L460.440 54.240Q460.440 62.400 463.920 67.680Q467.400 72.960 475.800 72.960L475.800 72.960Q481.920 72.960 485.160 70.560Q488.400 68.160 489.540 64.320Q490.680 60.480 490.680 56.160L490.680 56.160L490.680 54.000L506.520 54.000L506.520 56.160Q506.520 71.040 498.660 79.200Q490.800 87.360 475.800 87.360ZM556.920 85.680L541.080 85.680L541.080 16.800L518.760 16.800L518.760 1.680L579.240 1.680L579.240 16.800L556.920 16.800L556.920 85.680ZM703.800 85.680L687.960 85.680L687.960 56.160L684.360 56.160L660.240 1.680L677.520 1.680L694.800 41.760L696.960 41.760L714.240 1.680L731.520 1.680L707.400 56.160L703.800 56.160L703.800 85.680ZM796.920 85.680L742.440 85.680L742.440 1.680L795.480 1.680L795.480 16.800L758.280 16.800L758.280 36.000L794.040 36.000L794.040 51.120L758.280 51.120L758.280 70.560L796.920 70.560L796.920 85.680ZM850.680 85.680L834.840 85.680L834.840 16.800L812.520 16.800L812.520 1.680L873.000 1.680L873.000 16.800L850.680 16.800L850.680 85.680ZM979.320 85.680L963.480 85.680L963.480 1.680L1017.240 1.680L1017.240 16.800L979.320 16.800L979.320 36.000L1016.520 36.000L1016.520 51.120L979.320 51.120L979.320 85.680ZM1044.720 85.680L1028.160 85.680L1048.200 1.680L1077.960 1.680L1098.000 85.680L1081.440 85.680L1077.360 67.680L1048.800 67.680L1044.720 85.680ZM1062.000 9.600L1052.160 52.560L1073.880 52.560L1064.160 9.600L1062.000 9.600ZM1116.840 85.680L1102.440 85.680L1102.440 1.680L1130.280 1.680L1135.080 64.800L1135.080 77.040L1137.960 77.040L1137.960 64.800L1142.760 1.680L1170.600 1.680L1170.600 85.680L1156.200 85.680L1156.200 29.520L1157.640 10.320L1154.760 10.320L1148.520 85.680L1124.760 85.680L1118.280 10.320L1115.400 10.320L1116.840 29.520L1116.840 85.680ZM1238.040 85.680L1181.880 85.680L1181.880 70.560L1202.040 70.560L1202.040 16.800L1181.880 16.800L1181.880 1.680L1238.040 1.680L1238.040 16.800L1217.880 16.800L1217.880 70.560L1238.040 70.560L1238.040 85.680ZM1310.520 85.680L1256.520 85.680L1256.520 1.680L1272.360 1.680L1272.360 70.560L1310.520 70.560L1310.520 85.680ZM1384.920 85.680L1328.760 85.680L1328.760 70.560L1348.920 70.560L1348.920 16.800L1328.760 16.800L1328.760 1.680L1384.920 1.680L1384.920 16.800L1364.760 16.800L1364.760 70.560L1384.920 70.560L1384.920 85.680ZM1411.920 85.680L1395.360 85.680L1415.400 1.680L1445.160 1.680L1465.200 85.680L1448.640 85.680L1444.560 67.680L1416.000 67.680L1411.920 85.680ZM1429.200 9.600L1419.360 52.560L1441.080 52.560L1431.360 9.600L1429.200 9.600ZM1491.600 85.680L1475.760 85.680L1475.760 1.680L1507.920 1.680Q1516.560 1.680 1522.440 4.800Q1528.320 7.920 1531.320 13.140Q1534.320 18.360 1534.320 24.840L1534.320 24.840L1534.320 27.720Q1534.320 32.880 1531.500 37.380Q1528.680 41.880 1523.040 44.280L1523.040 44.280L1523.040 46.440Q1527.240 46.920 1529.700 49.680Q1532.160 52.440 1532.160 56.640L1532.160 56.640L1532.160 85.680L1516.320 85.680L1516.320 60.480Q1516.320 57.600 1514.820 55.800Q1513.320 54.000 1509.840 54.000L1509.840 54.000L1491.600 54.000L1491.600 85.680ZM1491.600 16.800L1491.600 38.880L1506.720 38.880Q1512.480 38.880 1515.480 36.120Q1518.480 33.360 1518.480 28.560L1518.480 28.560L1518.480 27.120Q1518.480 22.920 1515.480 19.860Q1512.480 16.800 1506.720 16.800L1506.720 16.800L1491.600 16.800Z" fill="currentColor" />
</svg>
