<svg xmlns="http://www.w3.org/2000/svg" viewBox="0 0 354.84 85.68" role="img" aria-label="Atmos">
  <path d="M16.560 84L0 84L20.040 0L49.800 0L69.840 84L53.280 84L49.200 66L20.640 66L16.560 84ZM33.840 7.920L24 50.880L45.720 50.880L36 7.920L33.840 7.920ZM131.400 84L106.200 84Q102.120 84 99.540 81.360Q96.960 78.720 96.960 74.640L96.960 74.640L96.960 38.880L79.320 38.880L79.320 24.480L96.960 24.480L96.960 0L112.080 0L112.080 24.480L133.560 24.480L133.560 38.880L112.080 38.880L112.080 66Q112.080 69.600 115.320 69.600L115.320 69.600L131.400 69.600L131.400 84ZM164.520 84L149.400 84L149.400 24.480L164.520 24.480L164.520 30.240L166.680 30.240Q167.400 27 170.040 24.900Q172.680 22.800 176.760 22.800L176.760 22.800Q180.720 22.800 183.540 24.900Q186.360 27 187.200 30.240L187.200 30.240L189.360 30.240Q190.320 27 193.440 24.900Q196.560 22.800 201.000 22.800L201.000 22.800Q207.000 22.800 210.600 26.820Q214.200 30.840 214.200 37.920L214.200 37.920L214.200 84L199.080 84L199.080 42.240Q199.080 39.720 197.820 38.460Q196.560 37.200 194.520 37.200L194.520 37.200Q192.240 37.200 190.800 38.640Q189.360 40.080 189.360 42.960L189.360 42.960L189.360 84L174.240 84L174.240 42.240Q174.240 39.720 172.860 38.460Q171.480 37.200 169.560 37.200L169.560 37.200Q167.400 37.200 165.960 38.640Q164.520 40.080 164.520 42.960L164.520 42.960L164.520 84ZM255.240 85.680L255.240 85.680Q247.080 85.680 240.000 82.080Q232.920 78.480 228.600 71.640Q224.280 64.800 224.280 54.960L224.280 54.960L224.280 53.520Q224.280 43.800 228.600 36.900Q232.920 30 240.000 26.400Q247.080 22.800 255.240 22.800L255.240 22.800Q263.400 22.800 270.480 26.400Q277.560 30 281.880 36.900Q286.200 43.800 286.200 53.520L286.200 53.520L286.200 54.960Q286.200 64.800 281.880 71.640Q277.560 78.480 270.480 82.080Q263.400 85.680 255.240 85.680ZM255.240 71.280L255.240 71.280Q261.840 71.280 266.460 67.020Q271.080 62.760 271.080 55.440L271.080 55.440L271.080 53.040Q271.080 45.600 266.460 41.400Q261.840 37.200 255.240 37.200L255.240 37.200Q248.640 37.200 244.020 41.400Q239.400 45.600 239.400 53.040L239.400 53.040L239.400 55.440Q239.400 62.760 244.020 67.020Q248.640 71.280 255.240 71.280ZM330.120 85.680L330.120 85.680Q320.880 85.680 315.180 82.680Q309.480 79.680 306.540 75.360Q303.600 71.040 302.760 66.960L302.760 66.960L316.680 62.400Q317.640 66.120 320.760 69.060Q323.880 72 330.120 72L330.120 72Q335.760 72 337.860 70.260Q339.960 68.520 339.960 66.480L339.960 66.480Q339.960 64.080 337.440 62.280Q334.920 60.480 327.360 59.880L327.360 59.880Q317.400 59.040 311.400 54.600Q305.400 50.160 305.400 41.760L305.400 41.760L305.400 41.040Q305.400 35.160 308.640 31.080Q311.880 27 317.040 24.900Q322.200 22.800 327.960 22.800L327.960 22.800Q335.520 22.800 340.440 25.140Q345.360 27.480 348.180 30.960Q351 34.440 352.200 37.920L352.200 37.920L338.520 43.440Q337.440 40.200 334.800 38.340Q332.160 36.480 327.960 36.480L327.960 36.480Q324.240 36.480 322.260 37.860Q320.280 39.240 320.280 41.280L320.280 41.280Q320.280 44.160 323.280 45.360Q326.280 46.560 334.200 47.520L334.200 47.520Q343.320 48.480 349.080 52.980Q354.840 57.480 354.840 65.520L354.840 65.520L354.840 66.240Q354.840 75 348.360 80.340Q341.880 85.680 330.120 85.680Z" fill="#000000" />
</svg>
