<svg xmlns="http://www.w3.org/2000/svg" viewBox="0 0 870.72 87.36" role="img" aria-label="BIG OL BEATS">
  <path d="M36.840 85.680L0 85.680L0 70.560L7.920 70.560L7.920 16.800L0 16.800L0 1.680L36.840 1.680Q48.960 1.680 55.320 7.920Q61.680 14.160 61.680 23.520L61.680 23.520L61.680 24.960Q61.680 32.160 57.660 36.480Q53.640 40.800 47.520 42.480L47.520 42.480L47.520 44.640Q53.640 46.200 57.660 50.700Q61.680 55.200 61.680 62.280L61.680 62.280L61.680 63.720Q61.680 73.200 55.320 79.440Q48.960 85.680 36.840 85.680L36.840 85.680ZM23.760 16.800L23.760 36.000L35.280 36.000Q40.320 36.000 43.440 33.840Q46.560 31.680 46.560 26.760L46.560 26.760L46.560 26.040Q46.560 21.120 43.440 18.960Q40.320 16.800 35.280 16.800L35.280 16.800L23.760 16.800ZM23.760 51.120L23.760 70.560L35.280 70.560Q40.320 70.560 43.440 68.340Q46.560 66.120 46.560 61.200L46.560 61.200L46.560 60.480Q46.560 55.560 43.440 53.340Q40.320 51.120 35.280 51.120L35.280 51.120L23.760 51.120ZM132.720 85.680L76.560 85.680L76.560 70.560L96.720 70.560L96.720 16.800L76.560 16.800L76.560 1.680L132.720 1.680L132.720 16.800L112.560 16.800L112.560 70.560L132.720 70.560L132.720 85.680ZM174.240 87.360L174.240 87.360Q166.560 87.360 160.320 83.580Q154.080 79.800 150.360 72.240Q146.640 64.680 146.640 53.520L146.640 53.520L146.640 33.840Q146.640 22.920 150.660 15.360Q154.680 7.800 161.760 3.900Q168.840 0 178.080 0L178.080 0Q187.680 0 194.520 4.080Q201.360 8.160 204.960 15.060Q208.560 21.960 208.560 30.480L208.560 30.480L208.560 31.920L192.720 31.920L192.720 30.480Q192.720 22.920 188.820 19.020Q184.920 15.120 177.840 15.120L177.840 15.120Q171.240 15.120 166.860 19.560Q162.480 24.000 162.480 35.040L162.480 35.040L162.480 52.800Q162.480 72.240 178.320 72.240L178.320 72.240Q185.400 72.240 189.060 68.400Q192.720 64.560 192.720 58.320L192.720 58.320L172.560 58.320L172.560 43.200L208.560 43.200L208.560 85.680L194.160 85.680L194.160 76.320L192.000 76.320Q190.560 81 186.480 84.180Q182.400 87.360 174.240 87.360ZM324.960 87.360L324.960 87.360Q310.560 87.360 302.280 78.540Q294 69.720 294 53.040L294 53.040L294 34.320Q294 18.120 302.280 9.060Q310.560 0 324.960 0L324.960 0Q339.360 0 347.640 9.060Q355.920 18.120 355.920 34.320L355.920 34.320L355.920 53.040Q355.920 69.720 347.640 78.540Q339.360 87.360 324.960 87.360ZM324.960 72.960L324.960 72.960Q333.600 72.960 336.840 67.680Q340.080 62.400 340.080 54.000L340.080 54.000L340.080 33.360Q340.080 28.080 338.520 23.760Q336.960 19.440 333.660 16.920Q330.360 14.400 324.960 14.400L324.960 14.400Q319.560 14.400 316.200 16.920Q312.840 19.440 311.340 23.760Q309.840 28.080 309.840 33.360L309.840 33.360L309.840 54.000Q309.840 62.400 313.080 67.680Q316.320 72.960 324.960 72.960ZM425.520 85.680L371.520 85.680L371.520 1.680L387.360 1.680L387.360 70.560L425.520 70.560L425.520 85.680ZM550.920 85.680L514.080 85.680L514.080 70.560L522 70.560L522 16.800L514.080 16.800L514.080 1.680L550.920 1.680Q563.040 1.680 569.400 7.920Q575.760 14.160 575.760 23.520L575.760 23.520L575.760 24.960Q575.760 32.160 571.740 36.480Q567.720 40.800 561.600 42.480L561.600 42.480L561.600 44.640Q567.720 46.200 571.740 50.700Q575.760 55.200 575.760 62.280L575.760 62.280L575.760 63.720Q575.760 73.200 569.400 79.440Q563.040 85.680 550.920 85.680L550.920 85.680ZM537.840 16.800L537.840 36.000L549.360 36.000Q554.400 36.000 557.520 33.840Q560.640 31.680 560.640 26.760L560.640 26.760L560.640 26.040Q560.640 21.120 557.520 18.960Q554.400 16.800 549.360 16.800L549.360 16.800L537.840 16.800ZM537.840 51.120L537.840 70.560L549.360 70.560Q554.400 70.560 557.520 68.340Q560.640 66.120 560.640 61.200L560.640 61.200L560.640 60.480Q560.640 55.560 557.520 53.340Q554.400 51.120 549.360 51.120L549.360 51.120L537.840 51.120ZM646.320 85.680L591.840 85.680L591.840 1.680L644.880 1.680L644.880 16.800L607.680 16.800L607.680 36.000L643.440 36.000L643.440 51.120L607.680 51.120L607.680 70.560L646.320 70.560L646.320 85.680ZM673.800 85.680L657.240 85.680L677.280 1.680L707.040 1.680L727.080 85.680L710.520 85.680L706.440 67.680L677.880 67.680L673.800 85.680ZM691.080 9.600L681.240 52.560L702.960 52.560L693.240 9.600L691.080 9.600ZM773.520 85.680L757.680 85.680L757.680 16.800L735.360 16.800L735.360 1.680L795.840 1.680L795.840 16.800L773.520 16.800L773.520 85.680ZM840.240 87.360L840.240 87.360Q829.200 87.360 821.700 83.340Q814.200 79.320 810.420 72.360Q806.640 65.400 806.640 56.640L806.640 56.640L806.640 53.040L822.480 53.040L822.480 55.920Q822.480 63.480 826.920 67.980Q831.360 72.480 840.480 72.480L840.480 72.480Q847.680 72.480 851.160 69.360Q854.640 66.240 854.640 61.920L854.640 61.920Q854.640 59.160 853.320 56.820Q852.000 54.480 848.520 52.740Q845.040 51.000 838.560 49.920L838.560 49.920Q830.160 48.480 823.620 45.720Q817.080 42.960 813.300 37.980Q809.520 33.000 809.520 24.720L809.520 24.720L809.520 24.000Q809.520 17.160 813.120 11.700Q816.720 6.240 823.260 3.120Q829.800 0 838.560 0L838.560 0Q848.520 0 855.360 3.600Q862.200 7.200 865.740 13.140Q869.280 19.080 869.280 25.920L869.280 25.920L869.280 30.240L853.440 30.240L853.440 27.360Q853.440 22.320 849.540 18.600Q845.640 14.880 838.560 14.880L838.560 14.880Q832.680 14.880 829.140 17.340Q825.600 19.800 825.600 24.000L825.600 24.000Q825.600 28.320 829.380 30.960Q833.160 33.600 843.600 35.520L843.600 35.520Q856.800 37.800 863.760 43.500Q870.720 49.200 870.720 60.240L870.720 60.240L870.720 61.680Q870.720 73.320 862.560 80.340Q854.400 87.360 840.240 87.360Z" fill="currentColor" />
</svg>
