<svg xmlns="http://www.w3.org/2000/svg" viewBox="0 0 1530.36 87.36" role="img" aria-label="CLASSIC SUNDAY DINNER">
  <path d="M31.200 87.360L31.200 87.360Q16.800 87.360 8.400 78.540Q0 69.720 0 53.040L0 53.040L0 34.320Q0 18.120 8.400 9.060Q16.800 0 31.200 0L31.200 0Q46.200 0 54.060 8.400Q61.920 16.800 61.920 31.200L61.920 31.200L61.920 33.360L46.080 33.360L46.080 31.200Q46.080 27.240 44.760 23.340Q43.440 19.440 40.200 16.920Q36.960 14.400 31.200 14.400L31.200 14.400Q25.920 14.400 22.500 16.980Q19.080 19.560 17.460 23.820Q15.840 28.080 15.840 33.120L15.840 33.120L15.840 54.240Q15.840 62.400 19.320 67.680Q22.800 72.960 31.200 72.960L31.200 72.960Q37.320 72.960 40.560 70.560Q43.800 68.160 44.940 64.320Q46.080 60.480 46.080 56.160L46.080 56.160L46.080 54.000L61.920 54.000L61.920 56.160Q61.920 71.040 54.060 79.200Q46.200 87.360 31.200 87.360ZM131.520 85.680L77.520 85.680L77.520 1.680L93.360 1.680L93.360 70.560L131.520 70.560L131.520 85.680ZM159.480 85.680L142.920 85.680L162.960 1.680L192.720 1.680L212.760 85.680L196.200 85.680L192.120 67.680L163.560 67.680L159.480 85.680ZM176.760 9.600L166.920 52.560L188.640 52.560L178.920 9.600L176.760 9.600ZM252.480 87.360L252.480 87.360Q241.440 87.360 233.940 83.340Q226.440 79.320 222.660 72.360Q218.880 65.400 218.880 56.640L218.880 56.640L218.880 53.040L234.720 53.040L234.720 55.920Q234.720 63.480 239.160 67.980Q243.600 72.480 252.720 72.480L252.720 72.480Q259.920 72.480 263.400 69.360Q266.880 66.240 266.880 61.920L266.880 61.920Q266.880 59.160 265.560 56.820Q264.240 54.480 260.760 52.740Q257.280 51.000 250.800 49.920L250.800 49.920Q242.400 48.480 235.860 45.720Q229.320 42.960 225.540 37.980Q221.760 33.000 221.760 24.720L221.760 24.720L221.760 24.000Q221.760 17.160 225.360 11.700Q228.960 6.240 235.500 3.120Q242.040 0 250.800 0L250.800 0Q260.760 0 267.600 3.600Q274.440 7.200 277.980 13.140Q281.520 19.080 281.520 25.920L281.520 25.920L281.520 30.240L265.680 30.240L265.680 27.360Q265.680 22.320 261.780 18.600Q257.880 14.880 250.800 14.880L250.800 14.880Q244.920 14.880 241.380 17.340Q237.840 19.800 237.840 24.000L237.840 24.000Q237.840 28.320 241.620 30.960Q245.400 33.600 255.840 35.520L255.840 35.520Q269.040 37.800 276 43.500Q282.960 49.200 282.960 60.240L282.960 60.240L282.960 61.680Q282.960 73.320 274.800 80.340Q266.640 87.360 252.480 87.360ZM325.920 87.360L325.920 87.360Q314.880 87.360 307.380 83.340Q299.880 79.320 296.100 72.360Q292.320 65.400 292.320 56.640L292.320 56.640L292.320 53.040L308.160 53.040L308.160 55.920Q308.160 63.480 312.600 67.980Q317.040 72.480 326.160 72.480L326.160 72.480Q333.360 72.480 336.840 69.360Q340.320 66.240 340.320 61.920L340.320 61.920Q340.320 59.160 339 56.820Q337.680 54.480 334.200 52.740Q330.720 51.000 324.240 49.920L324.240 49.920Q315.840 48.480 309.300 45.720Q302.760 42.960 298.980 37.980Q295.200 33.000 295.200 24.720L295.200 24.720L295.200 24.000Q295.200 17.160 298.800 11.700Q302.400 6.240 308.940 3.120Q315.480 0 324.240 0L324.240 0Q334.200 0 341.040 3.600Q347.880 7.200 351.420 13.140Q354.960 19.080 354.960 25.920L354.960 25.920L354.960 30.240L339.120 30.240L339.120 27.360Q339.120 22.320 335.220 18.600Q331.320 14.880 324.240 14.880L324.240 14.880Q318.360 14.880 314.820 17.340Q311.280 19.800 311.280 24.000L311.280 24.000Q311.280 28.320 315.060 30.960Q318.840 33.600 329.280 35.520L329.280 35.520Q342.480 37.800 349.440 43.500Q356.400 49.200 356.400 60.240L356.400 60.240L356.400 61.680Q356.400 73.320 348.240 80.340Q340.080 87.360 325.920 87.360ZM426.240 85.680L370.080 85.680L370.080 70.560L390.240 70.560L390.240 16.800L370.080 16.800L370.080 1.680L426.240 1.680L426.240 16.800L406.080 16.800L406.080 70.560L426.240 70.560L426.240 85.680ZM471.840 87.360L471.840 87.360Q457.440 87.360 449.040 78.540Q440.640 69.720 440.640 53.040L440.640 53.040L440.640 34.320Q440.640 18.120 449.040 9.060Q457.440 0 471.840 0L471.840 0Q486.840 0 494.700 8.400Q502.560 16.800 502.560 31.200L502.560 31.200L502.560 33.360L486.720 33.360L486.720 31.200Q486.720 27.240 485.400 23.340Q484.080 19.440 480.840 16.920Q477.600 14.400 471.840 14.400L471.840 14.400Q466.560 14.400 463.140 16.980Q459.720 19.560 458.100 23.820Q456.480 28.080 456.480 33.120L456.480 33.120L456.480 54.240Q456.480 62.400 459.960 67.680Q463.440 72.960 471.840 72.960L471.840 72.960Q477.960 72.960 481.200 70.560Q484.440 68.160 485.580 64.320Q486.720 60.480 486.720 56.160L486.720 56.160L486.720 54.000L502.560 54.000L502.560 56.160Q502.560 71.040 494.700 79.200Q486.840 87.360 471.840 87.360ZM619.680 87.360L619.680 87.360Q608.640 87.360 601.140 83.340Q593.640 79.320 589.860 72.360Q586.080 65.400 586.080 56.640L586.080 56.640L586.080 53.040L601.920 53.040L601.920 55.920Q601.920 63.480 606.360 67.980Q610.800 72.480 619.920 72.480L619.920 72.480Q627.120 72.480 630.600 69.360Q634.080 66.240 634.080 61.920L634.080 61.920Q634.080 59.160 632.760 56.820Q631.440 54.480 627.960 52.740Q624.480 51.000 618 49.920L618 49.920Q609.600 48.480 603.060 45.720Q596.520 42.960 592.740 37.980Q588.960 33.000 588.960 24.720L588.960 24.720L588.960 24.000Q588.960 17.160 592.560 11.700Q596.160 6.240 602.700 3.120Q609.240 0 618 0L618 0Q627.960 0 634.800 3.600Q641.640 7.200 645.180 13.140Q648.720 19.080 648.720 25.920L648.720 25.920L648.720 30.240L632.880 30.240L632.880 27.360Q632.880 22.320 628.980 18.600Q625.080 14.880 618 14.880L618 14.880Q612.120 14.880 608.580 17.340Q605.040 19.800 605.040 24.000L605.040 24.000Q605.040 28.320 608.820 30.960Q612.600 33.600 623.040 35.520L623.040 35.520Q636.240 37.800 643.200 43.500Q650.160 49.200 650.160 60.240L650.160 60.240L650.160 61.680Q650.160 73.320 642 80.340Q633.840 87.360 619.680 87.360ZM691.920 87.360L691.920 87.360Q677.040 87.360 669.360 79.140Q661.680 70.920 661.680 56.640L661.680 56.640L661.680 1.680L677.520 1.680L677.520 56.640Q677.520 63.960 681.060 68.220Q684.600 72.480 691.920 72.480L691.920 72.480Q699.360 72.480 702.840 68.220Q706.320 63.960 706.320 56.640L706.320 56.640L706.320 1.680L722.160 1.680L722.160 56.640Q722.160 70.920 714.540 79.140Q706.920 87.360 691.920 87.360ZM751.800 85.680L735.960 85.680L735.960 1.680L766.920 1.680L776.760 77.760L778.920 77.760L778.920 1.680L794.760 1.680L794.760 85.680L763.800 85.680L753.960 9.600L751.800 9.600L751.800 85.680ZM838.080 85.680L807.600 85.680L807.600 70.440L815.520 70.440L815.520 16.800L807.600 16.800L807.600 1.680L838.080 1.680Q853.560 1.680 861.180 9Q868.800 16.320 868.800 31.440L868.800 31.440L868.800 55.920Q868.800 71.040 861.180 78.360Q853.560 85.680 838.080 85.680L838.080 85.680ZM831.360 16.800L831.360 70.560L838.080 70.560Q846.360 70.560 849.660 66.660Q852.960 62.760 852.960 54.480L852.960 54.480L852.960 31.440Q852.960 24.240 849.660 20.520Q846.360 16.800 838.080 16.800L838.080 16.800L831.360 16.800ZM893.880 85.680L877.320 85.680L897.360 1.680L927.120 1.680L947.160 85.680L930.600 85.680L926.520 67.680L897.960 67.680L893.880 85.680ZM911.160 9.600L901.320 52.560L923.040 52.560L913.320 9.600L911.160 9.600ZM993.600 85.680L977.760 85.680L977.760 56.160L974.160 56.160L950.040 1.680L967.320 1.680L984.600 41.760L986.760 41.760L1004.040 1.680L1021.320 1.680L997.200 56.160L993.600 56.160L993.600 85.680ZM1131.840 85.680L1101.360 85.680L1101.360 70.440L1109.280 70.440L1109.280 16.800L1101.360 16.800L1101.360 1.680L1131.840 1.680Q1147.320 1.680 1154.940 9Q1162.560 16.320 1162.560 31.440L1162.560 31.440L1162.560 55.920Q1162.560 71.040 1154.940 78.360Q1147.320 85.680 1131.840 85.680L1131.840 85.680ZM1125.120 16.800L1125.120 70.560L1131.840 70.560Q1140.120 70.560 1143.420 66.660Q1146.720 62.760 1146.720 54.480L1146.720 54.480L1146.720 31.440Q1146.720 24.240 1143.420 20.520Q1140.120 16.800 1131.840 16.800L1131.840 16.800L1125.120 16.800ZM1234.080 85.680L1177.920 85.680L1177.920 70.560L1198.080 70.560L1198.080 16.800L1177.920 16.800L1177.920 1.680L1234.080 1.680L1234.080 16.800L1213.920 16.800L1213.920 70.560L1234.080 70.560L1234.080 85.680ZM1265.880 85.680L1250.040 85.680L1250.040 1.680L1281.000 1.680L1290.840 77.760L1293.000 77.760L1293.000 1.680L1308.840 1.680L1308.840 85.680L1277.880 85.680L1268.040 9.600L1265.880 9.600L1265.880 85.680ZM1339.320 85.680L1323.480 85.680L1323.480 1.680L1354.440 1.680L1364.280 77.760L1366.440 77.760L1366.440 1.680L1382.280 1.680L1382.280 85.680L1351.320 85.680L1341.480 9.600L1339.320 9.600L1339.320 85.680ZM1453.920 85.680L1399.440 85.680L1399.440 1.680L1452.480 1.680L1452.480 16.800L1415.280 16.800L1415.280 36.000L1451.040 36.000L1451.040 51.120L1415.280 51.120L1415.280 70.560L1453.920 70.560L1453.920 85.680ZM1487.640 85.680L1471.800 85.680L1471.800 1.680L1503.960 1.680Q1512.600 1.680 1518.480 4.800Q1524.360 7.920 1527.360 13.140Q1530.360 18.360 1530.360 24.840L1530.360 24.840L1530.360 27.720Q1530.360 32.880 1527.540 37.380Q1524.720 41.880 1519.080 44.280L1519.080 44.280L1519.080 46.440Q1523.280 46.920 1525.740 49.680Q1528.200 52.440 1528.200 56.640L1528.200 56.640L1528.200 85.680L1512.360 85.680L1512.360 60.480Q1512.360 57.600 1510.860 55.800Q1509.360 54.000 1505.880 54.000L1505.880 54.000L1487.640 54.000L1487.640 85.680ZM1487.640 16.800L1487.640 38.880L1502.760 38.880Q1508.520 38.880 1511.520 36.120Q1514.520 33.360 1514.520 28.560L1514.520 28.560L1514.520 27.120Q1514.520 22.920 1511.520 19.860Q1508.520 16.800 1502.760 16.800L1502.760 16.800L1487.640 16.800Z" fill="currentColor" />
</svg>
