<svg xmlns="http://www.w3.org/2000/svg" viewBox="0 0 351.12 85.68" role="img" aria-label="Drums">
  <path d="M30.480 84L0 84L0 68.760L7.920 68.760L7.920 15.120L0 15.120L0 0L30.480 0Q45.960 0 53.580 7.320Q61.200 14.640 61.200 29.760L61.200 29.760L61.200 54.240Q61.200 69.360 53.580 76.680Q45.960 84 30.480 84L30.480 84ZM23.760 15.120L23.760 68.880L30.480 68.880Q38.760 68.880 42.060 64.980Q45.360 61.080 45.360 52.800L45.360 52.800L45.360 29.760Q45.360 22.560 42.060 18.840Q38.760 15.120 30.480 15.120L30.480 15.120L23.760 15.120ZM114 84L72.960 84L72.960 69.600L85.200 69.600L85.200 38.880L74.400 38.880L74.400 24.480L99.600 24.480L99.600 33.120L101.760 33.120Q103.440 28.200 107.520 25.500Q111.600 22.800 117.120 22.800L117.120 22.800Q126.000 22.800 131.400 28.380Q136.800 33.960 136.800 45.360L136.800 45.360L136.800 48L121.200 49.440L121.200 47.760Q121.200 42.840 118.680 39.900Q116.160 36.960 111.120 36.960L111.120 36.960Q106.080 36.960 103.200 40.440Q100.320 43.920 100.320 50.400L100.320 50.400L100.320 69.600L114 69.600L114 84ZM171.840 85.680L171.840 85.680Q165.960 85.680 161.160 83.100Q156.360 80.520 153.540 75.180Q150.720 69.840 150.720 61.680L150.720 61.680L150.720 24.480L165.840 24.480L165.840 58.560Q165.840 64.800 168.900 68.400Q171.960 72 177.840 72L177.840 72Q184.680 72 187.860 67.620Q191.040 63.240 191.040 55.680L191.040 55.680L191.040 24.480L206.160 24.480L206.160 84L191.040 84L191.040 75.360L188.880 75.360Q184.920 85.680 171.840 85.680ZM234.240 84L219.120 84L219.120 24.480L234.240 24.480L234.240 30.240L236.400 30.240Q237.120 27 239.760 24.900Q242.400 22.800 246.480 22.800L246.480 22.800Q250.440 22.800 253.260 24.900Q256.080 27 256.920 30.240L256.920 30.240L259.080 30.240Q260.040 27 263.160 24.900Q266.280 22.800 270.720 22.800L270.720 22.800Q276.720 22.800 280.320 26.820Q283.920 30.840 283.920 37.920L283.920 37.920L283.920 84L268.800 84L268.800 42.240Q268.800 39.720 267.540 38.460Q266.280 37.200 264.240 37.200L264.240 37.200Q261.960 37.200 260.520 38.640Q259.080 40.080 259.080 42.960L259.080 42.960L259.080 84L243.960 84L243.960 42.240Q243.960 39.720 242.580 38.460Q241.200 37.200 239.280 37.200L239.280 37.200Q237.120 37.200 235.680 38.640Q234.240 40.080 234.240 42.960L234.240 42.960L234.240 84ZM326.400 85.680L326.400 85.680Q317.160 85.680 311.460 82.680Q305.760 79.680 302.820 75.360Q299.880 71.040 299.040 66.960L299.040 66.960L312.960 62.400Q313.920 66.120 317.040 69.060Q320.160 72 326.400 72L326.400 72Q332.040 72 334.140 70.260Q336.240 68.520 336.240 66.480L336.240 66.480Q336.240 64.080 333.720 62.280Q331.200 60.480 323.640 59.880L323.640 59.880Q313.680 59.040 307.680 54.600Q301.680 50.160 301.680 41.760L301.680 41.760L301.680 41.040Q301.680 35.160 304.920 31.080Q308.160 27 313.320 24.900Q318.480 22.800 324.240 22.800L324.240 22.800Q331.800 22.800 336.720 25.140Q341.640 27.480 344.460 30.960Q347.280 34.440 348.480 37.920L348.480 37.920L334.800 43.440Q333.720 40.200 331.080 38.340Q328.440 36.480 324.240 36.480L324.240 36.480Q320.520 36.480 318.540 37.860Q316.560 39.240 316.560 41.280L316.560 41.280Q316.560 44.160 319.560 45.360Q322.560 46.560 330.480 47.520L330.480 47.520Q339.600 48.480 345.360 52.980Q351.120 57.480 351.120 65.520L351.120 65.520L351.120 66.240Q351.120 75 344.640 80.340Q338.160 85.680 326.400 85.680Z" fill="#000000" />
</svg>
