<svg xmlns="http://www.w3.org/2000/svg" viewBox="0 0 716.52 87.36" role="img" aria-label="FARM-FRESH">
  <path d="M15.840 85.680L0 85.680L0 1.680L53.760 1.680L53.760 16.800L15.840 16.800L15.840 36.000L53.040 36.000L53.040 51.120L15.840 51.120L15.840 85.680ZM81.240 85.680L64.680 85.680L84.720 1.680L114.480 1.680L134.520 85.680L117.960 85.680L113.880 67.680L85.320 67.680L81.240 85.680ZM98.520 9.600L88.680 52.560L110.400 52.560L100.680 9.600L98.520 9.600ZM160.920 85.680L145.080 85.680L145.080 1.680L177.240 1.680Q185.880 1.680 191.760 4.800Q197.640 7.920 200.640 13.140Q203.640 18.360 203.640 24.840L203.640 24.840L203.640 27.720Q203.640 32.880 200.820 37.380Q198 41.880 192.360 44.280L192.360 44.280L192.360 46.440Q196.560 46.920 199.020 49.680Q201.480 52.440 201.480 56.640L201.480 56.640L201.480 85.680L185.640 85.680L185.640 60.480Q185.640 57.600 184.140 55.800Q182.640 54.000 179.160 54.000L179.160 54.000L160.920 54.000L160.920 85.680ZM160.920 16.800L160.920 38.880L176.040 38.880Q181.800 38.880 184.800 36.120Q187.800 33.360 187.800 28.560L187.800 28.560L187.800 27.120Q187.800 22.920 184.800 19.860Q181.800 16.800 176.040 16.800L176.040 16.800L160.920 16.800ZM226.800 85.680L212.400 85.680L212.400 1.680L240.240 1.680L245.040 64.800L245.040 77.040L247.920 77.040L247.920 64.800L252.720 1.680L280.560 1.680L280.560 85.680L266.160 85.680L266.160 29.520L267.600 10.320L264.720 10.320L258.480 85.680L234.720 85.680L228.240 10.320L225.360 10.320L226.800 29.520L226.800 85.680ZM338.640 59.520L301.200 59.520L301.200 45.840L338.640 45.840L338.640 59.520ZM383.040 85.680L367.200 85.680L367.200 1.680L420.960 1.680L420.960 16.800L383.040 16.800L383.040 36.000L420.240 36.000L420.240 51.120L383.040 51.120L383.040 85.680ZM454.680 85.680L438.840 85.680L438.840 1.680L471 1.680Q479.640 1.680 485.520 4.800Q491.400 7.920 494.400 13.140Q497.400 18.360 497.400 24.840L497.400 24.840L497.400 27.720Q497.400 32.880 494.580 37.380Q491.760 41.880 486.120 44.280L486.120 44.280L486.120 46.440Q490.320 46.920 492.780 49.680Q495.240 52.440 495.240 56.640L495.240 56.640L495.240 85.680L479.400 85.680L479.400 60.480Q479.400 57.600 477.900 55.800Q476.400 54.000 472.920 54.000L472.920 54.000L454.680 54.000L454.680 85.680ZM454.680 16.800L454.680 38.880L469.800 38.880Q475.560 38.880 478.560 36.120Q481.560 33.360 481.560 28.560L481.560 28.560L481.560 27.120Q481.560 22.920 478.560 19.860Q475.560 16.800 469.800 16.800L469.800 16.800L454.680 16.800ZM567.840 85.680L513.360 85.680L513.360 1.680L566.400 1.680L566.400 16.800L529.200 16.800L529.200 36.000L564.960 36.000L564.960 51.120L529.200 51.120L529.200 70.560L567.840 70.560L567.840 85.680ZM614.880 87.360L614.880 87.360Q603.840 87.360 596.340 83.340Q588.840 79.320 585.060 72.360Q581.280 65.400 581.280 56.640L581.280 56.640L581.280 53.040L597.120 53.040L597.120 55.920Q597.120 63.480 601.560 67.980Q606 72.480 615.120 72.480L615.120 72.480Q622.320 72.480 625.800 69.360Q629.280 66.240 629.280 61.920L629.280 61.920Q629.280 59.160 627.960 56.820Q626.640 54.480 623.160 52.740Q619.680 51.000 613.200 49.920L613.200 49.920Q604.800 48.480 598.260 45.720Q591.720 42.960 587.940 37.980Q584.160 33.000 584.160 24.720L584.160 24.720L584.160 24.000Q584.160 17.160 587.760 11.700Q591.360 6.240 597.900 3.120Q604.440 0 613.200 0L613.200 0Q623.160 0 630 3.600Q636.840 7.200 640.380 13.140Q643.920 19.080 643.920 25.920L643.920 25.920L643.920 30.240L628.080 30.240L628.080 27.360Q628.080 22.320 624.180 18.600Q620.280 14.880 613.200 14.880L613.200 14.880Q607.320 14.880 603.780 17.340Q600.240 19.800 600.240 24.000L600.240 24.000Q600.240 28.320 604.020 30.960Q607.800 33.600 618.240 35.520L618.240 35.520Q631.440 37.800 638.400 43.500Q645.360 49.200 645.360 60.240L645.360 60.240L645.360 61.680Q645.360 73.320 637.200 80.340Q629.040 87.360 614.880 87.360ZM673.560 85.680L657.720 85.680L657.720 1.680L673.560 1.680L673.560 36.000L700.680 36.000L700.680 1.680L716.520 1.680L716.520 85.680L700.680 85.680L700.680 51.120L673.560 51.120L673.560 85.680Z" fill="#000000" />
</svg>
