<svg xmlns="http://www.w3.org/2000/svg" viewBox="0 0 793.44 87.36" role="img" aria-label="GHOST GRADE">
  <path d="M27.600 87.360L27.600 87.360Q19.920 87.360 13.680 83.580Q7.440 79.800 3.720 72.240Q0 64.680 0 53.520L0 53.520L0 33.840Q0 22.920 4.020 15.360Q8.040 7.800 15.120 3.900Q22.200 0 31.440 0L31.440 0Q41.040 0 47.880 4.080Q54.720 8.160 58.320 15.060Q61.920 21.960 61.920 30.480L61.920 30.480L61.920 31.920L46.080 31.920L46.080 30.480Q46.080 22.920 42.180 19.020Q38.280 15.120 31.200 15.120L31.200 15.120Q24.600 15.120 20.220 19.560Q15.840 24.000 15.840 35.040L15.840 35.040L15.840 52.800Q15.840 72.240 31.680 72.240L31.680 72.240Q38.760 72.240 42.420 68.400Q46.080 64.560 46.080 58.320L46.080 58.320L25.920 58.320L25.920 43.200L61.920 43.200L61.920 85.680L47.520 85.680L47.520 76.320L45.360 76.320Q43.920 81 39.840 84.180Q35.760 87.360 27.600 87.360ZM91.320 85.680L75.480 85.680L75.480 1.680L91.320 1.680L91.320 36.000L118.440 36.000L118.440 1.680L134.280 1.680L134.280 85.680L118.440 85.680L118.440 51.120L91.320 51.120L91.320 85.680ZM178.320 87.360L178.320 87.360Q163.920 87.360 155.640 78.540Q147.360 69.720 147.360 53.040L147.360 53.040L147.360 34.320Q147.360 18.120 155.640 9.060Q163.920 0 178.320 0L178.320 0Q192.720 0 201 9.060Q209.280 18.120 209.280 34.320L209.280 34.320L209.280 53.040Q209.280 69.720 201 78.540Q192.720 87.360 178.320 87.360ZM178.320 72.960L178.320 72.960Q186.960 72.960 190.200 67.680Q193.440 62.400 193.440 54.000L193.440 54.000L193.440 33.360Q193.440 28.080 191.880 23.760Q190.320 19.440 187.020 16.920Q183.720 14.400 178.320 14.400L178.320 14.400Q172.920 14.400 169.560 16.920Q166.200 19.440 164.700 23.760Q163.200 28.080 163.200 33.360L163.200 33.360L163.200 54.000Q163.200 62.400 166.440 67.680Q169.680 72.960 178.320 72.960ZM252.960 87.360L252.960 87.360Q241.920 87.360 234.420 83.340Q226.920 79.320 223.140 72.360Q219.360 65.400 219.360 56.640L219.360 56.640L219.360 53.040L235.200 53.040L235.200 55.920Q235.200 63.480 239.640 67.980Q244.080 72.480 253.200 72.480L253.200 72.480Q260.400 72.480 263.880 69.360Q267.360 66.240 267.360 61.920L267.360 61.920Q267.360 59.160 266.040 56.820Q264.720 54.480 261.240 52.740Q257.760 51.000 251.280 49.920L251.280 49.920Q242.880 48.480 236.340 45.720Q229.800 42.960 226.020 37.980Q222.240 33.000 222.240 24.720L222.240 24.720L222.240 24.000Q222.240 17.160 225.840 11.700Q229.440 6.240 235.980 3.120Q242.520 0 251.280 0L251.280 0Q261.240 0 268.080 3.600Q274.920 7.200 278.460 13.140Q282 19.080 282 25.920L282 25.920L282 30.240L266.160 30.240L266.160 27.360Q266.160 22.320 262.260 18.600Q258.360 14.880 251.280 14.880L251.280 14.880Q245.400 14.880 241.860 17.340Q238.320 19.800 238.320 24.000L238.320 24.000Q238.320 28.320 242.100 30.960Q245.880 33.600 256.320 35.520L256.320 35.520Q269.520 37.800 276.480 43.500Q283.440 49.200 283.440 60.240L283.440 60.240L283.440 61.680Q283.440 73.320 275.280 80.340Q267.120 87.360 252.960 87.360ZM333.120 85.680L317.280 85.680L317.280 16.800L294.960 16.800L294.960 1.680L355.440 1.680L355.440 16.800L333.120 16.800L333.120 85.680ZM468.240 87.360L468.240 87.360Q460.560 87.360 454.320 83.580Q448.080 79.800 444.360 72.240Q440.640 64.680 440.640 53.520L440.640 53.520L440.640 33.840Q440.640 22.920 444.660 15.360Q448.680 7.800 455.760 3.900Q462.840 0 472.080 0L472.080 0Q481.680 0 488.520 4.080Q495.360 8.160 498.960 15.060Q502.560 21.960 502.560 30.480L502.560 30.480L502.560 31.920L486.720 31.920L486.720 30.480Q486.720 22.920 482.820 19.020Q478.920 15.120 471.840 15.120L471.840 15.120Q465.240 15.120 460.860 19.560Q456.480 24.000 456.480 35.040L456.480 35.040L456.480 52.800Q456.480 72.240 472.320 72.240L472.320 72.240Q479.400 72.240 483.060 68.400Q486.720 64.560 486.720 58.320L486.720 58.320L466.560 58.320L466.560 43.200L502.560 43.200L502.560 85.680L488.160 85.680L488.160 76.320L486 76.320Q484.560 81 480.480 84.180Q476.400 87.360 468.240 87.360ZM533.400 85.680L517.560 85.680L517.560 1.680L549.720 1.680Q558.360 1.680 564.240 4.800Q570.120 7.920 573.120 13.140Q576.120 18.360 576.120 24.840L576.120 24.840L576.120 27.720Q576.120 32.880 573.300 37.380Q570.480 41.880 564.840 44.280L564.840 44.280L564.840 46.440Q569.040 46.920 571.500 49.680Q573.960 52.440 573.960 56.640L573.960 56.640L573.960 85.680L558.120 85.680L558.120 60.480Q558.120 57.600 556.620 55.800Q555.120 54.000 551.640 54.000L551.640 54.000L533.400 54.000L533.400 85.680ZM533.400 16.800L533.400 38.880L548.520 38.880Q554.280 38.880 557.280 36.120Q560.280 33.360 560.280 28.560L560.280 28.560L560.280 27.120Q560.280 22.920 557.280 19.860Q554.280 16.800 548.520 16.800L548.520 16.800L533.400 16.800ZM600.600 85.680L584.040 85.680L604.080 1.680L633.840 1.680L653.880 85.680L637.320 85.680L633.240 67.680L604.680 67.680L600.600 85.680ZM617.880 9.600L608.040 52.560L629.760 52.560L620.040 9.600L617.880 9.600ZM691.680 85.680L661.200 85.680L661.200 70.440L669.120 70.440L669.120 16.800L661.200 16.800L661.200 1.680L691.680 1.680Q707.160 1.680 714.780 9Q722.400 16.320 722.400 31.440L722.400 31.440L722.400 55.920Q722.400 71.040 714.780 78.360Q707.160 85.680 691.680 85.680L691.680 85.680ZM684.960 16.800L684.960 70.560L691.680 70.560Q699.960 70.560 703.260 66.660Q706.560 62.760 706.560 54.480L706.560 54.480L706.560 31.440Q706.560 24.240 703.260 20.520Q699.960 16.800 691.680 16.800L691.680 16.800L684.960 16.800ZM793.440 85.680L738.960 85.680L738.960 1.680L792.000 1.680L792.000 16.800L754.800 16.800L754.800 36.000L790.560 36.000L790.560 51.120L754.800 51.120L754.800 70.560L793.440 70.560L793.440 85.680Z" fill="#000000" />
</svg>
