<svg xmlns="http://www.w3.org/2000/svg" viewBox="0 0 346.80 108.00" role="img" aria-label="Loops">
  <path d="M54 84L0 84L0 0L15.840 0L15.840 68.880L54 68.880L54 84ZM100.320 85.680L100.320 85.680Q92.160 85.680 85.080 82.080Q78 78.480 73.680 71.640Q69.360 64.800 69.360 54.960L69.360 54.960L69.360 53.520Q69.360 43.800 73.680 36.900Q78 30 85.080 26.400Q92.160 22.800 100.320 22.800L100.320 22.800Q108.480 22.800 115.560 26.400Q122.640 30 126.960 36.900Q131.280 43.800 131.280 53.520L131.280 53.520L131.280 54.960Q131.280 64.800 126.960 71.640Q122.640 78.480 115.560 82.080Q108.480 85.680 100.320 85.680ZM100.320 71.280L100.320 71.280Q106.920 71.280 111.540 67.020Q116.160 62.760 116.160 55.440L116.160 55.440L116.160 53.040Q116.160 45.600 111.540 41.400Q106.920 37.200 100.320 37.200L100.320 37.200Q93.720 37.200 89.100 41.400Q84.480 45.600 84.480 53.040L84.480 53.040L84.480 55.440Q84.480 62.760 89.100 67.020Q93.720 71.280 100.320 71.280ZM173.760 85.680L173.760 85.680Q165.600 85.680 158.520 82.080Q151.440 78.480 147.120 71.640Q142.800 64.800 142.800 54.960L142.800 54.960L142.800 53.520Q142.800 43.800 147.120 36.900Q151.440 30 158.520 26.400Q165.600 22.800 173.760 22.800L173.760 22.800Q181.920 22.800 189 26.400Q196.080 30 200.400 36.900Q204.720 43.800 204.720 53.520L204.720 53.520L204.720 54.960Q204.720 64.800 200.400 71.640Q196.080 78.480 189 82.080Q181.920 85.680 173.760 85.680ZM173.760 71.280L173.760 71.280Q180.360 71.280 184.980 67.020Q189.600 62.760 189.600 55.440L189.600 55.440L189.600 53.040Q189.600 45.600 184.980 41.400Q180.360 37.200 173.760 37.200L173.760 37.200Q167.160 37.200 162.540 41.400Q157.920 45.600 157.920 53.040L157.920 53.040L157.920 55.440Q157.920 62.760 162.540 67.020Q167.160 71.280 173.760 71.280ZM231.840 108L216.720 108L216.720 24.480L231.840 24.480L231.840 33.120L234 33.120Q236.400 28.200 241.020 25.500Q245.640 22.800 252.600 22.800L252.600 22.800Q259.680 22.800 265.560 26.400Q271.440 30 275.040 36.780Q278.640 43.560 278.640 53.160L278.640 53.160L278.640 55.320Q278.640 65.040 275.160 71.820Q271.680 78.600 265.800 82.140Q259.920 85.680 252.600 85.680L252.600 85.680Q244.560 85.680 240.300 82.500Q236.040 79.320 234 75.360L234 75.360L231.840 75.360L231.840 108ZM247.680 71.280L247.680 71.280Q254.760 71.280 259.140 66.840Q263.520 62.400 263.520 54.960L263.520 54.960L263.520 53.520Q263.520 46.080 259.140 41.640Q254.760 37.200 247.680 37.200L247.680 37.200Q240.720 37.200 236.280 41.700Q231.840 46.200 231.840 53.520L231.840 53.520L231.840 54.960Q231.840 62.280 236.280 66.780Q240.720 71.280 247.680 71.280ZM322.080 85.680L322.080 85.680Q312.840 85.680 307.140 82.680Q301.440 79.680 298.500 75.360Q295.560 71.040 294.720 66.960L294.720 66.960L308.640 62.400Q309.600 66.120 312.720 69.060Q315.840 72 322.080 72L322.080 72Q327.720 72 329.820 70.260Q331.920 68.520 331.920 66.480L331.920 66.480Q331.920 64.080 329.400 62.280Q326.880 60.480 319.320 59.880L319.320 59.880Q309.360 59.040 303.360 54.600Q297.360 50.160 297.360 41.760L297.360 41.760L297.360 41.040Q297.360 35.160 300.600 31.080Q303.840 27 309 24.900Q314.160 22.800 319.920 22.800L319.920 22.800Q327.480 22.800 332.400 25.140Q337.320 27.480 340.140 30.960Q342.960 34.440 344.160 37.920L344.160 37.920L330.480 43.440Q329.400 40.200 326.760 38.340Q324.120 36.480 319.920 36.480L319.920 36.480Q316.200 36.480 314.220 37.860Q312.240 39.240 312.240 41.280L312.240 41.280Q312.240 44.160 315.240 45.360Q318.240 46.560 326.160 47.520L326.160 47.520Q335.280 48.480 341.040 52.980Q346.800 57.480 346.800 65.520L346.800 65.520L346.800 66.240Q346.800 75 340.320 80.340Q333.840 85.680 322.080 85.680Z" fill="#000000" />
</svg>
