<svg xmlns="http://www.w3.org/2000/svg" viewBox="0 0 499.20 109.68" role="img" aria-label="Samples">
  <path d="M33.600 87.360L33.600 87.360Q22.560 87.360 15.060 83.340Q7.560 79.320 3.780 72.360Q0 65.400 0 56.640L0 56.640L0 53.040L15.840 53.040L15.840 55.920Q15.840 63.480 20.280 67.980Q24.720 72.480 33.840 72.480L33.840 72.480Q41.040 72.480 44.520 69.360Q48 66.240 48 61.920L48 61.920Q48 59.160 46.680 56.820Q45.360 54.480 41.880 52.740Q38.400 51.000 31.920 49.920L31.920 49.920Q23.520 48.480 16.980 45.720Q10.440 42.960 6.660 37.980Q2.880 33.000 2.880 24.720L2.880 24.720L2.880 24.000Q2.880 17.160 6.480 11.700Q10.080 6.240 16.620 3.120Q23.160 0 31.920 0L31.920 0Q41.880 0 48.720 3.600Q55.560 7.200 59.100 13.140Q62.640 19.080 62.640 25.920L62.640 25.920L62.640 30.240L46.800 30.240L46.800 27.360Q46.800 22.320 42.900 18.600Q39 14.880 31.920 14.880L31.920 14.880Q26.040 14.880 22.500 17.340Q18.960 19.800 18.960 24.000L18.960 24.000Q18.960 28.320 22.740 30.960Q26.520 33.600 36.960 35.520L36.960 35.520Q50.160 37.800 57.120 43.500Q64.080 49.200 64.080 60.240L64.080 60.240L64.080 61.680Q64.080 73.320 55.920 80.340Q47.760 87.360 33.600 87.360ZM100.200 87.360L100.200 87.360Q93.120 87.360 87.120 83.760Q81.120 80.160 77.520 73.320Q73.920 66.480 73.920 56.880L73.920 56.880L73.920 54.960Q73.920 45.480 77.400 38.640Q80.880 31.800 86.700 28.140Q92.520 24.480 99.480 24.480L99.480 24.480Q105.840 24.480 109.740 26.640Q113.640 28.800 115.920 33.360L115.920 33.360L118.080 33.360L118.080 26.160L133.200 26.160L133.200 67.680Q133.200 71.280 136.440 71.280L136.440 71.280L138.720 71.280L138.720 85.680L128.400 85.680Q124.320 85.680 121.740 83.220Q119.160 80.760 119.160 77.040L119.160 77.040L117 77.040Q114.720 82.560 110.340 84.960Q105.960 87.360 100.200 87.360ZM103.560 72.960L103.560 72.960Q110.160 72.960 114.120 68.580Q118.080 64.200 118.080 56.640L118.080 56.640L118.080 55.200Q118.080 47.640 114.120 43.260Q110.160 38.880 103.560 38.880L103.560 38.880Q96.960 38.880 93 43.260Q89.040 47.640 89.040 55.200L89.040 55.200L89.040 56.640Q89.040 64.200 93 68.580Q96.960 72.960 103.560 72.960ZM162 85.680L146.880 85.680L146.880 26.160L162 26.160L162 31.920L164.160 31.920Q164.880 28.680 167.520 26.580Q170.160 24.480 174.240 24.480L174.240 24.480Q178.200 24.480 181.020 26.580Q183.840 28.680 184.680 31.920L184.680 31.920L186.840 31.920Q187.800 28.680 190.920 26.580Q194.040 24.480 198.480 24.480L198.480 24.480Q204.480 24.480 208.080 28.500Q211.680 32.520 211.680 39.600L211.680 39.600L211.680 85.680L196.560 85.680L196.560 43.920Q196.560 41.400 195.300 40.140Q194.040 38.880 192 38.880L192 38.880Q189.720 38.880 188.280 40.320Q186.840 41.760 186.840 44.640L186.840 44.640L186.840 85.680L171.720 85.680L171.720 43.920Q171.720 41.400 170.340 40.140Q168.960 38.880 167.040 38.880L167.040 38.880Q164.880 38.880 163.440 40.320Q162 41.760 162 44.640L162 44.640L162 85.680ZM237.360 109.680L222.240 109.680L222.240 26.160L237.360 26.160L237.360 34.800L239.520 34.800Q241.920 29.880 246.540 27.180Q251.160 24.480 258.120 24.480L258.120 24.480Q265.200 24.480 271.080 28.080Q276.960 31.680 280.560 38.460Q284.160 45.240 284.160 54.840L284.160 54.840L284.160 57.000Q284.160 66.720 280.680 73.500Q277.200 80.280 271.320 83.820Q265.440 87.360 258.120 87.360L258.120 87.360Q250.080 87.360 245.820 84.180Q241.560 81 239.520 77.040L239.520 77.040L237.360 77.040L237.360 109.680ZM253.200 72.960L253.200 72.960Q260.280 72.960 264.660 68.520Q269.040 64.080 269.040 56.640L269.040 56.640L269.040 55.200Q269.040 47.760 264.660 43.320Q260.280 38.880 253.200 38.880L253.200 38.880Q246.240 38.880 241.800 43.380Q237.360 47.880 237.360 55.200L237.360 55.200L237.360 56.640Q237.360 63.960 241.800 68.460Q246.240 72.960 253.200 72.960ZM353.880 85.680L298.440 85.680L298.440 71.280L319.320 71.280L319.320 16.080L299.160 16.080L299.160 1.680L334.440 1.680L334.440 71.280L353.880 71.280L353.880 85.680ZM400.200 87.360L400.200 87.360Q391.320 87.360 384.480 83.580Q377.640 79.800 373.800 72.720Q369.960 65.640 369.960 55.680L369.960 55.680L369.960 54.960Q369.960 45.840 374.040 39.000Q378.120 32.160 384.900 28.320Q391.680 24.480 399.960 24.480L399.960 24.480Q407.640 24.480 413.160 27.120Q418.680 29.760 422.220 33.960Q425.760 38.160 427.500 43.140Q429.240 48.120 429.240 52.800L429.240 52.800L429.240 60.840L385.560 60.840Q385.800 66.120 390 69.540Q394.200 72.960 399.960 72.960L399.960 72.960Q405.600 72.960 408.660 70.920Q411.720 68.880 412.920 66.240L412.920 66.240L425.880 73.440Q424.560 76.440 421.500 79.680Q418.440 82.920 413.280 85.140Q408.120 87.360 400.200 87.360ZM385.800 47.880L385.800 47.880L413.880 47.880Q413.160 43.680 409.380 40.920Q405.600 38.160 399.840 38.160L399.840 38.160Q394.200 38.160 390.540 41.100Q386.880 44.040 385.800 47.880ZM474.480 87.360L474.480 87.360Q465.240 87.360 459.540 84.360Q453.840 81.360 450.900 77.040Q447.960 72.720 447.120 68.640L447.120 68.640L461.040 64.080Q462 67.800 465.120 70.740Q468.240 73.680 474.480 73.680L474.480 73.680Q480.120 73.680 482.220 71.940Q484.320 70.200 484.320 68.160L484.320 68.160Q484.320 65.760 481.800 63.960Q479.280 62.160 471.720 61.560L471.720 61.560Q461.760 60.720 455.760 56.280Q449.760 51.840 449.760 43.440L449.760 43.440L449.760 42.720Q449.760 36.840 453 32.760Q456.240 28.680 461.400 26.580Q466.560 24.480 472.320 24.480L472.320 24.480Q479.880 24.480 484.800 26.820Q489.720 29.160 492.540 32.640Q495.360 36.120 496.560 39.600L496.560 39.600L482.880 45.120Q481.800 41.880 479.160 40.020Q476.520 38.160 472.320 38.160L472.320 38.160Q468.600 38.160 466.620 39.540Q464.640 40.920 464.640 42.960L464.640 42.960Q464.640 45.840 467.640 47.040Q470.640 48.240 478.560 49.200L478.560 49.200Q487.680 50.160 493.440 54.660Q499.200 59.160 499.200 67.200L499.200 67.200L499.200 67.920Q499.200 76.680 492.720 82.020Q486.240 87.360 474.480 87.360Z" fill="#000000" />
</svg>
