<svg xmlns="http://www.w3.org/2000/svg" viewBox="0 0 425.76 109.68" role="img" aria-label="Synths">
  <path d="M33.600 87.360L33.600 87.360Q22.560 87.360 15.060 83.340Q7.560 79.320 3.780 72.360Q0 65.400 0 56.640L0 56.640L0 53.040L15.840 53.040L15.840 55.920Q15.840 63.480 20.280 67.980Q24.720 72.480 33.840 72.480L33.840 72.480Q41.040 72.480 44.520 69.360Q48 66.240 48 61.920L48 61.920Q48 59.160 46.680 56.820Q45.360 54.480 41.880 52.740Q38.400 51.000 31.920 49.920L31.920 49.920Q23.520 48.480 16.980 45.720Q10.440 42.960 6.660 37.980Q2.880 33.000 2.880 24.720L2.880 24.720L2.880 24.000Q2.880 17.160 6.480 11.700Q10.080 6.240 16.620 3.120Q23.160 0 31.920 0L31.920 0Q41.880 0 48.720 3.600Q55.560 7.200 59.100 13.140Q62.640 19.080 62.640 25.920L62.640 25.920L62.640 30.240L46.800 30.240L46.800 27.360Q46.800 22.320 42.900 18.600Q39 14.880 31.920 14.880L31.920 14.880Q26.040 14.880 22.500 17.340Q18.960 19.800 18.960 24.000L18.960 24.000Q18.960 28.320 22.740 30.960Q26.520 33.600 36.960 35.520L36.960 35.520Q50.160 37.800 57.120 43.500Q64.080 49.200 64.080 60.240L64.080 60.240L64.080 61.680Q64.080 73.320 55.920 80.340Q47.760 87.360 33.600 87.360ZM124.680 109.680L89.280 109.680L89.280 95.280L115.560 95.280Q118.800 95.280 118.800 91.680L118.800 91.680L118.800 77.040L116.640 77.040Q112.680 87.360 99.600 87.360L99.600 87.360Q93.720 87.360 88.920 84.780Q84.120 82.200 81.300 76.860Q78.480 71.520 78.480 63.360L78.480 63.360L78.480 26.160L93.600 26.160L93.600 60.240Q93.600 66.480 96.660 70.080Q99.720 73.680 105.600 73.680L105.600 73.680Q112.440 73.680 115.620 69.300Q118.800 64.920 118.800 57.360L118.800 57.360L118.800 26.160L133.920 26.160L133.920 100.320Q133.920 104.400 131.340 107.040Q128.760 109.680 124.680 109.680L124.680 109.680ZM167.040 85.680L151.920 85.680L151.920 26.160L167.040 26.160L167.040 35.040L169.200 35.040Q171.240 30.000 175.800 27.240Q180.360 24.480 186.480 24.480L186.480 24.480Q192.240 24.480 196.980 26.940Q201.720 29.400 204.540 34.620Q207.360 39.840 207.360 48.000L207.360 48.000L207.360 85.680L192.240 85.680L192.240 51.840Q192.240 45.480 189.180 41.820Q186.120 38.160 180.360 38.160L180.360 38.160Q173.760 38.160 170.400 42.660Q167.040 47.160 167.040 54.720L167.040 54.720L167.040 85.680ZM275.760 85.680L250.560 85.680Q246.480 85.680 243.900 83.040Q241.320 80.400 241.320 76.320L241.320 76.320L241.320 40.560L223.680 40.560L223.680 26.160L241.320 26.160L241.320 1.680L256.440 1.680L256.440 26.160L277.920 26.160L277.920 40.560L256.440 40.560L256.440 67.680Q256.440 71.280 259.680 71.280L259.680 71.280L275.760 71.280L275.760 85.680ZM314.160 85.680L299.040 85.680L299.040 1.680L314.160 1.680L314.160 35.760L316.320 35.760Q318.600 30.360 323.040 27.420Q327.480 24.480 333.960 24.480L333.960 24.480Q342.840 24.480 348.660 30.240Q354.480 36.000 354.480 48.240L354.480 48.240L354.480 85.680L339.360 85.680L339.360 51.840Q339.360 45.480 336.300 41.820Q333.240 38.160 327.480 38.160L327.480 38.160Q320.880 38.160 317.520 42.660Q314.160 47.160 314.160 54.720L314.160 54.720L314.160 85.680ZM401.040 87.360L401.040 87.360Q391.800 87.360 386.100 84.360Q380.400 81.360 377.460 77.040Q374.520 72.720 373.680 68.640L373.680 68.640L387.600 64.080Q388.560 67.800 391.680 70.740Q394.800 73.680 401.040 73.680L401.040 73.680Q406.680 73.680 408.780 71.940Q410.880 70.200 410.880 68.160L410.880 68.160Q410.880 65.760 408.360 63.960Q405.840 62.160 398.280 61.560L398.280 61.560Q388.320 60.720 382.320 56.280Q376.320 51.840 376.320 43.440L376.320 43.440L376.320 42.720Q376.320 36.840 379.560 32.760Q382.800 28.680 387.960 26.580Q393.120 24.480 398.880 24.480L398.880 24.480Q406.440 24.480 411.360 26.820Q416.280 29.160 419.100 32.640Q421.920 36.120 423.120 39.600L423.120 39.600L409.440 45.120Q408.360 41.880 405.720 40.020Q403.080 38.160 398.880 38.160L398.880 38.160Q395.160 38.160 393.180 39.540Q391.200 40.920 391.200 42.960L391.200 42.960Q391.200 45.840 394.200 47.040Q397.200 48.240 405.120 49.200L405.120 49.200Q414.240 50.160 420 54.660Q425.760 59.160 425.760 67.200L425.760 67.200L425.760 67.920Q425.760 76.680 419.280 82.020Q412.800 87.360 401.040 87.360Z" fill="#000000" />
</svg>
