<svg xmlns="http://www.w3.org/2000/svg" viewBox="0 0 570.48 85.68" role="img" aria-label="Textures">
  <path d="M38.160 84L22.320 84L22.320 15.120L0 15.120L0 0L60.480 0L60.480 15.120L38.160 15.120L38.160 84ZM104.280 85.680L104.280 85.680Q95.400 85.680 88.560 81.900Q81.720 78.120 77.880 71.040Q74.040 63.960 74.040 54L74.040 54L74.040 53.280Q74.040 44.160 78.120 37.320Q82.200 30.480 88.980 26.640Q95.760 22.800 104.040 22.800L104.040 22.800Q111.720 22.800 117.240 25.440Q122.760 28.080 126.300 32.280Q129.840 36.480 131.580 41.460Q133.320 46.440 133.320 51.120L133.320 51.120L133.320 59.160L89.640 59.160Q89.880 64.440 94.080 67.860Q98.280 71.280 104.040 71.280L104.040 71.280Q109.680 71.280 112.740 69.240Q115.800 67.200 117.000 64.560L117.000 64.560L129.960 71.760Q128.640 74.760 125.580 78Q122.520 81.240 117.360 83.460Q112.200 85.680 104.280 85.680ZM89.880 46.200L89.880 46.200L117.960 46.200Q117.240 42 113.460 39.240Q109.680 36.480 103.920 36.480L103.920 36.480Q98.280 36.480 94.620 39.420Q90.960 42.360 89.880 46.200ZM164.880 84L147.480 84L162.720 54.600L162.720 52.440L148.200 24.480L165 24.480L176.040 46.320L178.200 46.320L189.240 24.480L205.920 24.480L191.520 52.440L191.520 54.600L206.760 84L189.360 84L178.200 60.720L176.040 60.720L164.880 84ZM273.600 84L248.400 84Q244.320 84 241.740 81.360Q239.160 78.720 239.160 74.640L239.160 74.640L239.160 38.880L221.520 38.880L221.520 24.480L239.160 24.480L239.160 0L254.280 0L254.280 24.480L275.760 24.480L275.760 38.880L254.280 38.880L254.280 66Q254.280 69.600 257.520 69.600L257.520 69.600L273.600 69.600L273.600 84ZM317.760 85.680L317.760 85.680Q311.880 85.680 307.080 83.100Q302.280 80.520 299.460 75.180Q296.640 69.840 296.640 61.680L296.640 61.680L296.640 24.480L311.760 24.480L311.760 58.560Q311.760 64.800 314.820 68.400Q317.880 72 323.760 72L323.760 72Q330.600 72 333.780 67.620Q336.960 63.240 336.960 55.680L336.960 55.680L336.960 24.480L352.080 24.480L352.080 84L336.960 84L336.960 75.360L334.800 75.360Q330.840 85.680 317.760 85.680ZM406.800 84L365.760 84L365.760 69.600L378 69.600L378 38.880L367.200 38.880L367.200 24.480L392.400 24.480L392.400 33.120L394.560 33.120Q396.240 28.200 400.320 25.500Q404.400 22.800 409.920 22.800L409.920 22.800Q418.800 22.800 424.200 28.380Q429.600 33.960 429.600 45.360L429.600 45.360L429.600 48L414 49.440L414 47.760Q414 42.840 411.480 39.900Q408.960 36.960 403.920 36.960L403.920 36.960Q398.880 36.960 396 40.440Q393.120 43.920 393.120 50.400L393.120 50.400L393.120 69.600L406.800 69.600L406.800 84ZM471.480 85.680L471.480 85.680Q462.600 85.680 455.760 81.900Q448.920 78.120 445.080 71.040Q441.240 63.960 441.240 54L441.240 54L441.240 53.280Q441.240 44.160 445.320 37.320Q449.400 30.480 456.180 26.640Q462.960 22.800 471.240 22.800L471.240 22.800Q478.920 22.800 484.440 25.440Q489.960 28.080 493.500 32.280Q497.040 36.480 498.780 41.460Q500.520 46.440 500.520 51.120L500.520 51.120L500.520 59.160L456.840 59.160Q457.080 64.440 461.280 67.860Q465.480 71.280 471.240 71.280L471.240 71.280Q476.880 71.280 479.940 69.240Q483.000 67.200 484.200 64.560L484.200 64.560L497.160 71.760Q495.840 74.760 492.780 78Q489.720 81.240 484.560 83.460Q479.400 85.680 471.480 85.680ZM457.080 46.200L457.080 46.200L485.160 46.200Q484.440 42 480.660 39.240Q476.880 36.480 471.120 36.480L471.120 36.480Q465.480 36.480 461.820 39.420Q458.160 42.360 457.080 46.200ZM545.760 85.680L545.760 85.680Q536.520 85.680 530.820 82.680Q525.120 79.680 522.180 75.360Q519.240 71.040 518.400 66.960L518.400 66.960L532.320 62.400Q533.280 66.120 536.400 69.060Q539.520 72 545.760 72L545.760 72Q551.400 72 553.500 70.260Q555.600 68.520 555.600 66.480L555.600 66.480Q555.600 64.080 553.080 62.280Q550.560 60.480 543.000 59.880L543.000 59.880Q533.040 59.040 527.040 54.600Q521.040 50.160 521.040 41.760L521.040 41.760L521.040 41.040Q521.040 35.160 524.280 31.080Q527.520 27 532.680 24.900Q537.840 22.800 543.600 22.800L543.600 22.800Q551.160 22.800 556.080 25.140Q561.000 27.480 563.820 30.960Q566.640 34.440 567.840 37.920L567.840 37.920L554.160 43.440Q553.080 40.200 550.440 38.340Q547.800 36.480 543.600 36.480L543.600 36.480Q539.880 36.480 537.900 37.860Q535.920 39.240 535.920 41.280L535.920 41.280Q535.920 44.160 538.920 45.360Q541.920 46.560 549.840 47.520L549.840 47.520Q558.960 48.480 564.720 52.980Q570.480 57.480 570.480 65.520L570.480 65.520L570.480 66.240Q570.480 75 564.000 80.340Q557.520 85.680 545.760 85.680Z" fill="#000000" />
</svg>
