<svg xmlns="http://www.w3.org/2000/svg" viewBox="0 0 800.04 112.56" role="img" aria-label="Apple Music">
  <path d="M16.560 88.560L0 88.560L20.040 4.560L49.800 4.560L69.840 88.560L53.280 88.560L49.200 70.560L20.640 70.560L16.560 88.560ZM33.840 12.480L24 55.440L45.720 55.440L36 12.480L33.840 12.480ZM93 112.560L77.880 112.560L77.880 29.040L93 29.040L93 37.680L95.160 37.680Q97.560 32.760 102.180 30.060Q106.800 27.360 113.760 27.360L113.760 27.360Q120.840 27.360 126.720 30.960Q132.600 34.560 136.200 41.340Q139.800 48.120 139.800 57.720L139.800 57.720L139.800 59.880Q139.800 69.600 136.320 76.380Q132.840 83.160 126.960 86.700Q121.080 90.240 113.760 90.240L113.760 90.240Q105.720 90.240 101.460 87.060Q97.200 83.880 95.160 79.920L95.160 79.920L93 79.920L93 112.560ZM108.840 75.840L108.840 75.840Q115.920 75.840 120.300 71.400Q124.680 66.960 124.680 59.520L124.680 59.520L124.680 58.080Q124.680 50.640 120.300 46.200Q115.920 41.760 108.840 41.760L108.840 41.760Q101.880 41.760 97.440 46.260Q93 50.760 93 58.080L93 58.080L93 59.520Q93 66.840 97.440 71.340Q101.880 75.840 108.840 75.840ZM166.440 112.560L151.320 112.560L151.320 29.040L166.440 29.040L166.440 37.680L168.600 37.680Q171.000 32.760 175.620 30.060Q180.240 27.360 187.200 27.360L187.200 27.360Q194.280 27.360 200.160 30.960Q206.040 34.560 209.640 41.340Q213.240 48.120 213.240 57.720L213.240 57.720L213.240 59.880Q213.240 69.600 209.760 76.380Q206.280 83.160 200.400 86.700Q194.520 90.240 187.200 90.240L187.200 90.240Q179.160 90.240 174.900 87.060Q170.640 83.880 168.600 79.920L168.600 79.920L166.440 79.920L166.440 112.560ZM182.280 75.840L182.280 75.840Q189.360 75.840 193.740 71.400Q198.120 66.960 198.120 59.520L198.120 59.520L198.120 58.080Q198.120 50.640 193.740 46.200Q189.360 41.760 182.280 41.760L182.280 41.760Q175.320 41.760 170.880 46.260Q166.440 50.760 166.440 58.080L166.440 58.080L166.440 59.520Q166.440 66.840 170.880 71.340Q175.320 75.840 182.280 75.840ZM282.960 88.560L227.520 88.560L227.520 74.160L248.400 74.160L248.400 18.960L228.240 18.960L228.240 4.560L263.520 4.560L263.520 74.160L282.960 74.160L282.960 88.560ZM329.280 90.240L329.280 90.240Q320.400 90.240 313.560 86.460Q306.720 82.680 302.880 75.600Q299.040 68.520 299.040 58.560L299.040 58.560L299.040 57.840Q299.040 48.720 303.120 41.880Q307.200 35.040 313.980 31.200Q320.760 27.360 329.040 27.360L329.040 27.360Q336.720 27.360 342.240 30.000Q347.760 32.640 351.300 36.840Q354.840 41.040 356.580 46.020Q358.320 51.000 358.320 55.680L358.320 55.680L358.320 63.720L314.640 63.720Q314.880 69 319.080 72.420Q323.280 75.840 329.040 75.840L329.040 75.840Q334.680 75.840 337.740 73.800Q340.800 71.760 342 69.120L342 69.120L354.960 76.320Q353.640 79.320 350.580 82.560Q347.520 85.800 342.360 88.020Q337.200 90.240 329.280 90.240ZM314.880 50.760L314.880 50.760L342.960 50.760Q342.240 46.560 338.460 43.800Q334.680 41.040 328.920 41.040L328.920 41.040Q323.280 41.040 319.620 43.980Q315.960 46.920 314.880 50.760ZM455.880 88.560L441.480 88.560L441.480 4.560L469.320 4.560L474.120 67.680L474.120 79.920L477.000 79.920L477.000 67.680L481.800 4.560L509.640 4.560L509.640 88.560L495.240 88.560L495.240 32.400L496.680 13.200L493.800 13.200L487.560 88.560L463.800 88.560L457.320 13.200L454.440 13.200L455.880 32.400L455.880 88.560ZM542.760 90.240L542.760 90.240Q536.880 90.240 532.080 87.660Q527.280 85.080 524.460 79.740Q521.640 74.400 521.640 66.240L521.640 66.240L521.640 29.040L536.760 29.040L536.760 63.120Q536.760 69.360 539.820 72.960Q542.880 76.560 548.760 76.560L548.760 76.560Q555.600 76.560 558.780 72.180Q561.960 67.800 561.960 60.240L561.960 60.240L561.960 29.040L577.080 29.040L577.080 88.560L561.960 88.560L561.960 79.920L559.800 79.920Q555.840 90.240 542.760 90.240ZM623.880 90.240L623.880 90.240Q614.640 90.240 608.940 87.240Q603.240 84.240 600.300 79.920Q597.360 75.600 596.520 71.520L596.520 71.520L610.440 66.960Q611.400 70.680 614.520 73.620Q617.640 76.560 623.880 76.560L623.880 76.560Q629.520 76.560 631.620 74.820Q633.720 73.080 633.720 71.040L633.720 71.040Q633.720 68.640 631.200 66.840Q628.680 65.040 621.120 64.440L621.120 64.440Q611.160 63.600 605.160 59.160Q599.160 54.720 599.160 46.320L599.160 46.320L599.160 45.600Q599.160 39.720 602.400 35.640Q605.640 31.560 610.800 29.460Q615.960 27.360 621.720 27.360L621.720 27.360Q629.280 27.360 634.200 29.700Q639.120 32.040 641.940 35.520Q644.760 39.000 645.960 42.480L645.960 42.480L632.280 48.000Q631.200 44.760 628.560 42.900Q625.920 41.040 621.720 41.040L621.720 41.040Q618 41.040 616.020 42.420Q614.040 43.800 614.040 45.840L614.040 45.840Q614.040 48.720 617.040 49.920Q620.040 51.120 627.960 52.080L627.960 52.080Q637.080 53.040 642.840 57.540Q648.600 62.040 648.600 70.080L648.600 70.080L648.600 70.800Q648.600 79.560 642.120 84.900Q635.640 90.240 623.880 90.240ZM697.200 22.800L697.200 22.800Q692.520 22.800 689.160 19.500Q685.800 16.200 685.800 11.400L685.800 11.400Q685.800 6.600 689.160 3.300Q692.520 0 697.200 0L697.200 0Q701.880 0 705.240 3.300Q708.600 6.600 708.600 11.400L708.600 11.400Q708.600 16.200 705.240 19.500Q701.880 22.800 697.200 22.800ZM722.160 88.560L669.600 88.560L669.600 74.160L689.760 74.160L689.760 43.440L671.040 43.440L671.040 29.040L704.880 29.040L704.880 74.160L722.160 74.160L722.160 88.560ZM770.040 90.240L770.040 90.240Q761.280 90.240 754.200 86.700Q747.120 83.160 742.980 76.380Q738.840 69.600 738.840 60L738.840 60L738.840 58.560Q738.840 48.960 743.040 41.940Q747.240 34.920 754.320 31.140Q761.400 27.360 770.040 27.360L770.040 27.360Q782.520 27.360 790.320 33.840Q798.120 40.320 800.040 50.880L800.040 50.880L785.160 54.720Q784.440 49.440 780.600 45.600Q776.760 41.760 769.800 41.760L769.800 41.760Q763.320 41.760 758.640 46.320Q753.960 50.880 753.960 58.920L753.960 58.920L753.960 59.640Q753.960 67.680 758.640 71.760Q763.320 75.840 769.800 75.840L769.800 75.840Q776.760 75.840 780.420 72.360Q784.080 68.880 785.160 63L785.160 63L800.040 66.720Q798.120 77.280 790.440 83.760Q782.760 90.240 770.040 90.240Z" fill="#000000" />
</svg>
