<svg xmlns="http://www.w3.org/2000/svg" viewBox="0 0 501.12 112.56" role="img" aria-label="Spotify">
  <path d="M33.600 90.240L33.600 90.240Q22.560 90.240 15.060 86.220Q7.560 82.200 3.780 75.240Q0 68.280 0 59.520L0 59.520L0 55.920L15.840 55.920L15.840 58.800Q15.840 66.360 20.280 70.860Q24.720 75.360 33.840 75.360L33.840 75.360Q41.040 75.360 44.520 72.240Q48 69.120 48 64.800L48 64.800Q48 62.040 46.680 59.700Q45.360 57.360 41.880 55.620Q38.400 53.880 31.920 52.800L31.920 52.800Q23.520 51.360 16.980 48.600Q10.440 45.840 6.660 40.860Q2.880 35.880 2.880 27.600L2.880 27.600L2.880 26.880Q2.880 20.040 6.480 14.580Q10.080 9.120 16.620 6Q23.160 2.880 31.920 2.880L31.920 2.880Q41.880 2.880 48.720 6.480Q55.560 10.080 59.100 16.020Q62.640 21.960 62.640 28.800L62.640 28.800L62.640 33.120L46.800 33.120L46.800 30.240Q46.800 25.200 42.900 21.480Q39 17.760 31.920 17.760L31.920 17.760Q26.040 17.760 22.500 20.220Q18.960 22.680 18.960 26.880L18.960 26.880Q18.960 31.200 22.740 33.840Q26.520 36.480 36.960 38.400L36.960 38.400Q50.160 40.680 57.120 46.380Q64.080 52.080 64.080 63.120L64.080 63.120L64.080 64.560Q64.080 76.200 55.920 83.220Q47.760 90.240 33.600 90.240ZM90.480 112.560L75.360 112.560L75.360 29.040L90.480 29.040L90.480 37.680L92.640 37.680Q95.040 32.760 99.660 30.060Q104.280 27.360 111.240 27.360L111.240 27.360Q118.320 27.360 124.200 30.960Q130.080 34.560 133.680 41.340Q137.280 48.120 137.280 57.720L137.280 57.720L137.280 59.880Q137.280 69.600 133.800 76.380Q130.320 83.160 124.440 86.700Q118.560 90.240 111.240 90.240L111.240 90.240Q103.200 90.240 98.940 87.060Q94.680 83.880 92.640 79.920L92.640 79.920L90.480 79.920L90.480 112.560ZM106.320 75.840L106.320 75.840Q113.400 75.840 117.780 71.400Q122.160 66.960 122.160 59.520L122.160 59.520L122.160 58.080Q122.160 50.640 117.780 46.200Q113.400 41.760 106.320 41.760L106.320 41.760Q99.360 41.760 94.920 46.260Q90.480 50.760 90.480 58.080L90.480 58.080L90.480 59.520Q90.480 66.840 94.920 71.340Q99.360 75.840 106.320 75.840ZM179.280 90.240L179.280 90.240Q171.120 90.240 164.040 86.640Q156.960 83.040 152.640 76.200Q148.320 69.360 148.320 59.520L148.320 59.520L148.320 58.080Q148.320 48.360 152.640 41.460Q156.960 34.560 164.040 30.960Q171.120 27.360 179.280 27.360L179.280 27.360Q187.440 27.360 194.520 30.960Q201.600 34.560 205.920 41.460Q210.240 48.360 210.240 58.080L210.240 58.080L210.240 59.520Q210.240 69.360 205.920 76.200Q201.600 83.040 194.520 86.640Q187.440 90.240 179.280 90.240ZM179.280 75.840L179.280 75.840Q185.880 75.840 190.500 71.580Q195.120 67.320 195.120 60L195.120 60L195.120 57.600Q195.120 50.160 190.500 45.960Q185.880 41.760 179.280 41.760L179.280 41.760Q172.680 41.760 168.060 45.960Q163.440 50.160 163.440 57.600L163.440 57.600L163.440 60Q163.440 67.320 168.060 71.580Q172.680 75.840 179.280 75.840ZM275.760 88.560L250.560 88.560Q246.480 88.560 243.900 85.920Q241.320 83.280 241.320 79.200L241.320 79.200L241.320 43.440L223.680 43.440L223.680 29.040L241.320 29.040L241.320 4.560L256.440 4.560L256.440 29.040L277.920 29.040L277.920 43.440L256.440 43.440L256.440 70.560Q256.440 74.160 259.680 74.160L259.680 74.160L275.760 74.160L275.760 88.560ZM327.480 22.800L327.480 22.800Q322.800 22.800 319.440 19.500Q316.080 16.200 316.080 11.400L316.080 11.400Q316.080 6.600 319.440 3.300Q322.800 0 327.480 0L327.480 0Q332.160 0 335.520 3.300Q338.880 6.600 338.880 11.400L338.880 11.400Q338.880 16.200 335.520 19.500Q332.160 22.800 327.480 22.800ZM352.440 88.560L299.880 88.560L299.880 74.160L320.040 74.160L320.040 43.440L301.320 43.440L301.320 29.040L335.160 29.040L335.160 74.160L352.440 74.160L352.440 88.560ZM403.800 88.560L388.680 88.560L388.680 43.440L371.760 43.440L371.760 29.040L388.680 29.040L388.680 16.800Q388.680 11.640 392.160 8.100Q395.640 4.560 400.800 4.560L400.800 4.560L425.040 4.560L425.040 18.960L407.040 18.960Q403.800 18.960 403.800 22.560L403.800 22.560L403.800 29.040L427.200 29.040L427.200 43.440L403.800 43.440L403.800 88.560ZM491.880 112.560L456.480 112.560L456.480 98.160L482.760 98.160Q486 98.160 486 94.560L486 94.560L486 79.920L483.840 79.920Q479.880 90.240 466.800 90.240L466.800 90.240Q460.920 90.240 456.120 87.660Q451.320 85.080 448.500 79.740Q445.680 74.400 445.680 66.240L445.680 66.240L445.680 29.040L460.800 29.040L460.800 63.120Q460.800 69.360 463.860 72.960Q466.920 76.560 472.800 76.560L472.800 76.560Q479.640 76.560 482.820 72.180Q486 67.800 486 60.240L486 60.240L486 29.040L501.120 29.040L501.120 103.200Q501.120 107.280 498.540 109.920Q495.960 112.560 491.880 112.560L491.880 112.560Z" fill="#000000" />
</svg>
